<?xml version="1.0" encoding="UTF-8"?>
<svg clip-rule="evenodd" fill-rule="evenodd" stroke-linejoin="round" stroke-miterlimit="1.4142" version="1.1" viewBox="0 0 4417 3259" xml:space="preserve" xmlns="http://www.w3.org/2000/svg">
    <g transform="matrix(4.1667 0 0 4.1667 -1216.6 -898.05)">
        
        
        
        
        
        
        
        
        
        
        
        
        
        
        <g><path d="m820 562.59c-59.069 0-112.74 7.1013-152.47 18.674v98.857c39.732 11.573 93.399 18.674 152.47 18.674 67.606 0 128.13-9.3019 168.79-23.964v-88.275c-40.655-14.663-101.18-23.966-168.79-23.966z" fill="#569833" fill-rule="nonzero"/><path d="m991.43 652.06c-1.7308-4.7849-2.0772-10.839-.61073-16.676 2.6251-10.451 10.061-16.244 16.609-12.939 1.6235.81985 3.0397 2.123 4.2123 3.7775.1072-.00045.2145 0 .3208.007 0 0 19.992 23.831 1.4867 52.055-.4016 1.6016-34.344 41.158-42.201 42.417-5.1426.82389 6.6822-40.386 20.183-68.642z" fill="#569833" fill-rule="nonzero"/><path d="m663.42 647.39c2.3783-4.3214 3.2121-10.226 1.8923-16.345-2.3631-10.956-10.729-18.448-18.686-16.731-1.9736.42541-3.7358 1.3785-5.235 2.7364-.12654-.026-.25309-.0507-.37918-.0686 0 0-25.26 18.826-5.4105 51.122.36123 1.6787 37.627 48.84 46.809 51.948 6.0091 2.0337-5.047-41.52-18.99-72.661z" fill="#569833" fill-rule="nonzero"/><path d="m627.97 650.1.003.007c.083.0651.1602.12386-.003-.007z" fill="#569833" fill-rule="nonzero"/><path d="m1029.9 616.37c-.3949-1.3749-.788-2.749-1.1945-4.1114l13.769-19.947c1.4045-2.0292 1.6917-4.666.7763-6.9802-.9154-2.302-2.9123-3.9534-5.2772-4.3573l-23.283-3.9512c-.9011-1.8407-1.847-3.6536-2.7957-5.4522l9.7812-22.393c1.0065-2.2827.7938-4.9339-.5398-7.0039-1.3287-2.0804-3.5855-3.2956-5.9903-3.2009l-23.629.85844c-1.2237-1.593-2.4663-3.1717-3.7344-4.7212l5.4302-24.003c.54971-2.438-.14449-4.9891-1.8412-6.7598-1.6882-1.7644-4.1414-2.4946-6.4735-1.922l-23.015 5.6577c-1.4903-1.317-3.0061-2.6175-4.5386-3.8919l.82928-24.642c.0889-2.4946-1.0738-4.8648-3.0712-6.2487-1.9951-1.3929-4.5291-1.6034-6.7114-.56811l-21.471 10.208c-1.7294-.99172-3.4679-1.9745-5.2251-2.9244l-3.7941-24.284c-.38457-2.46-1.9677-4.5493-4.185-5.5038-2.2092-.95941-4.7423-.64978-6.6822.81132l-19.143 14.363c-1.8847-.62644-3.7779-1.2264-5.6954-1.7999l-8.2505-23.028c-.83914-2.3465-2.7737-4.0705-5.1327-4.5552-2.351-.4806-4.7701.33341-6.4004 2.1548l-16.113 18.027c-1.9484-.22437-3.8973-.42899-5.8529-.59772l-12.44-20.962c-1.261-2.1234-3.4867-3.4158-5.8857-3.4158-2.3936 0-4.6238 1.2924-5.874 3.4158l-12.445 20.962c-1.9556.16873-3.9139.37335-5.8588.59772l-16.114-18.027c-1.6316-1.8214-4.0598-2.6354-6.4026-2.1548-2.3581.49002-4.2958 2.2087-5.1304 4.5552l-8.2577 23.028c-1.9116.57349-3.8058 1.1788-5.695 1.7999l-19.136-14.363c-1.9457-1.4656-4.4784-1.7748-6.6934-.81132-2.2074.95447-3.7968 3.0438-4.1791 5.5038l-3.7968 24.284c-1.7564.94998-3.4952 1.9269-5.2292 2.9244l-21.469-10.208c-2.18-1.0388-4.7248-.82478-6.7105.56811-1.9946 1.3839-3.16 3.7542-3.0694 6.2487l.82344 24.642c-1.528 1.2744-3.0398 2.5749-4.5377 3.8919l-23.011-5.6577c-2.3384-.56766-4.7881.1575-6.4803 1.922-1.703 1.7707-2.3927 4.3218-1.8457 6.7598l5.4203 24.003c-1.2574 1.5558-2.5017 3.1282-3.7214 4.7212l-23.628-.85844c-2.3851-.0705-4.6611 1.1205-5.9934 3.2009-1.335 2.07-1.5369 4.7212-.54342 7.0039l9.7888 22.393c-.95088 1.7986-1.8955 3.6115-2.8042 5.4522l-23.282 3.9512c-2.3653.39848-4.3591 2.0489-5.279 4.3573-.91408 2.3142-.61747 4.951.77856 6.9802l13.772 19.947c-.10635.35181-.20417.70722-.30963 1.0608l-7.5671 8.0378 20.346 28.741s195.27 90.077 376.4 1.5239c20.69-3.7124 25.513-35.253 25.513-35.253z" fill="#a0cb3b" fill-rule="nonzero"/><path d="m728.03 586.24a59.748 46.612 41.402 0020.201 64.553 59.748 46.612 41.402 0066.527 11.985 59.748 46.612 41.402 00-20.224-64.502 59.748 46.612 41.402 00-66.505-12.037z" clip-rule="evenodd" fill-rule="evenodd" style="paint-order:markers stroke fill"/><path d="m928.19 586.24a46.612 59.748 48.598 01-20.201 64.553 46.612 59.748 48.598 01-66.527 11.985 46.612 59.748 48.598 0120.224-64.502 46.612 59.748 48.598 0166.505-12.037z" clip-rule="evenodd" fill-rule="evenodd" style="paint-order:markers stroke fill"/><path d="m885.38 608.35c-8.4096 3.7652-17.066 2.7104-19.334-2.3551-2.2675-5.0645 2.7113-12.224 11.121-15.989 8.4092-3.765 17.066-2.7106 19.334 2.3539 2.2679 5.0655-2.7117 12.225-11.121 15.99z" fill="#fff" fill-rule="nonzero"/><path d="m774.77 588.37c8.2041 4.7922 12.034 13.515 8.5486 19.481-3.4836 5.9637-12.963 6.9137-21.167 2.1215-8.206-4.7934-12.033-13.516-8.5493-19.48 3.4849-5.966 12.962-6.916 21.168-2.1226z" fill="#fff" fill-rule="nonzero"/><path d="m634.31 655.1c4.9213-5.5926 16.878-12.366 15.962-20.769-1.6392-15.045-14.116-26.026-27.866-24.528-3.4104.37155-6.5776 1.4772-9.3894 3.1573-.20732-.048-.41509-.0947-.62285-.13193 0 0-46.503 22.829-19.998 68.503.24994 2.3052 52.883 69.854 67.665 74.998 9.6744 3.3664-8.9349-57.726-25.75-101.23z" fill="#a0cb3b" fill-rule="nonzero"/><path d="m1012.1 653.06c-5.6959-4.8015-20.715-9.1624-21.055-17.608-.60849-15.122 10.102-27.831 23.923-28.387 3.4275-.13821 6.7239.48599 9.7534 1.7308.1983-.0781.3967-.15526.5964-.22302 0 0 49.373 15.684 29.929 64.783.094 2.3168-41.943 76.921-55.799 84.199-9.0686 4.7634 2.4707-58.978 12.652-104.5z" fill="#a0cb3b" fill-rule="nonzero"/><path d="m670 653.46s-.62061 61.61 59.757 75.358l12.589-25.292s-43.75 4.2321-47.115-50.066z" fill="#a0cb3b" fill-rule="nonzero"/><path d="m977.49 653.46s.62016 61.61-59.757 75.358l-12.589-25.292s43.75 4.2321 47.115-50.066z" fill="#a0cb3b" fill-rule="nonzero"/><path d="m933.87 716.3c-9.087-21.962-38.41-30.682-65.494-19.475-23.84 9.8638-37.98 31.875-34.833 51.984 18.823-.29258 39.013-1.5127 58.667-4.3609 0 0-11.594 18.741-28.655 35.096 11.472 2.9612 24.853 2.1396 37.728-3.1879 27.085-11.206 41.675-38.095 32.588-60.057z" fill="#a0cb3b" fill-rule="nonzero"/><path d="m765.85 743.4s24.772 3.2736 58.637 4.1087c2.9662-21.32-13.184-43.883-38.951-52.612-28.467-9.6425-57.883 1.2529-65.702 24.336-7.8193 23.083 8.9192 49.613 37.386 59.256 12.619 4.2747 25.422 4.5094 36.451 1.4391-16.563-16.381-27.821-36.528-27.821-36.528z" clip-rule="evenodd" fill="#a0cb3b" fill-rule="nonzero" stroke-linejoin="round" stroke-miterlimit="1.4142"/><path d="m936.03 723.71-43.967 20.976c-.78623 1.2572-12.049 19.083-28.504 34.859 11.472 2.9612 24.853 2.1395 37.728-3.188 24.101-9.9718 38.308-32.361 34.743-52.647z" clip-rule="evenodd" fill="#a0cb3b" fill-rule="nonzero" stroke-linejoin="round" stroke-miterlimit="1.4142"/><path d="m674.29 380.72a12 12 0 00-7.8301 4.8027 12 12 0 002.6621 16.76s52.467 38.277 57.844 106.96a12 12 0 0012.898 11.025 12 12 0 0011.027-12.898c-6.2725-80.124-67.67-124.51-67.67-124.51a12 12 0 00-8.9316-2.1406z" clip-rule="nonzero" color="#000000" fill="#8aaf31" fill-rule="nonzero" stroke-linecap="round" stroke-linejoin="miter" style="-inkscape-stroke:none"/><ellipse transform="rotate(-17.65)" cx="531.83" cy="584.73" rx="33.719" ry="27.793" clip-rule="evenodd" fill="#a0cb3b" fill-rule="evenodd" style="paint-order:markers stroke fill"/><g transform="matrix(-1 0 0 1 1644.6 0)"><path d="m674.29 380.72a12 12 0 00-7.8301 4.8027 12 12 0 002.6621 16.76s52.467 38.277 57.844 106.96a12 12 0 0012.898 11.025 12 12 0 0011.027-12.898c-6.2725-80.124-67.67-124.51-67.67-124.51a12 12 0 00-8.9316-2.1406z" color="#000000" fill="#8aaf31" stroke-linecap="round" stroke-linejoin="miter" style="-inkscape-stroke:none"/><ellipse transform="rotate(-17.65)" cx="531.83" cy="584.73" rx="33.719" ry="27.793" clip-rule="evenodd" fill="#a0cb3b" fill-rule="evenodd" style="paint-order:markers stroke fill"/></g></g>
    </g>
</svg>
