<?xml version="1.0" encoding="UTF-8"?>
<svg clip-rule="evenodd" fill-rule="evenodd" stroke-linejoin="round" stroke-miterlimit="1.4142" version="1.1" viewBox="0 0 4417 3259" xml:space="preserve" xmlns="http://www.w3.org/2000/svg"><defs><clipPath id="clipPath30785"><path d="m1359.6 50.254c-5.54 0-10 4.46-10 10v945.46a1274 306.73 0 00-368.88 215.07 1274 306.73 0 001274 306.73 1274 306.73 0 001274-306.73 1274 306.73 0 00-415.05-226.44v-934.09c0-5.54-4.46-10-10-10z" fill="#f00" style="paint-order:markers stroke fill"/></clipPath></defs>
    <g transform="matrix(4.1667 0 0 4.1667 -1216.6 -898.05)">
        
        
        
        
        
        
        
        
        
        
        
        
        
        
        <g fill-rule="nonzero"><g fill="#8f1e1c"><path d="m820 562.59c-59.069 0-112.74 7.1013-152.47 18.674v98.857c39.732 11.573 93.399 18.674 152.47 18.674 67.606 0 128.13-9.3019 168.79-23.964v-88.275c-40.655-14.663-101.18-23.966-168.79-23.966z"/><path d="m991.43 652.06c-1.7308-4.7849-2.0772-10.839-.61073-16.676 2.6251-10.451 10.061-16.244 16.609-12.939 1.6235.81985 3.0397 2.123 4.2123 3.7775.1072-.00045.2145 0 .3208.007 0 0 19.992 23.831 1.4867 52.055-.4016 1.6016-34.344 41.158-42.201 42.417-5.1426.82389 6.6822-40.386 20.183-68.642z"/><path d="m663.42 647.39c2.3783-4.3214 3.2121-10.226 1.8923-16.345-2.3631-10.956-10.729-18.448-18.686-16.731-1.9736.42541-3.7358 1.3785-5.235 2.7364-.12654-.026-.25309-.0507-.37918-.0686 0 0-25.26 18.826-5.4105 51.122.36123 1.6787 37.627 48.84 46.809 51.948 6.0091 2.0337-5.047-41.52-18.99-72.661z"/></g><path d="m627.97 650.1.003.007c.083.0651.1602.12386-.003-.007z" fill="#e33a25"/><path d="m1029.9 616.37c-.3949-1.3749-.788-2.749-1.1945-4.1114l13.769-19.947c1.4045-2.0292 1.6917-4.666.7763-6.9802-.9154-2.302-2.9123-3.9534-5.2772-4.3573l-23.283-3.9512c-.9011-1.8407-1.847-3.6536-2.7957-5.4522l9.7812-22.393c1.0065-2.2827.7938-4.9339-.5398-7.0039-1.3287-2.0804-3.5855-3.2956-5.9903-3.2009l-23.629.85844c-1.2237-1.593-2.4663-3.1717-3.7344-4.7212l5.4302-24.003c.54971-2.438-.14449-4.9891-1.8412-6.7598-1.6882-1.7644-4.1414-2.4946-6.4735-1.922l-23.015 5.6577c-1.4903-1.317-3.0061-2.6175-4.5386-3.8919l.82928-24.642c.0889-2.4946-1.0738-4.8648-3.0712-6.2487-1.9951-1.3929-4.5291-1.6034-6.7114-.56811l-21.471 10.208c-1.7294-.99172-3.4679-1.9745-5.2251-2.9244l-3.7941-24.284c-.38457-2.46-1.9677-4.5493-4.185-5.5038-2.2092-.95941-4.7423-.64978-6.6822.81132l-19.143 14.363c-1.8847-.62644-3.7779-1.2264-5.6954-1.7999l-8.2505-23.028c-.83914-2.3465-2.7737-4.0705-5.1327-4.5552-2.351-.4806-4.7701.33341-6.4004 2.1548l-16.113 18.027c-1.9484-.22437-3.8973-.42899-5.8529-.59772l-12.44-20.962c-1.261-2.1234-3.4867-3.4158-5.8857-3.4158-2.3936 0-4.6238 1.2924-5.874 3.4158l-12.445 20.962c-1.9556.16873-3.9139.37335-5.8588.59772l-16.114-18.027c-1.6316-1.8214-4.0598-2.6354-6.4026-2.1548-2.3581.49002-4.2958 2.2087-5.1304 4.5552l-8.2577 23.028c-1.9116.57349-3.8058 1.1788-5.695 1.7999l-19.136-14.363c-1.9457-1.4656-4.4784-1.7748-6.6934-.81132-2.2074.95447-3.7968 3.0438-4.1791 5.5038l-3.7968 24.284c-1.7564.94998-3.4952 1.9269-5.2292 2.9244l-21.469-10.208c-2.18-1.0388-4.7248-.82478-6.7105.56811-1.9946 1.3839-3.16 3.7542-3.0694 6.2487l.82344 24.642c-1.528 1.2744-3.0398 2.5749-4.5377 3.8919l-23.011-5.6577c-2.3384-.56766-4.7881.1575-6.4803 1.922-1.703 1.7707-2.3927 4.3218-1.8457 6.7598l5.4203 24.003c-1.2574 1.5558-2.5017 3.1282-3.7214 4.7212l-23.628-.85844c-2.3851-.0705-4.6611 1.1205-5.9934 3.2009-1.335 2.07-1.5369 4.7212-.54342 7.0039l9.7888 22.393c-.95088 1.7986-1.8955 3.6115-2.8042 5.4522l-23.282 3.9512c-2.3653.39848-4.3591 2.0489-5.279 4.3573-.91408 2.3142-.61747 4.951.77856 6.9802l13.772 19.947c-.10635.35181-.20417.70722-.30963 1.0608l-7.5671 8.0378 20.346 28.741s195.27 90.077 376.4 1.5239c20.69-3.7124 25.513-35.253 25.513-35.253z" fill="#e43a25"/><path d="m857.2 600.15s21.61-23.662 43.22 0c0 0 16.98 31.552 0 47.326 0 0-27.785 22.086-43.22 0 0 0-18.524-17.354 0-47.326z" fill="#030404"/><path d="m882.22 608.93c0 9.214-5.4311 16.684-12.129 16.684-6.697 0-12.128-7.4697-12.128-16.684 0-9.2135 5.4311-16.684 12.128-16.684 6.6984 0 12.129 7.4706 12.129 16.684z" fill="#fff"/><path d="m760.75 593.69s37.07-16.413 47.187 20.221c0 0 10.598 42.699-30.441 45.11 0 0-52.333-10.08-16.746-65.331z" fill="#030404"/><path d="m779.37 609.53c0 9.5012-5.6003 17.207-12.51 17.207-6.9066 0-12.508-7.7062-12.508-17.207 0-9.5034 5.6016-17.207 12.508-17.207 6.9093 0 12.51 7.704 12.51 17.207z" fill="#fff"/><g fill="#e43a25"><path d="m634.31 655.1c4.9213-5.5926 16.878-12.366 15.962-20.769-1.6392-15.045-14.116-26.026-27.866-24.528-3.4104.37155-6.5776 1.4772-9.3894 3.1573-.20732-.048-.41509-.0947-.62285-.13193 0 0-46.503 22.829-19.998 68.503.24994 2.3052 52.883 69.854 67.665 74.998 9.6744 3.3664-8.9349-57.726-25.75-101.23z"/><path d="m1012.1 653.06c-5.6959-4.8015-20.715-9.1624-21.055-17.608-.60849-15.122 10.102-27.831 23.923-28.387 3.4275-.13821 6.7239.48599 9.7534 1.7308.1983-.0781.3967-.15526.5964-.22302 0 0 49.373 15.684 29.929 64.783.094 2.3168-41.943 76.921-55.799 84.199-9.0686 4.7634 2.4707-58.978 12.652-104.5z"/><path d="m670 653.46s-.62061 61.61 59.757 75.358l12.589-25.292s-43.75 4.2321-47.115-50.066z"/><path d="m977.49 653.46s.62016 61.61-59.757 75.358l-12.589-25.292s43.75 4.2321 47.115-50.066z"/><path d="m933.87 716.3c-9.087-21.962-38.41-30.682-65.494-19.475-23.84 9.8638-37.98 31.875-34.833 51.984 18.823-.29258 39.013-1.5127 58.667-4.3609 0 0-11.594 18.741-28.655 35.096 11.472 2.9612 24.853 2.1396 37.728-3.1879 27.085-11.206 41.675-38.095 32.588-60.057z"/></g></g><g clip-rule="evenodd" stroke-linejoin="round" stroke-miterlimit="1.4142"><path d="m765.85 743.4s24.772 3.2736 58.637 4.1087c2.9662-21.32-13.184-43.883-38.951-52.612-28.467-9.6425-57.883 1.2529-65.702 24.336-7.8193 23.083 8.9192 49.613 37.386 59.256 12.619 4.2747 25.422 4.5094 36.451 1.4391-16.563-16.381-27.821-36.528-27.821-36.528z" fill="#e43a25" fill-rule="nonzero"/></g>
    </g>
<g transform="matrix(.8641 0 0 .87229 300.2 150.55)" clip-path="url(#clipPath30785)" stroke-width="1.1518"><ellipse cx="2208.9" cy="1439.1" rx="861" ry="927.22" fill="#8cb9b9" stroke-linecap="round" stroke-linejoin="round" stroke-width="161.26" style="paint-order:markers stroke fill"/><g transform="matrix(.72164 0 0 .7186 497.42 364.41)" stroke-width="1.5995"><path d="m2163.1 1955.2s-329.31 174.48-618.83-78.157c-289.52-252.64-111.93-495.87-111.93-495.87s-48.157-109.35-9.3954-246.29c38.762-136.94 135.14-160.27 135.14-160.27s17.739-94.654 106.98-195.57c86.762-98.106 226-106.49 226-106.49s35.164-127.9 265.96-97.855c230.8 30.047 214.61 257.81 214.61 257.81l-.7627 1103.7s-37.936 40.694-107.08 40.694c-61.969 0-100.7-21.737-100.7-21.737z" fill="#faa" stroke="#ff7979" stroke-linejoin="miter" stroke-width="95.97"/><path transform="translate(-1694.2 444.15)" d="m3672.3 145.8c-29.366 12.133-49.42 27.98-62.588 42.682a30 30 0 004.709 1.7344s56.772 5.6737 72.701 52.711c4.0826 12.055 3.0327 17.546 1.7324 20.902s-3.8432 6.5019-10 10.143c-12.314 7.2813-37.589 11.766-55.875 11.961-38.284.40897-68.273 9.7354-89.875 26.213-21.602 16.478-33.089 39.185-37.951 59.664-3.9731 16.735-4.2291 32.683-3.1699 45.754-62.849 12.06-117.12 34.303-117.12 34.303a30 30 0 00-16.478 39.096 30 30 0 0039.096 16.479s55.201-22.254 113.48-32.391c29.141-5.0681 58.78-6.6769 80.012-2.5586 21.231 4.1183 31.474 10.68 37.324 24.979 7.243 17.704 5.4898 26.439-1.4707 39.324-6.9604 12.885-22.004 28.257-41.084 44.652-38.16 32.79-93.586 69.301-109.92 133.56-17.153 67.496 3.7442 144 3.7442 144a30 30 0 0036.205 22.115 30 30 0 0022.115-36.205s-14.928-71.785-3.9121-115.13c.2781-1.0943.6768-2.1744 1.0136-3.2617 33.88 36.243 120.44 114.01 250.54 128.04 123.93 13.369 227.56-27.121 280.16-96.453l.166-240.86c-24.269-38.199-62.504-70.325-115.84-76.803-13.316-1.6171-25.864-2.2803-37.656-2.1387-51.101.61379-88.034 16.345-111.99 35.098-29.482 23.08-40.373 52.115-40.373 52.115a30 30 0 0018.18 38.334 30 30 0 0038.334-18.18s3.5644-11.497 20.846-25.025c17.281-13.528 47.21-27.71 105.43-20.641 42.007 5.1013 66.975 32.207 83.166 68.98 16.191 36.774 19.118 82.646 14.416 104.89-15.269 72.23-107.16 136.27-248.4 121.03-128.2-13.829-206.57-100.67-221.96-119.19 15.965-15.961 35.265-31.951 54.84-48.771 20.637-17.733 41.175-36.479 54.77-61.645 13.594-25.165 17.366-58.412 4.2148-90.559-14.544-35.551-48.234-54.723-81.432-61.162-12.449-2.4148-25.192-3.4996-38.01-3.6094-4.1485-.0355-8.3059.11047-12.463.26758-.5019-7.6743-.3407-16.414 1.5977-24.578 2.4871-10.475 6.775-18.81 15.963-25.818 9.1878-7.0082 25.004-13.611 54.129-13.922 24.705-.26391 56.992-3.2925 85.772-20.311 14.39-8.509 28.278-21.709 35.408-40.111 7.1304-18.402 6.5138-40.083-.8496-61.826-14.186-41.89-44.523-65.081-71.652-77.881zm226.94 67.789c-35.396-.29594-60.809 6.2734-60.809 6.2734a30 30 0 00-22.215 36.146 30 30 0 0036.145 22.215s101.62-21.622 155.22 38.893c39.48 44.576 47.848 104.71 47.848 104.71a30 30 0 0010.49 18.045l.035-51.484s4.0313-57.621-21.264-118.72c-44.822-44.769-102.43-55.713-145.45-56.072zm-552.74 409.74c-5.3101.21823-11.126.78909-17.191 1.9258-24.261 4.5467-55.983 20.065-74.848 54.654-35.257 64.646-38.534 182.52 77.699 331.68 17.489 22.443 26.124 41.324 28.703 53.994 2.5795 12.67.5163 17.794-2.9355 22.125-6.9036 8.6624-37.389 19.541-90.691 6.75-37.394-8.9736-94.423-56.942-137.12-104.26-7.4271-8.2306-13.895-16.026-20.484-23.863-7.9969 15.748-17.2 37.125-24.508 63.539.162.1799.2849.3416.4473.5215 45.717 50.663 102.69 106.81 167.66 122.4 41.923 10.061 80.252 11.62 110.46.9433 4.2084 31.921 18.84 58.522 41.877 75.461 31.965 23.504 72.908 30.5 119.02 33.617 92.223 6.2341 210.14-6.0594 323.2 5.3515 97.212 9.8111 169.51 47.166 217.49 82.057l.049-70.797c-53.167-32.358-123.58-62.082-211.51-70.957-121.26-12.238-242.2.09-325.18-5.5196-41.489-2.8047-72.234-10.848-87.522-22.09-15.288-11.242-22.21-23.641-17.951-59.242 4.3245-36.146 24.334-54.438 62.045-68.592 37.71-14.154 91.331-18.751 145.1-17.037 107.54 3.427 214.42 30.07 214.42 30.07a30 30 0 0036.41-21.777 30 30 0 00-21.777-36.41s-111.05-28.152-227.14-31.852c-7.2555-.2312-14.536-.37477-21.82-.41211-50.986-.26133-102.15 4.6834-146.27 21.244-19.182 7.1992-37.275 17.397-52.744 30.504-7.152-17.116-17.792-34.549-31.9-52.654-106.72-136.95-93.837-226.68-72.352-266.07 9.7166-17.816 21.313-22.178 33.225-24.41 11.911-2.2322 20.689-.40234 20.689-.40234a30 30 0 0035.697-22.928 30 30 0 00-22.928-35.697s-11.39-2.5258-27.32-1.8711zm-228.94 664c21.543 39.39 52.095 80.237 94.854 121.57 76.233 30.578 188.25 58.796 340.29 56.652 129.01-1.8193 212.71-34.656 212.71-34.656a30 30 0 0016.859-38.934 30 30 0 00-38.932-16.859s-72.037 28.771-191.48 30.455c-150.9 2.128-257.92-27.074-326.9-56.166-68.986-29.093-97.844-56.234-97.844-56.234a30 30 0 00-9.5547-5.8262z" fill="#ff7979"/><g transform="matrix(-1 0 0 1 4743.3 0)"><path d="m2163.1 1955.2s-329.31 174.48-618.83-78.157c-289.52-252.64-111.93-495.87-111.93-495.87s-48.157-109.35-9.3954-246.29c38.762-136.94 135.14-160.27 135.14-160.27s17.739-94.654 106.98-195.57c86.762-98.106 226-106.49 226-106.49s35.164-127.9 265.96-97.855c230.8 30.047 214.61 257.81 214.61 257.81l-.7627 1103.7s-37.936 40.694-107.08 40.694c-61.969 0-100.7-21.737-100.7-21.737z" fill="#faa" stroke="#ff7979" stroke-linejoin="miter" stroke-width="95.97"/><path transform="translate(-1694.2 444.15)" d="m3672.3 145.8c-29.366 12.133-49.42 27.98-62.588 42.682a30 30 0 004.709 1.7344s56.772 5.6737 72.701 52.711c4.0826 12.055 3.0327 17.546 1.7324 20.902s-3.8432 6.5019-10 10.143c-12.314 7.2813-37.589 11.766-55.875 11.961-38.284.40897-68.273 9.7354-89.875 26.213-21.602 16.478-33.089 39.185-37.951 59.664-3.9731 16.735-4.2291 32.683-3.1699 45.754-62.849 12.06-117.12 34.303-117.12 34.303a30 30 0 00-16.478 39.096 30 30 0 0039.096 16.479s55.201-22.254 113.48-32.391c29.141-5.0681 58.78-6.6769 80.012-2.5586 21.231 4.1183 31.474 10.68 37.324 24.979 7.243 17.704 5.4898 26.439-1.4707 39.324-6.9604 12.885-22.004 28.257-41.084 44.652-38.16 32.79-93.586 69.301-109.92 133.56-17.153 67.496 3.7442 144 3.7442 144a30 30 0 0036.205 22.115 30 30 0 0022.115-36.205s-14.928-71.785-3.9121-115.13c.2781-1.0943.6768-2.1744 1.0136-3.2617 33.88 36.243 120.44 114.01 250.54 128.04 123.93 13.369 227.56-27.121 280.16-96.453l.166-240.86c-24.269-38.199-62.504-70.325-115.84-76.803-13.316-1.6171-25.864-2.2803-37.656-2.1387-51.101.61379-88.034 16.345-111.99 35.098-29.482 23.08-40.373 52.115-40.373 52.115a30 30 0 0018.18 38.334 30 30 0 0038.334-18.18s3.5644-11.497 20.846-25.025c17.281-13.528 47.21-27.71 105.43-20.641 42.007 5.1013 66.975 32.207 83.166 68.98 16.191 36.774 19.118 82.646 14.416 104.89-15.269 72.23-107.16 136.27-248.4 121.03-128.2-13.829-206.57-100.67-221.96-119.19 15.965-15.961 35.265-31.951 54.84-48.771 20.637-17.733 41.175-36.479 54.77-61.645 13.594-25.165 17.366-58.412 4.2148-90.559-14.544-35.551-48.234-54.723-81.432-61.162-12.449-2.4148-25.192-3.4996-38.01-3.6094-4.1485-.0355-8.3059.11047-12.463.26758-.5019-7.6743-.3407-16.414 1.5977-24.578 2.4871-10.475 6.775-18.81 15.963-25.818 9.1878-7.0082 25.004-13.611 54.129-13.922 24.705-.26391 56.992-3.2925 85.772-20.311 14.39-8.509 28.278-21.709 35.408-40.111 7.1304-18.402 6.5138-40.083-.8496-61.826-14.186-41.89-44.523-65.081-71.652-77.881zm226.94 67.789c-35.396-.29594-60.809 6.2734-60.809 6.2734a30 30 0 00-22.215 36.146 30 30 0 0036.145 22.215s101.62-21.622 155.22 38.893c39.48 44.576 47.848 104.71 47.848 104.71a30 30 0 0010.49 18.045l.035-51.484s4.0313-57.621-21.264-118.72c-44.822-44.769-102.43-55.713-145.45-56.072zm-552.74 409.74c-5.3101.21823-11.126.78909-17.191 1.9258-24.261 4.5467-55.983 20.065-74.848 54.654-35.257 64.646-38.534 182.52 77.699 331.68 17.489 22.443 26.124 41.324 28.703 53.994 2.5795 12.67.5163 17.794-2.9355 22.125-6.9036 8.6624-37.389 19.541-90.691 6.75-37.394-8.9736-94.423-56.942-137.12-104.26-7.4271-8.2306-13.895-16.026-20.484-23.863-7.9969 15.748-17.2 37.125-24.508 63.539.162.1799.2849.3416.4473.5215 45.717 50.663 102.69 106.81 167.66 122.4 41.923 10.061 80.252 11.62 110.46.9433 4.2084 31.921 18.84 58.522 41.877 75.461 31.965 23.504 72.908 30.5 119.02 33.617 92.223 6.2341 210.14-6.0594 323.2 5.3515 97.212 9.8111 169.51 47.166 217.49 82.057l.049-70.797c-53.167-32.358-123.58-62.082-211.51-70.957-121.26-12.238-242.2.09-325.18-5.5196-41.489-2.8047-72.234-10.848-87.522-22.09-15.288-11.242-22.21-23.641-17.951-59.242 4.3245-36.146 24.334-54.438 62.045-68.592 37.71-14.154 91.331-18.751 145.1-17.037 107.54 3.427 214.42 30.07 214.42 30.07a30 30 0 0036.41-21.777 30 30 0 00-21.777-36.41s-111.05-28.152-227.14-31.852c-7.2555-.2312-14.536-.37477-21.82-.41211-50.986-.26133-102.15 4.6834-146.27 21.244-19.182 7.1992-37.275 17.397-52.744 30.504-7.152-17.116-17.792-34.549-31.9-52.654-106.72-136.95-93.837-226.68-72.352-266.07 9.7166-17.816 21.313-22.178 33.225-24.41 11.911-2.2322 20.689-.40234 20.689-.40234a30 30 0 0035.697-22.928 30 30 0 00-22.928-35.697s-11.39-2.5258-27.32-1.8711zm-228.94 664c21.543 39.39 52.095 80.237 94.854 121.57 76.233 30.578 188.25 58.796 340.29 56.652 129.01-1.8193 212.71-34.656 212.71-34.656a30 30 0 0016.859-38.934 30 30 0 00-38.932-16.859s-72.037 28.771-191.48 30.455c-150.9 2.128-257.92-27.074-326.9-56.166-68.986-29.093-97.844-56.234-97.844-56.234a30 30 0 00-9.5547-5.8262z" fill="#ff7979"/></g></g><path d="m1690.2 775.07c216.29-187.13 352.29-183.18 352.29-183.18l-63.766 225.36s-328.81 68.138-575.15 543.08c0 0 25.045-358.95 286.63-585.26z" fill="#fff" fill-opacity=".60784"/></g></svg>
