<?xml version="1.0" encoding="UTF-8" standalone="no"?>
<svg
   width="100%"
   height="100%"
   viewBox="0 0 4417 3259"
   version="1.1"
   xml:space="preserve"
   style="fill-rule:evenodd;clip-rule:evenodd;stroke-linejoin:round;stroke-miterlimit:1.41421;"
   id="svg2124"
   sodipodi:docname="cuddlyferris_catgirl.svg"
   inkscape:version="1.2.2 (b0a8486541, 2022-12-01)"
   xmlns:inkscape="http://www.inkscape.org/namespaces/inkscape"
   xmlns:sodipodi="http://sodipodi.sourceforge.net/DTD/sodipodi-0.dtd"
   xmlns="http://www.w3.org/2000/svg"
   xmlns:svg="http://www.w3.org/2000/svg"><defs
   id="defs2128"><inkscape:path-effect
     effect="fill_between_many"
     method="originald"
     linkedpaths="#path154189,0,1|"
     id="path-effect155820" /></defs><sodipodi:namedview
   id="namedview2126"
   pagecolor="#ffffff"
   bordercolor="#666666"
   borderopacity="1.0"
   inkscape:showpageshadow="2"
   inkscape:pageopacity="0.0"
   inkscape:pagecheckerboard="0"
   inkscape:deskcolor="#d1d1d1"
   showgrid="false"
   inkscape:zoom="0.18854734"
   inkscape:cx="861.8525"
   inkscape:cy="1922.594"
   inkscape:window-width="3812"
   inkscape:window-height="1052"
   inkscape:window-x="0"
   inkscape:window-y="0"
   inkscape:window-maximized="1"
   inkscape:current-layer="g2122" />
    <g
   transform="matrix(4.16667,0,0,4.16667,-1216.575,-898.0546)"
   id="g2122"
   style="display:inline">
        
        
        
        
        
        
        
        
        
        
        
        
        
        
        <g
   id="g13981"
   style="display:inline"><path
     d="m 819.99802,562.58817 c -59.06903,0 -112.73612,7.10132 -152.46848,18.67433 v 98.85658 c 39.73236,11.57301 93.39945,18.67388 152.46848,18.67388 67.60586,0 128.13105,-9.30194 168.78647,-23.96363 V 586.55404 C 948.12907,571.89101 887.60388,562.58817 819.99802,562.58817 Z"
     style="fill:#8f1e1c;fill-rule:nonzero;stroke-width:1"
     id="path2092" /><path
     d="m 991.42577,652.06339 c -1.73079,-4.78492 -2.07722,-10.83887 -0.61073,-16.67608 2.62513,-10.45072 10.06116,-16.2435 16.60926,-12.93853 1.6235,0.81985 3.0397,2.12299 4.2123,3.77749 0.1072,-4.5e-4 0.2145,0 0.3208,0.007 0,0 19.9923,23.8308 1.4867,52.05522 -0.4016,1.60155 -34.34388,41.15756 -42.20087,42.41672 -5.14256,0.82389 6.68219,-40.38572 20.18254,-68.642 z"
     style="fill:#8f1e1c;fill-rule:nonzero;stroke-width:1"
     id="path2094" /><path
     d="m 663.42177,647.38707 c 2.37833,-4.32137 3.21209,-10.22589 1.89234,-16.34537 -2.36307,-10.95644 -10.72938,-18.44771 -18.68644,-16.73128 -1.97356,0.42541 -3.73576,1.37853 -5.23501,2.73642 -0.12654,-0.026 -0.25309,-0.0507 -0.37918,-0.0686 0,0 -25.26049,18.82555 -5.41046,51.12228 0.36123,1.67874 37.62732,48.83999 46.80854,51.94752 6.00908,2.03369 -5.04698,-41.51969 -18.98979,-72.66092 z"
     style="fill:#8f1e1c;fill-rule:nonzero;stroke-width:1"
     id="path2096" /><path
     d="m 627.96591,650.0997 0.003,0.007 c 0.083,0.0651 0.1602,0.12386 -0.003,-0.007 z"
     style="fill:#e33a25;fill-rule:nonzero;stroke-width:1"
     id="path2098" /><path
     d="m 1029.881,616.37104 c -0.3949,-1.37494 -0.788,-2.74898 -1.1945,-4.11136 l 13.7687,-19.94695 c 1.4045,-2.02921 1.6917,-4.666 0.7763,-6.98016 -0.9154,-2.30203 -2.9123,-3.9534 -5.2772,-4.35726 l -23.2833,-3.95116 c -0.9011,-1.84074 -1.847,-3.65365 -2.7957,-5.4522 l 9.7812,-22.39348 c 1.0065,-2.28274 0.7938,-4.9339 -0.5398,-7.00394 -1.3287,-2.08036 -3.5855,-3.29555 -5.9903,-3.20086 l -23.62883,0.85844 c -1.22371,-1.59303 -2.46628,-3.1717 -3.73442,-4.7212 l 5.43021,-24.00312 c 0.54971,-2.438 -0.14449,-4.98909 -1.84118,-6.75982 -1.68816,-1.76445 -4.14142,-2.49455 -6.47353,-1.92195 l -23.01544,5.65771 c -1.49026,-1.31705 -3.00611,-2.6175 -4.53856,-3.89192 l 0.82928,-24.64212 c 0.0889,-2.49455 -1.07384,-4.8648 -3.07118,-6.24871 -1.9951,-1.39289 -4.52914,-1.60335 -6.71136,-0.56811 l -21.47088,10.2075 c -1.72944,-0.99172 -3.46786,-1.97446 -5.22513,-2.92444 l -3.7941,-24.28358 c -0.38457,-2.46 -1.96772,-4.54933 -4.18495,-5.5038 -2.20915,-0.95941 -4.74229,-0.64978 -6.68219,0.81132 l -19.14281,14.36283 c -1.88471,-0.62644 -3.77794,-1.22641 -5.69541,-1.7999 l -8.25054,-23.028 c -0.83914,-2.34646 -2.77366,-4.07052 -5.13269,-4.55516 -2.35095,-0.4806 -4.77011,0.33341 -6.40038,2.15485 l -16.11292,18.02679 c -1.94843,-0.22437 -3.89731,-0.42899 -5.85292,-0.59772 l -12.44043,-20.962 c -1.26096,-2.12344 -3.48671,-3.41582 -5.88567,-3.41582 -2.39358,0 -4.62382,1.29238 -5.87401,3.41582 l -12.44492,20.962 c -1.95561,0.16873 -3.91391,0.37335 -5.85875,0.59772 l -16.11426,-18.02679 c -1.63162,-1.82144 -4.05976,-2.63545 -6.40263,-2.15485 -2.35813,0.49002 -4.29579,2.2087 -5.13045,4.55516 l -8.25771,23.028 c -1.91164,0.57349 -3.80577,1.17884 -5.69497,1.7999 l -19.13608,-14.36283 c -1.94573,-1.46559 -4.47842,-1.77477 -6.69341,-0.81132 -2.20735,0.95447 -3.79679,3.0438 -4.17911,5.5038 l -3.7968,24.28358 c -1.75636,0.94998 -3.49523,1.92689 -5.22917,2.92444 l -21.46863,-10.2075 c -2.17998,-1.03883 -4.72478,-0.82478 -6.71046,0.56811 -1.99465,1.38391 -3.16003,3.75416 -3.06938,6.24871 l 0.82344,24.64212 c -1.52796,1.27442 -3.03977,2.57487 -4.53767,3.89192 l -23.01095,-5.65771 c -2.33838,-0.56766 -4.78806,0.1575 -6.48026,1.92195 -1.70296,1.77073 -2.39268,4.32182 -1.84566,6.75982 l 5.42033,24.00312 c -1.25737,1.55578 -2.50173,3.12817 -3.7214,4.7212 l -23.62842,-0.85844 c -2.38506,-0.0705 -4.66107,1.1205 -5.99338,3.20086 -1.335,2.07004 -1.53693,4.7212 -0.54342,7.00394 l 9.78882,22.39348 c -0.95088,1.79855 -1.89548,3.61146 -2.80418,5.4522 l -23.28199,3.95116 c -2.36531,0.39848 -4.35906,2.04894 -5.27898,4.35726 -0.91408,2.31416 -0.61747,4.95095 0.77856,6.98016 l 13.77184,19.94695 c -0.10635,0.35181 -0.20417,0.70722 -0.30963,1.06082 l -7.56711,8.03784 20.34634,28.74136 c 0,0 195.27022,90.07653 376.40199,1.52393 20.6905,-3.71243 25.5131,-35.25259 25.5131,-35.25259 z"
     style="fill:#e43a25;fill-rule:nonzero;stroke-width:1"
     id="path2100" /><path
     d="m 857.19859,600.15177 c 0,0 21.60998,-23.66162 43.22041,0 0,0 16.98034,31.55183 0,47.3255 0,0 -27.78465,22.08565 -43.22041,0 0,0 -18.52355,-17.35369 0,-47.3255 z"
     style="fill:#030404;fill-rule:nonzero;stroke-width:1"
     id="path2102" /><path
     d="m 882.21765,608.92958 c 0,9.21398 -5.4311,16.68371 -12.12945,16.68371 -6.697,0 -12.1281,-7.46973 -12.1281,-16.68371 0,-9.21354 5.4311,-16.68416 12.1281,-16.68416 6.69835,0 12.12945,7.47062 12.12945,16.68416 z"
     style="fill:#ffffff;fill-rule:nonzero;stroke-width:1"
     id="path2104" /><path
     d="m 760.74725,593.69081 c 0,0 37.06954,-16.41312 47.18684,20.22113 0,0 10.59834,42.69943 -30.4412,45.10962 0,0 -52.33298,-10.07961 -16.74564,-65.33075 z"
     style="fill:#030404;fill-rule:nonzero;stroke-width:1"
     id="path2106" /><path
     d="m 779.36549,609.53448 c 0,9.50118 -5.60028,17.2074 -12.50954,17.2074 -6.90656,0 -12.50818,-7.70622 -12.50818,-17.2074 0,-9.50342 5.60162,-17.20739 12.50818,-17.20739 6.90926,0 12.50954,7.70397 12.50954,17.20739 z"
     style="fill:#ffffff;fill-rule:nonzero;stroke-width:1"
     id="path2108" /><path
     d="m 634.30885,655.10316 c 4.92133,-5.59265 16.87757,-12.36594 15.96169,-20.7686 -1.63925,-15.04491 -14.11557,-26.02649 -27.86632,-24.52769 -3.41043,0.37155 -6.57763,1.47725 -9.38944,3.15733 -0.20732,-0.048 -0.41509,-0.0947 -0.62285,-0.13193 0,0 -46.5034,22.82877 -19.99766,68.50335 0.24994,2.30517 52.88314,69.85449 67.66464,74.9984 9.67439,3.36645 -8.93486,-57.72594 -25.75006,-101.23086 z"
     style="fill:#e43a25;fill-rule:nonzero;stroke-width:1"
     id="path2110" /><path
     d="m 1012.1244,653.06453 c -5.6959,-4.80152 -20.71478,-9.16238 -21.05493,-17.60767 -0.60849,-15.12165 10.10203,-27.83132 23.92323,-28.38731 3.4275,-0.13821 6.7239,0.48599 9.7534,1.73079 0.1983,-0.0781 0.3967,-0.15526 0.5964,-0.22302 0,0 49.3726,15.68392 29.9287,64.78284 0.094,2.31684 -41.9429,76.92126 -55.79862,84.19937 -9.06859,4.76338 2.47072,-58.97838 12.65182,-104.495 z"
     style="fill:#e43a25;fill-rule:nonzero;stroke-width:1"
     id="path2112" /><path
     d="m 670.00165,653.46167 c 0,0 -0.62061,61.61024 59.75695,75.35785 l 12.58896,-25.29235 c 0,0 -43.74994,4.23207 -47.11549,-50.0655 z"
     style="fill:#e43a25;fill-rule:nonzero;stroke-width:1"
     id="path2114" /><path
     d="m 977.48745,653.46167 c 0,0 0.62016,61.61024 -59.75739,75.35785 L 905.1411,703.52717 c 0,0 43.74993,4.23207 47.11548,-50.0655 z"
     style="fill:#e43a25;fill-rule:nonzero;stroke-width:1"
     id="path2116" /><path
     d="m 933.87214,716.30011 c -9.08699,-21.96225 -38.40992,-30.68172 -65.49409,-19.47533 -23.83977,9.86376 -37.98003,31.87492 -34.83301,51.98432 18.82286,-0.29258 39.01348,-1.5127 58.66651,-4.36086 0,0 -11.59411,18.74074 -28.65521,35.09643 11.47249,2.96123 24.85258,2.13959 37.72828,-3.18786 27.08462,-11.20639 41.67451,-38.0949 32.58752,-60.0567 z"
     style="fill:#e43a25;fill-rule:nonzero;stroke-width:1"
     id="path2118" /><path
     d="m 765.85437,743.40088 c 0,0 24.7718,3.27356 58.63689,4.10867 2.96617,-21.3201 -13.18399,-43.88321 -38.95111,-52.61166 -28.46718,-9.64253 -57.88256,1.25289 -65.70185,24.33608 -7.8193,23.0832 8.91916,49.61273 37.38634,59.25571 12.61903,4.2747 25.42248,4.50939 36.45072,1.43911 -16.56345,-16.38127 -27.82099,-36.52791 -27.82099,-36.52791 z"
     style="clip-rule:evenodd;display:inline;fill:#e43a25;fill-rule:nonzero;stroke-width:1;stroke-linejoin:round;stroke-miterlimit:1.41421"
     id="path2120" /></g>
    <path
   id="path154189"
   style="fill:#ffb179;fill-opacity:1;stroke-width:1"
   d="m 644.85685,418.728 c -2.87627,0.0407 -5.68954,1.62319 -7.44222,3.92015 -3.26835,4.05132 -4.51707,9.27974 -5.29509,14.31863 -0.95369,6.65621 -0.84256,13.43184 -0.36956,20.1011 1.10884,14.23313 4.06852,28.18869 8.04271,41.87886 4.28955,14.6622 9.8313,28.99619 16.98667,42.53527 5.25892,9.86864 11.43585,19.39431 19.36487,27.32307 1.38682,1.43967 2.80255,2.85689 4.33762,4.13972 1.59051,-0.94837 2.7033,-2.49013 3.93097,-3.83995 5.29604,-6.34989 9.91647,-13.20818 14.45539,-20.12696 5.344,-8.2817 10.52007,-16.68329 14.78642,-25.56906 1.59119,-3.52536 3.21637,-7.05467 5.37604,-10.27458 6.57687,-10.1459 15.8232,-18.30762 25.88366,-24.88924 10.44229,-6.80821 21.94918,-11.86937 33.81857,-15.60851 1.20094,-0.49107 2.68049,-0.90585 3.30363,-2.15264 0.12338,-1.15271 -1.0047,-1.91931 -1.76677,-2.59778 -3.2305,-2.50431 -7.02468,-4.12437 -10.73803,-5.83256 -11.69806,-5.07217 -23.76752,-9.21638 -35.81517,-13.36604 -13.64329,-4.63515 -27.31434,-9.18917 -40.86106,-14.10061 -8.8243,-3.14928 -17.59805,-6.43855 -26.27562,-9.97243 -5.91656,-2.27987 -11.82379,-4.63228 -18.10194,-5.67746 -1.09761,-0.16393 -2.41829,-0.26606 -3.62109,-0.20898 z m 359.23555,-0.001 c -6.0571,0.35991 -11.8787,2.26974 -17.6114,4.1265 -9.1364,3.07373 -18.07341,6.69475 -27.18247,9.84285 -16.46267,5.878 -33.02937,11.45518 -49.5918,17.04406 -11.02637,3.80859 -22.06015,7.6514 -32.72042,12.38596 -3.53183,1.61805 -7.07258,3.19456 -10.12032,5.63215 -0.50321,0.47003 -1.26376,0.99574 -1.18572,1.75754 0.70758,0.94416 2.02752,1.06658 3.09216,1.35261 5.92251,1.20182 11.40546,3.86248 16.78284,6.52825 9.29579,4.7963 18.18258,10.37641 26.73437,16.39258 5.69129,4.10085 11.30009,8.37504 16.26708,13.3465 1.59594,1.69958 3.22604,3.46783 4.19386,5.61444 0.62413,1.50335 0.33451,3.16348 0.68792,4.72652 0.76913,4.81812 2.65497,9.46254 4.69682,13.90787 3.40375,7.20584 7.59995,13.9822 12.84742,19.97712 2.02309,2.29419 4.35378,4.2871 6.77508,6.14474 1.80667,1.5393 3.71463,3.06043 5.01815,5.06992 0.32341,1.20665 0.84654,2.33685 1.56521,3.36087 1.24446,2.02764 3.03576,4.39052 5.67528,4.58772 2.97543,0.15717 5.49844,-1.79 7.61034,-3.65417 3.6639,-3.36959 6.4933,-7.52436 9.1316,-11.71434 6.1699,-10.04762 10.8426,-20.93116 14.9383,-31.96292 5.7088,-15.5535 10.0136,-31.57812 12.7546,-47.91937 1.8376,-11.077 2.8142,-22.28115 2.4458,-33.52396 -0.1445,-5.18663 -0.3413,-10.3959 -1.7869,-15.42517 -0.8439,-2.81178 -2.5031,-5.6764 -5.3664,-6.78999 -1.7804,-0.73815 -3.7461,-0.85732 -5.6514,-0.80828 z"
   sodipodi:nodetypes="ccccccccccccccccccccccccccccccccccccccccccccccccc" /><path
   id="path155864"
   style="display:inline;fill:#e43a25;fill-opacity:1;stroke-width:1"
   d="m 612.30579,419.32911 c -3.08903,-0.0634 -5.29033,0.71828 -7.21635,2.2418 -21.27267,16.82723 1.22845,112.06878 34.8597,147.55283 3.37183,3.55761 6.40912,6.46817 6.74963,6.46817 3.88606,0 28.14596,-36.08334 35.13282,-52.25536 8.7763,-20.31393 32.46552,-38.41989 62.67836,-47.90575 13.42638,-4.21545 0.52258,-11.2076 -54.77941,-29.68319 -19.0987,-6.38059 -42.38519,-14.73706 -51.7473,-18.57002 -12.91487,-5.28754 -20.52906,-7.74257 -25.67745,-7.84848 z m 358.66484,0.58838 c -6.7195,0.0629 -16.7595,3.27674 -31.69358,8.92941 -10.86002,4.11065 -35.68892,12.79099 -55.17541,19.2896 -46.63514,15.5525 -61.64637,23.54178 -48.77042,25.95734 16.97332,3.1842 63.04967,34.23972 63.11133,42.5372 0.0848,11.39596 12.62691,34.32334 23.16529,42.34639 3.64089,2.77193 6.65483,5.7232 6.69749,6.55841 0.043,0.83521 1.34796,3.13314 2.9002,5.10655 15.8886,20.19903 53.0862,-65.09947 52.9799,-121.48896 -0.039,-20.69347 -2.0154,-29.34077 -13.2148,-29.23594 z m 1.2782,15.41308 c 4.9354,-2.45441 12.47327,7.11953 2.22828,10.43189 -10.24498,3.31235 -7.22454,9.90951 -6.66824,11.35883 3.2834,8.55625 12.10742,18.64593 7.94946,20.43104 -0.52504,0.22541 -4.66076,-0.33423 -8.59286,-2.40222 -3.9321,-2.06799 -7.1492,-3.11088 -7.1492,-2.31732 0,2.07957 7.47675,12.21165 10.51482,17.95249 1.03321,1.95238 3.34767,4.11831 3.34767,4.90551 0,2.06267 -8.6568,5.37728 -14.0435,5.37728 -4.5986,0 -4.5986,5e-5 -1.9408,7.83017 2.5855,7.61694 -3.55991,23.4741 -5.97421,25.88826 -0.4933,0.49327 -2.763,-1.36682 -5.0437,-4.13373 -8.00419,-9.7104 -12.87935,15.34057 -5.13142,25.82009 2.8507,3.85589 2.8507,3.85579 -0.1491,4.6601 -10.73931,2.87947 -20.45804,-2.31013 -29.49042,-15.74702 -4.04616,-6.01911 -13.31932,-29.53744 -11.97864,-30.37969 16.10971,-10.12073 26.05422,-20.76838 46.71236,-50.01436 11.1573,-15.79551 20.4741,-27.20691 25.4095,-29.66132 z m -359.17178,2.72362 c 4.34286,3.37914 9.38409,6.5999 24.19459,25.12486 15.1158,18.90685 29.54153,33.60231 41.21535,41.9858 3.18799,2.28946 5.7963,4.96686 5.7963,5.94977 0,7.09736 -21.90528,44.555 -30.07676,51.43083 -3.908,3.28837 -10.53738,4.66064 -12.59165,2.60636 -0.49931,-0.4993 -2.88633,-13.45439 -2.88633,-21.84697 0,-15.25924 6e-5,-15.2595 -5.10653,-16.09766 -10.3621,-1.70075 -15.12133,-6.12323 -10.04693,-9.33609 7.80029,-4.93881 13.1638,-18.80752 6.65841,-17.21984 -10.72892,2.61847 -14.5038,4.03978 -14.5038,-1.73741 0,-2.91868 1.17289,-7.6074 2.60635,-10.41903 2.60627,-5.11203 3.22651,-5.73576 -2.12084,-7.87534 -2.94105,-1.17677 -6.60663,-3.90797 -8.14544,-6.06902 -3.06321,-4.30191 1.10476,-4.9546 11.20889,-8.50273 2.89552,-1.01678 -3.67189,-5.06154 -7.99109,-6.85056 -3.98691,-1.65144 -9.79268,-9.06663 -8.2068,-19.74532 1.83684,-6.73139 5.65342,-4.77679 9.99628,-1.39765 z"
   sodipodi:nodetypes="ccsssssscssssssccsszzcsssssssssssscszzssssssssssssssscz"
   class="UnoptimicedTransforms"
   transform="translate(33.640053,-1.5786355)" /></g>
</svg>
