<?xml version="1.0" encoding="UTF-8"?>
<svg clip-rule="evenodd" fill-rule="evenodd" stroke-linejoin="round" stroke-miterlimit="1.4142" version="1.1" viewBox="0 0 4417 3259" xml:space="preserve" xmlns="http://www.w3.org/2000/svg">
    <g transform="matrix(4.1667 0 0 4.1667 -1216.6 -898.05)">
        
        
        
        
        
        
        
        
        
        
        
        
        
        
        <g fill-rule="nonzero"><g fill="#8f1e1c"><path d="m820 562.59c-59.069 0-112.74 7.1013-152.47 18.674v98.857c39.732 11.573 93.399 18.674 152.47 18.674 67.606 0 128.13-9.3019 168.79-23.964v-88.275c-40.655-14.663-101.18-23.966-168.79-23.966z"/><path d="m991.43 652.06c-1.7308-4.7849-2.0772-10.839-0.61073-16.676 2.6251-10.451 10.061-16.244 16.609-12.939 1.6235 0.81985 3.0397 2.123 4.2123 3.7775 0.1072-4.5e-4 0.2145 0 0.3208 7e-3 0 0 19.992 23.831 1.4867 52.055-0.4016 1.6016-34.344 41.158-42.201 42.417-5.1426 0.82389 6.6822-40.386 20.183-68.642z"/><path d="m663.42 647.39c2.3783-4.3214 3.2121-10.226 1.8923-16.345-2.3631-10.956-10.729-18.448-18.686-16.731-1.9736 0.42541-3.7358 1.3785-5.235 2.7364-0.12654-0.026-0.25309-0.0507-0.37918-0.0686 0 0-25.26 18.826-5.4105 51.122 0.36123 1.6787 37.627 48.84 46.809 51.948 6.0091 2.0337-5.047-41.52-18.99-72.661z"/></g><path d="m627.97 650.1 3e-3 7e-3c0.083 0.0651 0.1602 0.12386-3e-3 -7e-3z" fill="#e33a25"/><path d="m1029.9 616.37c-0.3949-1.3749-0.788-2.749-1.1945-4.1114l13.769-19.947c1.4045-2.0292 1.6917-4.666 0.7763-6.9802-0.9154-2.302-2.9123-3.9534-5.2772-4.3573l-23.283-3.9512c-0.9011-1.8407-1.847-3.6536-2.7957-5.4522l9.7812-22.393c1.0065-2.2827 0.7938-4.9339-0.5398-7.0039-1.3287-2.0804-3.5855-3.2956-5.9903-3.2009l-23.629 0.85844c-1.2237-1.593-2.4663-3.1717-3.7344-4.7212l5.4302-24.003c0.54971-2.438-0.14449-4.9891-1.8412-6.7598-1.6882-1.7644-4.1414-2.4946-6.4735-1.922l-23.015 5.6577c-1.4903-1.317-3.0061-2.6175-4.5386-3.8919l0.82928-24.642c0.0889-2.4946-1.0738-4.8648-3.0712-6.2487-1.9951-1.3929-4.5291-1.6034-6.7114-0.56811l-21.471 10.208c-1.7294-0.99172-3.4679-1.9745-5.2251-2.9244l-3.7941-24.284c-0.38457-2.46-1.9677-4.5493-4.185-5.5038-2.2092-0.95941-4.7423-0.64978-6.6822 0.81132l-19.143 14.363c-1.8847-0.62644-3.7779-1.2264-5.6954-1.7999l-8.2505-23.028c-0.83914-2.3465-2.7737-4.0705-5.1327-4.5552-2.351-0.4806-4.7701 0.33341-6.4004 2.1548l-16.113 18.027c-1.9484-0.22437-3.8973-0.42899-5.8529-0.59772l-12.44-20.962c-1.261-2.1234-3.4867-3.4158-5.8857-3.4158-2.3936 0-4.6238 1.2924-5.874 3.4158l-12.445 20.962c-1.9556 0.16873-3.9139 0.37335-5.8588 0.59772l-16.114-18.027c-1.6316-1.8214-4.0598-2.6354-6.4026-2.1548-2.3581 0.49002-4.2958 2.2087-5.1304 4.5552l-8.2577 23.028c-1.9116 0.57349-3.8058 1.1788-5.695 1.7999l-19.136-14.363c-1.9457-1.4656-4.4784-1.7748-6.6934-0.81132-2.2074 0.95447-3.7968 3.0438-4.1791 5.5038l-3.7968 24.284c-1.7564 0.94998-3.4952 1.9269-5.2292 2.9244l-21.469-10.208c-2.18-1.0388-4.7248-0.82478-6.7105 0.56811-1.9946 1.3839-3.16 3.7542-3.0694 6.2487l0.82344 24.642c-1.528 1.2744-3.0398 2.5749-4.5377 3.8919l-23.011-5.6577c-2.3384-0.56766-4.7881 0.1575-6.4803 1.922-1.703 1.7707-2.3927 4.3218-1.8457 6.7598l5.4203 24.003c-1.2574 1.5558-2.5017 3.1282-3.7214 4.7212l-23.628-0.85844c-2.3851-0.0705-4.6611 1.1205-5.9934 3.2009-1.335 2.07-1.5369 4.7212-0.54342 7.0039l9.7888 22.393c-0.95088 1.7986-1.8955 3.6115-2.8042 5.4522l-23.282 3.9512c-2.3653 0.39848-4.3591 2.0489-5.279 4.3573-0.91408 2.3142-0.61747 4.951 0.77856 6.9802l13.772 19.947c-0.10635 0.35181-0.20417 0.70722-0.30963 1.0608l-7.5671 8.0378 20.346 28.741s195.27 90.077 376.4 1.5239c20.69-3.7124 25.513-35.253 25.513-35.253z" fill="#e43a25"/><path d="m857.2 600.15s21.61-23.662 43.22 0c0 0 16.98 31.552 0 47.326 0 0-27.785 22.086-43.22 0 0 0-18.524-17.354 0-47.326z" fill="#030404"/><path d="m882.22 608.93c0 9.214-5.4311 16.684-12.129 16.684-6.697 0-12.128-7.4697-12.128-16.684 0-9.2135 5.4311-16.684 12.128-16.684 6.6984 0 12.129 7.4706 12.129 16.684z" fill="#fff"/><path d="m760.75 593.69s37.07-16.413 47.187 20.221c0 0 10.598 42.699-30.441 45.11 0 0-52.333-10.08-16.746-65.331z" fill="#030404"/><path d="m779.37 609.53c0 9.5012-5.6003 17.207-12.51 17.207-6.9066 0-12.508-7.7062-12.508-17.207 0-9.5034 5.6016-17.207 12.508-17.207 6.9093 0 12.51 7.704 12.51 17.207z" fill="#fff"/><g fill="#e43a25"><path d="m634.31 655.1c4.9213-5.5926 16.878-12.366 15.962-20.769-1.6392-15.045-14.116-26.026-27.866-24.528-3.4104 0.37155-6.5776 1.4772-9.3894 3.1573-0.20732-0.048-0.41509-0.0947-0.62285-0.13193 0 0-46.503 22.829-19.998 68.503 0.24994 2.3052 52.883 69.854 67.665 74.998 9.6744 3.3664-8.9349-57.726-25.75-101.23z"/><path d="m1012.1 653.06c-5.6959-4.8015-20.715-9.1624-21.055-17.608-0.60849-15.122 10.102-27.831 23.923-28.387 3.4275-0.13821 6.7239 0.48599 9.7534 1.7308 0.1983-0.0781 0.3967-0.15526 0.5964-0.22302 0 0 49.373 15.684 29.929 64.783 0.094 2.3168-41.943 76.921-55.799 84.199-9.0686 4.7634 2.4707-58.978 12.652-104.5z"/><path d="m670 653.46s-0.62061 61.61 59.757 75.358l12.589-25.292s-43.75 4.2321-47.115-50.066z"/><path d="m977.49 653.46s0.62016 61.61-59.757 75.358l-12.589-25.292s43.75 4.2321 47.115-50.066z"/><path d="m933.87 716.3c-9.087-21.962-38.41-30.682-65.494-19.475-23.84 9.8638-37.98 31.875-34.833 51.984 18.823-0.29258 39.013-1.5127 58.667-4.3609 0 0-11.594 18.741-28.655 35.096 11.472 2.9612 24.853 2.1396 37.728-3.1879 27.085-11.206 41.675-38.095 32.588-60.057z"/><path d="m765.85 743.4s24.772 3.2736 58.637 4.1087c2.9662-21.32-13.184-43.883-38.951-52.612-28.467-9.6425-57.883 1.2529-65.702 24.336-7.8193 23.083 8.9192 49.613 37.386 59.256 12.619 4.2747 25.422 4.5094 36.451 1.4391-16.563-16.381-27.821-36.528-27.821-36.528z" clip-rule="evenodd" stroke-linejoin="round" stroke-miterlimit="1.4142"/></g></g>
    <path d="m644.86 418.73c-2.8763 0.0407-5.6895 1.6232-7.4422 3.9202-3.2684 4.0513-4.5171 9.2797-5.2951 14.319-0.95369 6.6562-0.84256 13.432-0.36956 20.101 1.1088 14.233 4.0685 28.189 8.0427 41.879 4.2896 14.662 9.8313 28.996 16.987 42.535 5.2589 9.8686 11.436 19.394 19.365 27.323 1.3868 1.4397 2.8026 2.8569 4.3376 4.1397 1.5905-0.94837 2.7033-2.4901 3.931-3.84 5.296-6.3499 9.9165-13.208 14.455-20.127 5.344-8.2817 10.52-16.683 14.786-25.569 1.5912-3.5254 3.2164-7.0547 5.376-10.275 6.5769-10.146 15.823-18.308 25.884-24.889 10.442-6.8082 21.949-11.869 33.819-15.609 1.2009-0.49107 2.6805-0.90585 3.3036-2.1526 0.12338-1.1527-1.0047-1.9193-1.7668-2.5978-3.2305-2.5043-7.0247-4.1244-10.738-5.8326-11.698-5.0722-23.768-9.2164-35.815-13.366-13.643-4.6352-27.314-9.1892-40.861-14.101-8.8243-3.1493-17.598-6.4386-26.276-9.9724-5.9166-2.2799-11.824-4.6323-18.102-5.6775-1.0976-0.16393-2.4183-0.26606-3.6211-0.20898zm359.24-1e-3c-6.0571 0.35991-11.879 2.2697-17.611 4.1265-9.1364 3.0737-18.073 6.6948-27.182 9.8428-16.463 5.878-33.029 11.455-49.592 17.044-11.026 3.8086-22.06 7.6514-32.72 12.386-3.5318 1.618-7.0726 3.1946-10.12 5.6322-0.50321 0.47003-1.2638 0.99574-1.1857 1.7575 0.70758 0.94416 2.0275 1.0666 3.0922 1.3526 5.9225 1.2018 11.405 3.8625 16.783 6.5282 9.2958 4.7963 18.183 10.376 26.734 16.393 5.6913 4.1008 11.3 8.375 16.267 13.346 1.5959 1.6996 3.226 3.4678 4.1939 5.6144 0.62413 1.5034 0.33451 3.1635 0.68792 4.7265 0.76913 4.8181 2.655 9.4625 4.6968 13.908 3.4038 7.2058 7.6 13.982 12.847 19.977 2.0231 2.2942 4.3538 4.2871 6.7751 6.1447 1.8067 1.5393 3.7146 3.0604 5.0182 5.0699 0.32341 1.2066 0.84654 2.3368 1.5652 3.3609 1.2445 2.0276 3.0358 4.3905 5.6753 4.5877 2.9754 0.15717 5.4984-1.79 7.6103-3.6542 3.6639-3.3696 6.4933-7.5244 9.1316-11.714 6.1699-10.048 10.843-20.931 14.938-31.963 5.7088-15.554 10.014-31.578 12.755-47.919 1.8376-11.077 2.8142-22.281 2.4458-33.524-0.1445-5.1866-0.3413-10.396-1.7869-15.425-0.8439-2.8118-2.5031-5.6764-5.3664-6.79-1.7804-0.73815-3.7461-0.85732-5.6514-0.80828z" fill="#ffb179"/><path class="UnoptimicedTransforms" transform="translate(33.64 -1.5786)" d="m612.31 419.33c-3.089-0.0634-5.2903 0.71828-7.2164 2.2418-21.273 16.827 1.2284 112.07 34.86 147.55 3.3718 3.5576 6.4091 6.4682 6.7496 6.4682 3.8861 0 28.146-36.083 35.133-52.255 8.7763-20.314 32.466-38.42 62.678-47.906 13.426-4.2154 0.52258-11.208-54.779-29.683-19.099-6.3806-42.385-14.737-51.747-18.57-12.915-5.2875-20.529-7.7426-25.677-7.8485zm358.66 0.58838c-6.7195 0.0629-16.76 3.2767-31.694 8.9294-10.86 4.1106-35.689 12.791-55.175 19.29-46.635 15.552-61.646 23.542-48.77 25.957 16.973 3.1842 63.05 34.24 63.111 42.537 0.0848 11.396 12.627 34.323 23.165 42.346 3.6409 2.7719 6.6548 5.7232 6.6975 6.5584 0.043 0.83521 1.348 3.1331 2.9002 5.1066 15.889 20.199 53.086-65.099 52.98-121.49-0.039-20.693-2.0154-29.341-13.215-29.236zm1.2782 15.413c4.9354-2.4544 12.473 7.1195 2.2283 10.432-10.245 3.3124-7.2245 9.9095-6.6682 11.359 3.2834 8.5562 12.107 18.646 7.9495 20.431-0.52504 0.22541-4.6608-0.33423-8.5929-2.4022s-7.1492-3.1109-7.1492-2.3173c0 2.0796 7.4768 12.212 10.515 17.952 1.0332 1.9524 3.3477 4.1183 3.3477 4.9055 0 2.0627-8.6568 5.3773-14.044 5.3773-4.5986 0-4.5986 5e-5 -1.9408 7.8302 2.5855 7.6169-3.5599 23.474-5.9742 25.888-0.4933 0.49327-2.763-1.3668-5.0437-4.1337-8.0042-9.7104-12.879 15.341-5.1314 25.82 2.8507 3.8559 2.8507 3.8558-0.1491 4.6601-10.739 2.8795-20.458-2.3101-29.49-15.747-4.0462-6.0191-13.319-29.537-11.979-30.38 16.11-10.121 26.054-20.768 46.712-50.014 11.157-15.796 20.474-27.207 25.41-29.661zm-359.17 2.7236c4.3429 3.3791 9.3841 6.5999 24.195 25.125 15.116 18.907 29.542 33.602 41.215 41.986 3.188 2.2895 5.7963 4.9669 5.7963 5.9498 0 7.0974-21.905 44.555-30.077 51.431-3.908 3.2884-10.537 4.6606-12.592 2.6064-0.49931-0.4993-2.8863-13.454-2.8863-21.847 0-15.259 6e-5 -15.26-5.1065-16.098-10.362-1.7008-15.121-6.1232-10.047-9.3361 7.8003-4.9388 13.164-18.808 6.6584-17.22-10.729 2.6185-14.504 4.0398-14.504-1.7374 0-2.9187 1.1729-7.6074 2.6064-10.419 2.6063-5.112 3.2265-5.7358-2.1208-7.8753-2.941-1.1768-6.6066-3.908-8.1454-6.069-3.0632-4.3019 1.1048-4.9546 11.209-8.5027 2.8955-1.0168-3.6719-5.0615-7.9911-6.8506-3.9869-1.6514-9.7927-9.0666-8.2068-19.745 1.8368-6.7314 5.6534-4.7768 9.9963-1.3976z" fill="#e43a25"/></g>
</svg>
