<?xml version="1.0" encoding="UTF-8" standalone="no"?>
<svg
   width="100%"
   height="100%"
   viewBox="0 0 4417 3259"
   version="1.1"
   xml:space="preserve"
   style="fill-rule:evenodd;clip-rule:evenodd;stroke-linejoin:round;stroke-miterlimit:1.41421;"
   id="svg2124"
   sodipodi:docname="cuddlyferris_chromatic.svg"
   inkscape:version="1.2.2 (b0a8486541, 2022-12-01)"
   xmlns:inkscape="http://www.inkscape.org/namespaces/inkscape"
   xmlns:sodipodi="http://sodipodi.sourceforge.net/DTD/sodipodi-0.dtd"
   xmlns="http://www.w3.org/2000/svg"
   xmlns:svg="http://www.w3.org/2000/svg"><defs
   id="defs2128"><filter
     style="color-interpolation-filters:sRGB"
     inkscape:label="Additive Chromatic Aberration"
     inkscape:menu="Optical Defect"
     inkscape:menu-tooltip="Decompose the object into RGB additive chromatic aberration"
     id="filter4909"
     x="0"
     y="-0.016600013"
     width="1.0617627"
     height="1.0656683"><feOffset
       dx="7.2686688311688386"
       dy="7.0505275974025921"
       in="SourceGraphic"
       result="result1"
       id="feOffset4893" /><feOffset
       dx="11.998782467532479"
       dy="-5.8228490259740369"
       in="SourceGraphic"
       result="result2"
       id="feOffset4895" /><feOffset
       dx="10.105519480519476"
       dy="10.16132305194806"
       result="result3"
       id="feOffset4897" /><feColorMatrix
       in="result1"
       values="1 0 0 0 0 0 0 0 0 0 0 0 0 0 0 0 0 0 1 0"
       result="result4"
       id="feColorMatrix4899" /><feColorMatrix
       in="result2"
       values="0 0 0 0 0 0 1 0 0 0 0 0 0 0 0 0 0 0 1 0"
       result="result5"
       id="feColorMatrix4901" /><feColorMatrix
       in="result3"
       values="0 0 0 0 0 0 0 0 0 0 0 0 1 0 0 0 0 0 1 0"
       result="result6"
       id="feColorMatrix4903" /><feBlend
       mode="screen"
       in="result4"
       in2="result5"
       result="result7"
       id="feBlend4905" /><feBlend
       mode="screen"
       in="result6"
       in2="result7"
       id="feBlend4907" /></filter></defs><sodipodi:namedview
   id="namedview2126"
   pagecolor="#ffffff"
   bordercolor="#666666"
   borderopacity="1.0"
   inkscape:showpageshadow="2"
   inkscape:pageopacity="0.0"
   inkscape:pagecheckerboard="0"
   inkscape:deskcolor="#d1d1d1"
   showgrid="false"
   inkscape:zoom="0.18854735"
   inkscape:cx="1060.7415"
   inkscape:cy="1662.7123"
   inkscape:window-width="1899"
   inkscape:window-height="1052"
   inkscape:window-x="0"
   inkscape:window-y="0"
   inkscape:window-maximized="1"
   inkscape:current-layer="g2122" />
    <g
   transform="matrix(4.16667,0,0,4.16667,-1216.575,-898.0546)"
   id="g2122"
   style="display:inline">
        
        
        
        
        
        
        
        
        
        
        
        
        
        
        <g
   id="g13981"
   style="display:inline;filter:url(#filter4909)"><path
     d="m 819.99802,562.58817 c -59.06903,0 -112.73612,7.10132 -152.46848,18.67433 v 98.85658 c 39.73236,11.57301 93.39945,18.67388 152.46848,18.67388 67.60586,0 128.13105,-9.30194 168.78647,-23.96363 V 586.55404 C 948.12907,571.89101 887.60388,562.58817 819.99802,562.58817 Z"
     style="fill:#c0c0c0;fill-rule:nonzero;stroke-width:1;fill-opacity:1"
     id="path2092" /><path
     d="m 991.42577,652.06339 c -1.73079,-4.78492 -2.07722,-10.83887 -0.61073,-16.67608 2.62513,-10.45072 10.06116,-16.2435 16.60926,-12.93853 1.6235,0.81985 3.0397,2.12299 4.2123,3.77749 0.1072,-4.5e-4 0.2145,0 0.3208,0.007 0,0 19.9923,23.8308 1.4867,52.05522 -0.4016,1.60155 -34.34388,41.15756 -42.20087,42.41672 -5.14256,0.82389 6.68219,-40.38572 20.18254,-68.642 z"
     style="fill:#c0c0c0;fill-rule:nonzero;stroke-width:1;fill-opacity:1"
     id="path2094" /><path
     d="m 663.42177,647.38707 c 2.37833,-4.32137 3.21209,-10.22589 1.89234,-16.34537 -2.36307,-10.95644 -10.72938,-18.44771 -18.68644,-16.73128 -1.97356,0.42541 -3.73576,1.37853 -5.23501,2.73642 -0.12654,-0.026 -0.25309,-0.0507 -0.37918,-0.0686 0,0 -25.26049,18.82555 -5.41046,51.12228 0.36123,1.67874 37.62732,48.83999 46.80854,51.94752 6.00908,2.03369 -5.04698,-41.51969 -18.98979,-72.66092 z"
     style="fill:#c0c0c0;fill-rule:nonzero;stroke-width:1;fill-opacity:1"
     id="path2096" /><path
     d="m 627.96591,650.0997 0.003,0.007 c 0.083,0.0651 0.1602,0.12386 -0.003,-0.007 z"
     style="fill:#e33a25;fill-rule:nonzero;stroke-width:1"
     id="path2098" /><path
     d="m 1029.881,616.37104 c -0.3949,-1.37494 -0.788,-2.74898 -1.1945,-4.11136 l 13.7687,-19.94695 c 1.4045,-2.02921 1.6917,-4.666 0.7763,-6.98016 -0.9154,-2.30203 -2.9123,-3.9534 -5.2772,-4.35726 l -23.2833,-3.95116 c -0.9011,-1.84074 -1.847,-3.65365 -2.7957,-5.4522 l 9.7812,-22.39348 c 1.0065,-2.28274 0.7938,-4.9339 -0.5398,-7.00394 -1.3287,-2.08036 -3.5855,-3.29555 -5.9903,-3.20086 l -23.62883,0.85844 c -1.22371,-1.59303 -2.46628,-3.1717 -3.73442,-4.7212 l 5.43021,-24.00312 c 0.54971,-2.438 -0.14449,-4.98909 -1.84118,-6.75982 -1.68816,-1.76445 -4.14142,-2.49455 -6.47353,-1.92195 l -23.01544,5.65771 c -1.49026,-1.31705 -3.00611,-2.6175 -4.53856,-3.89192 l 0.82928,-24.64212 c 0.0889,-2.49455 -1.07384,-4.8648 -3.07118,-6.24871 -1.9951,-1.39289 -4.52914,-1.60335 -6.71136,-0.56811 l -21.47088,10.2075 c -1.72944,-0.99172 -3.46786,-1.97446 -5.22513,-2.92444 l -3.7941,-24.28358 c -0.38457,-2.46 -1.96772,-4.54933 -4.18495,-5.5038 -2.20915,-0.95941 -4.74229,-0.64978 -6.68219,0.81132 l -19.14281,14.36283 c -1.88471,-0.62644 -3.77794,-1.22641 -5.69541,-1.7999 l -8.25054,-23.028 c -0.83914,-2.34646 -2.77366,-4.07052 -5.13269,-4.55516 -2.35095,-0.4806 -4.77011,0.33341 -6.40038,2.15485 l -16.11292,18.02679 c -1.94843,-0.22437 -3.89731,-0.42899 -5.85292,-0.59772 l -12.44043,-20.962 c -1.26096,-2.12344 -3.48671,-3.41582 -5.88567,-3.41582 -2.39358,0 -4.62382,1.29238 -5.87401,3.41582 l -12.44492,20.962 c -1.95561,0.16873 -3.91391,0.37335 -5.85875,0.59772 l -16.11426,-18.02679 c -1.63162,-1.82144 -4.05976,-2.63545 -6.40263,-2.15485 -2.35813,0.49002 -4.29579,2.2087 -5.13045,4.55516 l -8.25771,23.028 c -1.91164,0.57349 -3.80577,1.17884 -5.69497,1.7999 l -19.13608,-14.36283 c -1.94573,-1.46559 -4.47842,-1.77477 -6.69341,-0.81132 -2.20735,0.95447 -3.79679,3.0438 -4.17911,5.5038 l -3.7968,24.28358 c -1.75636,0.94998 -3.49523,1.92689 -5.22917,2.92444 l -21.46863,-10.2075 c -2.17998,-1.03883 -4.72478,-0.82478 -6.71046,0.56811 -1.99465,1.38391 -3.16003,3.75416 -3.06938,6.24871 l 0.82344,24.64212 c -1.52796,1.27442 -3.03977,2.57487 -4.53767,3.89192 l -23.01095,-5.65771 c -2.33838,-0.56766 -4.78806,0.1575 -6.48026,1.92195 -1.70296,1.77073 -2.39268,4.32182 -1.84566,6.75982 l 5.42033,24.00312 c -1.25737,1.55578 -2.50173,3.12817 -3.7214,4.7212 l -23.62842,-0.85844 c -2.38506,-0.0705 -4.66107,1.1205 -5.99338,3.20086 -1.335,2.07004 -1.53693,4.7212 -0.54342,7.00394 l 9.78882,22.39348 c -0.95088,1.79855 -1.89548,3.61146 -2.80418,5.4522 l -23.28199,3.95116 c -2.36531,0.39848 -4.35906,2.04894 -5.27898,4.35726 -0.91408,2.31416 -0.61747,4.95095 0.77856,6.98016 l 13.77184,19.94695 c -0.10635,0.35181 -0.20417,0.70722 -0.30963,1.06082 l -7.56711,8.03784 20.34634,28.74136 c 0,0 195.27022,90.07653 376.40199,1.52393 20.6905,-3.71243 25.5131,-35.25259 25.5131,-35.25259 z"
     style="fill:#ffffff;fill-rule:nonzero;stroke-width:1;fill-opacity:1"
     id="path2100" /><path
     d="m 857.19859,600.15177 c 0,0 21.60998,-23.66162 43.22041,0 0,0 16.98034,31.55183 0,47.3255 0,0 -27.78465,22.08565 -43.22041,0 0,0 -18.52355,-17.35369 0,-47.3255 z"
     style="fill:#030404;fill-rule:nonzero;stroke-width:1"
     id="path2102" /><path
     d="m 882.21765,608.92958 c 0,9.21398 -5.4311,16.68371 -12.12945,16.68371 -6.697,0 -12.1281,-7.46973 -12.1281,-16.68371 0,-9.21354 5.4311,-16.68416 12.1281,-16.68416 6.69835,0 12.12945,7.47062 12.12945,16.68416 z"
     style="fill:#ffffff;fill-rule:nonzero;stroke-width:1"
     id="path2104" /><path
     d="m 760.74725,593.69081 c 0,0 37.06954,-16.41312 47.18684,20.22113 0,0 10.59834,42.69943 -30.4412,45.10962 0,0 -52.33298,-10.07961 -16.74564,-65.33075 z"
     style="fill:#030404;fill-rule:nonzero;stroke-width:1"
     id="path2106" /><path
     d="m 779.36549,609.53448 c 0,9.50118 -5.60028,17.2074 -12.50954,17.2074 -6.90656,0 -12.50818,-7.70622 -12.50818,-17.2074 0,-9.50342 5.60162,-17.20739 12.50818,-17.20739 6.90926,0 12.50954,7.70397 12.50954,17.20739 z"
     style="fill:#ffffff;fill-rule:nonzero;stroke-width:1"
     id="path2108" /><path
     d="m 634.30885,655.10316 c 4.92133,-5.59265 16.87757,-12.36594 15.96169,-20.7686 -1.63925,-15.04491 -14.11557,-26.02649 -27.86632,-24.52769 -3.41043,0.37155 -6.57763,1.47725 -9.38944,3.15733 -0.20732,-0.048 -0.41509,-0.0947 -0.62285,-0.13193 0,0 -46.5034,22.82877 -19.99766,68.50335 0.24994,2.30517 52.88314,69.85449 67.66464,74.9984 9.67439,3.36645 -8.93486,-57.72594 -25.75006,-101.23086 z"
     style="fill:#ffffff;fill-rule:nonzero;stroke-width:1;fill-opacity:1"
     id="path2110" /><path
     d="m 1012.1244,653.06453 c -5.6959,-4.80152 -20.71478,-9.16238 -21.05493,-17.60767 -0.60849,-15.12165 10.10203,-27.83132 23.92323,-28.38731 3.4275,-0.13821 6.7239,0.48599 9.7534,1.73079 0.1983,-0.0781 0.3967,-0.15526 0.5964,-0.22302 0,0 49.3726,15.68392 29.9287,64.78284 0.094,2.31684 -41.9429,76.92126 -55.79862,84.19937 -9.06859,4.76338 2.47072,-58.97838 12.65182,-104.495 z"
     style="fill:#ffffff;fill-rule:nonzero;stroke-width:1;fill-opacity:1"
     id="path2112" /><path
     d="m 670.00165,653.46167 c 0,0 -0.62061,61.61024 59.75695,75.35785 l 12.58896,-25.29235 c 0,0 -43.74994,4.23207 -47.11549,-50.0655 z"
     style="fill:#ffffff;fill-rule:nonzero;stroke-width:1;fill-opacity:1"
     id="path2114" /><path
     d="m 977.48745,653.46167 c 0,0 0.62016,61.61024 -59.75739,75.35785 L 905.1411,703.52717 c 0,0 43.74993,4.23207 47.11548,-50.0655 z"
     style="fill:#ffffff;fill-rule:nonzero;stroke-width:1;fill-opacity:1"
     id="path2116" /><path
     d="m 933.87214,716.30011 c -9.08699,-21.96225 -38.40992,-30.68172 -65.49409,-19.47533 -23.83977,9.86376 -37.98003,31.87492 -34.83301,51.98432 18.82286,-0.29258 39.01348,-1.5127 58.66651,-4.36086 0,0 -11.59411,18.74074 -28.65521,35.09643 11.47249,2.96123 24.85258,2.13959 37.72828,-3.18786 27.08462,-11.20639 41.67451,-38.0949 32.58752,-60.0567 z"
     style="fill:#ffffff;fill-rule:nonzero;stroke-width:1;fill-opacity:1"
     id="path2118" /><path
     d="m 765.85437,743.40088 c 0,0 24.7718,3.27356 58.63689,4.10867 2.96617,-21.3201 -13.18399,-43.88321 -38.95111,-52.61166 -28.46718,-9.64253 -57.88256,1.25289 -65.70185,24.33608 -7.8193,23.0832 8.91916,49.61273 37.38634,59.25571 12.61903,4.2747 25.42248,4.50939 36.45072,1.43911 -16.56345,-16.38127 -27.82099,-36.52791 -27.82099,-36.52791 z"
     style="clip-rule:evenodd;display:inline;fill:#ffffff;fill-rule:nonzero;stroke-width:1;stroke-linejoin:round;stroke-miterlimit:1.41421;fill-opacity:1"
     id="path2120" /></g>
    </g>
</svg>
