<?xml version="1.0" encoding="UTF-8" standalone="no"?>
<svg
   width="100%"
   height="100%"
   viewBox="0 0 4417 3259"
   version="1.1"
   xml:space="preserve"
   style="fill-rule:evenodd;clip-rule:evenodd;stroke-linejoin:round;stroke-miterlimit:1.41421;"
   id="svg2124"
   sodipodi:docname="cuddlyferris_construction.svg"
   inkscape:version="1.2.2 (b0a8486541, 2022-12-01)"
   xmlns:inkscape="http://www.inkscape.org/namespaces/inkscape"
   xmlns:sodipodi="http://sodipodi.sourceforge.net/DTD/sodipodi-0.dtd"
   xmlns="http://www.w3.org/2000/svg"
   xmlns:svg="http://www.w3.org/2000/svg"><defs
   id="defs2128" /><sodipodi:namedview
   id="namedview2126"
   pagecolor="#ffffff"
   bordercolor="#666666"
   borderopacity="1.0"
   inkscape:showpageshadow="2"
   inkscape:pageopacity="0.0"
   inkscape:pagecheckerboard="0"
   inkscape:deskcolor="#d1d1d1"
   showgrid="false"
   inkscape:zoom="0.26664621"
   inkscape:cx="-238.14327"
   inkscape:cy="1524.492"
   inkscape:window-width="3812"
   inkscape:window-height="1052"
   inkscape:window-x="0"
   inkscape:window-y="0"
   inkscape:window-maximized="1"
   inkscape:current-layer="g2122" />
    <g
   transform="matrix(4.16667,0,0,4.16667,-1216.575,-898.0546)"
   id="g2122"
   style="display:inline">
        
        
        
        
        
        
        
        
        
        
        
        
        
        
        <g
   id="g13981"
   style="display:inline"><path
     d="m 819.99802,562.58817 c -59.06903,0 -112.73612,7.10132 -152.46848,18.67433 v 98.85658 c 39.73236,11.57301 93.39945,18.67388 152.46848,18.67388 67.60586,0 128.13105,-9.30194 168.78647,-23.96363 V 586.55404 C 948.12907,571.89101 887.60388,562.58817 819.99802,562.58817 Z"
     style="fill:#8f1e1c;fill-rule:nonzero;stroke-width:1"
     id="path2092" /><path
     d="m 991.42577,652.06339 c -1.73079,-4.78492 -2.07722,-10.83887 -0.61073,-16.67608 2.62513,-10.45072 10.06116,-16.2435 16.60926,-12.93853 1.6235,0.81985 3.0397,2.12299 4.2123,3.77749 0.1072,-4.5e-4 0.2145,0 0.3208,0.007 0,0 19.9923,23.8308 1.4867,52.05522 -0.4016,1.60155 -34.34388,41.15756 -42.20087,42.41672 -5.14256,0.82389 6.68219,-40.38572 20.18254,-68.642 z"
     style="fill:#8f1e1c;fill-rule:nonzero;stroke-width:1"
     id="path2094" /><path
     d="m 663.42177,647.38707 c 2.37833,-4.32137 3.21209,-10.22589 1.89234,-16.34537 -2.36307,-10.95644 -10.72938,-18.44771 -18.68644,-16.73128 -1.97356,0.42541 -3.73576,1.37853 -5.23501,2.73642 -0.12654,-0.026 -0.25309,-0.0507 -0.37918,-0.0686 0,0 -25.26049,18.82555 -5.41046,51.12228 0.36123,1.67874 37.62732,48.83999 46.80854,51.94752 6.00908,2.03369 -5.04698,-41.51969 -18.98979,-72.66092 z"
     style="fill:#8f1e1c;fill-rule:nonzero;stroke-width:1"
     id="path2096" /><path
     d="m 627.96591,650.0997 0.003,0.007 c 0.083,0.0651 0.1602,0.12386 -0.003,-0.007 z"
     style="fill:#e33a25;fill-rule:nonzero;stroke-width:1"
     id="path2098" /><path
     d="m 1029.881,616.37104 c -0.3949,-1.37494 -0.788,-2.74898 -1.1945,-4.11136 l 13.7687,-19.94695 c 1.4045,-2.02921 1.6917,-4.666 0.7763,-6.98016 -0.9154,-2.30203 -2.9123,-3.9534 -5.2772,-4.35726 l -23.2833,-3.95116 c -0.9011,-1.84074 -1.847,-3.65365 -2.7957,-5.4522 l 9.7812,-22.39348 c 1.0065,-2.28274 0.7938,-4.9339 -0.5398,-7.00394 -1.3287,-2.08036 -3.5855,-3.29555 -5.9903,-3.20086 l -23.62883,0.85844 c -1.22371,-1.59303 -2.46628,-3.1717 -3.73442,-4.7212 l 5.43021,-24.00312 c 0.54971,-2.438 -0.14449,-4.98909 -1.84118,-6.75982 -1.68816,-1.76445 -4.14142,-2.49455 -6.47353,-1.92195 l -23.01544,5.65771 c -1.49026,-1.31705 -3.00611,-2.6175 -4.53856,-3.89192 l 0.82928,-24.64212 c 0.0889,-2.49455 -1.07384,-4.8648 -3.07118,-6.24871 -1.9951,-1.39289 -4.52914,-1.60335 -6.71136,-0.56811 l -21.47088,10.2075 c -1.72944,-0.99172 -3.46786,-1.97446 -5.22513,-2.92444 l -3.7941,-24.28358 c -0.38457,-2.46 -1.96772,-4.54933 -4.18495,-5.5038 -2.20915,-0.95941 -4.74229,-0.64978 -6.68219,0.81132 l -19.14281,14.36283 c -1.88471,-0.62644 -3.77794,-1.22641 -5.69541,-1.7999 l -8.25054,-23.028 c -0.83914,-2.34646 -2.77366,-4.07052 -5.13269,-4.55516 -2.35095,-0.4806 -4.77011,0.33341 -6.40038,2.15485 l -16.11292,18.02679 c -1.94843,-0.22437 -3.89731,-0.42899 -5.85292,-0.59772 l -12.44043,-20.962 c -1.26096,-2.12344 -3.48671,-3.41582 -5.88567,-3.41582 -2.39358,0 -4.62382,1.29238 -5.87401,3.41582 l -12.44492,20.962 c -1.95561,0.16873 -3.91391,0.37335 -5.85875,0.59772 l -16.11426,-18.02679 c -1.63162,-1.82144 -4.05976,-2.63545 -6.40263,-2.15485 -2.35813,0.49002 -4.29579,2.2087 -5.13045,4.55516 l -8.25771,23.028 c -1.91164,0.57349 -3.80577,1.17884 -5.69497,1.7999 l -19.13608,-14.36283 c -1.94573,-1.46559 -4.47842,-1.77477 -6.69341,-0.81132 -2.20735,0.95447 -3.79679,3.0438 -4.17911,5.5038 l -3.7968,24.28358 c -1.75636,0.94998 -3.49523,1.92689 -5.22917,2.92444 l -21.46863,-10.2075 c -2.17998,-1.03883 -4.72478,-0.82478 -6.71046,0.56811 -1.99465,1.38391 -3.16003,3.75416 -3.06938,6.24871 l 0.82344,24.64212 c -1.52796,1.27442 -3.03977,2.57487 -4.53767,3.89192 l -23.01095,-5.65771 c -2.33838,-0.56766 -4.78806,0.1575 -6.48026,1.92195 -1.70296,1.77073 -2.39268,4.32182 -1.84566,6.75982 l 5.42033,24.00312 c -1.25737,1.55578 -2.50173,3.12817 -3.7214,4.7212 l -23.62842,-0.85844 c -2.38506,-0.0705 -4.66107,1.1205 -5.99338,3.20086 -1.335,2.07004 -1.53693,4.7212 -0.54342,7.00394 l 9.78882,22.39348 c -0.95088,1.79855 -1.89548,3.61146 -2.80418,5.4522 l -23.28199,3.95116 c -2.36531,0.39848 -4.35906,2.04894 -5.27898,4.35726 -0.91408,2.31416 -0.61747,4.95095 0.77856,6.98016 l 13.77184,19.94695 c -0.10635,0.35181 -0.20417,0.70722 -0.30963,1.06082 l -7.56711,8.03784 20.34634,28.74136 c 0,0 195.27022,90.07653 376.40199,1.52393 20.6905,-3.71243 25.5131,-35.25259 25.5131,-35.25259 z"
     style="fill:#e43a25;fill-rule:nonzero;stroke-width:1"
     id="path2100" /><path
     d="m 857.19859,600.15177 c 0,0 21.60998,-23.66162 43.22041,0 0,0 16.98034,31.55183 0,47.3255 0,0 -27.78465,22.08565 -43.22041,0 0,0 -18.52355,-17.35369 0,-47.3255 z"
     style="fill:#030404;fill-rule:nonzero;stroke-width:1"
     id="path2102" /><path
     d="m 882.21765,608.92958 c 0,9.21398 -5.4311,16.68371 -12.12945,16.68371 -6.697,0 -12.1281,-7.46973 -12.1281,-16.68371 0,-9.21354 5.4311,-16.68416 12.1281,-16.68416 6.69835,0 12.12945,7.47062 12.12945,16.68416 z"
     style="fill:#ffffff;fill-rule:nonzero;stroke-width:1"
     id="path2104" /><path
     d="m 760.74725,593.69081 c 0,0 37.06954,-16.41312 47.18684,20.22113 0,0 10.59834,42.69943 -30.4412,45.10962 0,0 -52.33298,-10.07961 -16.74564,-65.33075 z"
     style="fill:#030404;fill-rule:nonzero;stroke-width:1"
     id="path2106" /><path
     d="m 779.36549,609.53448 c 0,9.50118 -5.60028,17.2074 -12.50954,17.2074 -6.90656,0 -12.50818,-7.70622 -12.50818,-17.2074 0,-9.50342 5.60162,-17.20739 12.50818,-17.20739 6.90926,0 12.50954,7.70397 12.50954,17.20739 z"
     style="fill:#ffffff;fill-rule:nonzero;stroke-width:1"
     id="path2108" /><path
     d="m 634.30885,655.10316 c 4.92133,-5.59265 16.87757,-12.36594 15.96169,-20.7686 -1.63925,-15.04491 -14.11557,-26.02649 -27.86632,-24.52769 -3.41043,0.37155 -6.57763,1.47725 -9.38944,3.15733 -0.20732,-0.048 -0.41509,-0.0947 -0.62285,-0.13193 0,0 -46.5034,22.82877 -19.99766,68.50335 0.24994,2.30517 52.88314,69.85449 67.66464,74.9984 9.67439,3.36645 -8.93486,-57.72594 -25.75006,-101.23086 z"
     style="fill:#e43a25;fill-rule:nonzero;stroke-width:1"
     id="path2110" /><path
     d="m 1012.1244,653.06453 c -5.6959,-4.80152 -20.71478,-9.16238 -21.05493,-17.60767 -0.60849,-15.12165 10.10203,-27.83132 23.92323,-28.38731 3.4275,-0.13821 6.7239,0.48599 9.7534,1.73079 0.1983,-0.0781 0.3967,-0.15526 0.5964,-0.22302 0,0 49.3726,15.68392 29.9287,64.78284 0.094,2.31684 -41.9429,76.92126 -55.79862,84.19937 -9.06859,4.76338 2.47072,-58.97838 12.65182,-104.495 z"
     style="fill:#e43a25;fill-rule:nonzero;stroke-width:1"
     id="path2112" /><path
     d="m 670.00165,653.46167 c 0,0 -0.62061,61.61024 59.75695,75.35785 l 12.58896,-25.29235 c 0,0 -43.74994,4.23207 -47.11549,-50.0655 z"
     style="fill:#e43a25;fill-rule:nonzero;stroke-width:1"
     id="path2114" /><path
     d="m 977.48745,653.46167 c 0,0 0.62016,61.61024 -59.75739,75.35785 L 905.1411,703.52717 c 0,0 43.74993,4.23207 47.11548,-50.0655 z"
     style="fill:#e43a25;fill-rule:nonzero;stroke-width:1"
     id="path2116" /><path
     d="m 933.87214,716.30011 c -9.08699,-21.96225 -38.40992,-30.68172 -65.49409,-19.47533 -23.83977,9.86376 -37.98003,31.87492 -34.83301,51.98432 18.82286,-0.29258 39.01348,-1.5127 58.66651,-4.36086 0,0 -11.59411,18.74074 -28.65521,35.09643 11.47249,2.96123 24.85258,2.13959 37.72828,-3.18786 27.08462,-11.20639 41.67451,-38.0949 32.58752,-60.0567 z"
     style="fill:#e43a25;fill-rule:nonzero;stroke-width:1"
     id="path2118" /><path
     d="m 765.85437,743.40088 c 0,0 24.7718,3.27356 58.63689,4.10867 2.96617,-21.3201 -13.18399,-43.88321 -38.95111,-52.61166 -28.46718,-9.64253 -57.88256,1.25289 -65.70185,24.33608 -7.8193,23.0832 8.91916,49.61273 37.38634,59.25571 12.61903,4.2747 25.42248,4.50939 36.45072,1.43911 -16.56345,-16.38127 -27.82099,-36.52791 -27.82099,-36.52791 z"
     style="clip-rule:evenodd;display:inline;fill:#e43a25;fill-rule:nonzero;stroke-width:1;stroke-linejoin:round;stroke-miterlimit:1.41421"
     id="path2120" /><g
     id="g4971"
     inkscape:label="wrench"
     style="clip-rule:evenodd;display:inline;fill:#6e6e6e;fill-opacity:1;fill-rule:evenodd;stroke-width:2.6575;stroke-linejoin:round;stroke-miterlimit:1.41421"
     transform="matrix(0.06051656,-0.06774572,0.06821035,0.05841323,702.11692,721.21555)"><rect
       style="fill:#6e6e6e;fill-opacity:1;stroke-width:50.2205;stroke-linecap:round;stroke-linejoin:round;paint-order:markers stroke fill"
       id="rect3243"
       width="267.35449"
       height="1509.9449"
       x="840.43073"
       y="800.02716" /><path
       id="path3297"
       style="fill:#6e6e6e;fill-opacity:1;stroke-width:50.2205;stroke-linecap:round;stroke-linejoin:round;paint-order:markers stroke fill"
       d="m 1127.3716,414.55255 v 347.3125 c 0,0 -42.7133,38.16211 -153.26366,38.16211 -110.55037,0 -153.26367,-38.16211 -153.26367,-38.16211 V 415.28301 A 336.69089,336.69089 0 0 0 637.41849,714.23028 336.69089,336.69089 0 0 0 974.10794,1050.9217 336.69089,336.69089 0 0 0 1310.7993,714.23028 336.69089,336.69089 0 0 0 1127.3716,414.55255 Z" /><path
       id="path3297-6"
       style="clip-rule:evenodd;fill:#6e6e6e;fill-opacity:1;fill-rule:evenodd;stroke-width:50.2205;stroke-linecap:round;stroke-linejoin:round;stroke-miterlimit:1.41421;paint-order:markers stroke fill"
       d="m 1127.3716,414.55255 v 347.3125 c 0,0 -42.7133,38.16211 -153.26366,38.16211 -110.55037,0 -153.26367,-38.16211 -153.26367,-38.16211 V 415.28301 A 336.69089,336.69089 0 0 0 637.41849,714.23028 336.69089,336.69089 0 0 0 974.10794,1050.9217 336.69089,336.69089 0 0 0 1310.7993,714.23028 336.69089,336.69089 0 0 0 1127.3716,414.55255 Z"
       transform="matrix(1,0,0,-1,-9.2380859e-4,3195.9196)" /></g><path
     id="path5699"
     style="clip-rule:evenodd;display:inline;fill:#e43a25;fill-rule:nonzero;stroke-width:1;stroke-linejoin:round;stroke-miterlimit:1.41421"
     d="m 936.02756,723.71003 -43.96684,20.97607 c -0.78623,1.25725 -12.04856,19.08331 -28.50419,34.85857 11.47248,2.96122 24.85256,2.13948 37.72825,-3.18797 24.10089,-9.97185 38.30754,-32.36092 34.74278,-52.64667 z" /></g>
    <g
   id="g14825"
   transform="matrix(0.81249505,0,0,0.81249505,154.14605,107.34833)"
   style="stroke-width:1.23078"><path
     id="path6351"
     style="display:inline;fill:#ebc000;fill-opacity:1;stroke-width:5.5821;stroke-linecap:round;stroke-linejoin:round;paint-order:markers stroke fill"
     d="M 822.09056,344.00603 C 696.59194,344.006 640.02892,407.12936 640.02894,504.2092 h 364.12316 c 0,-97.07981 -56.56293,-160.20314 -182.06154,-160.20317 z"
     sodipodi:nodetypes="zccz" /><path
     id="path13987"
     style="clip-rule:evenodd;display:inline;fill:#de9b00;fill-opacity:1;fill-rule:evenodd;stroke-width:5.58211;stroke-linecap:round;stroke-linejoin:round;stroke-miterlimit:1.41421;paint-order:markers stroke fill"
     d="m 822.09056,344.00602 c -17.80074,0 -34.21083,1.66042 -49.27309,4.86433 14.10354,39.84257 22.03872,94.10291 22.04061,150.71248 h 54.46496 c 0.0191,-56.62983 7.9765,-110.8882 22.10107,-150.69902 -15.07881,-3.21237 -31.50897,-4.87778 -49.33355,-4.87779 z"
     sodipodi:nodetypes="sccccs" /><path
     id="path6351-2"
     style="clip-rule:evenodd;display:inline;fill:#ebc000;fill-opacity:1;fill-rule:evenodd;stroke-width:5.5821;stroke-linecap:round;stroke-linejoin:round;stroke-miterlimit:1.41421;paint-order:markers stroke fill"
     d="m 822.09047,344.00615 c -17.80074,0 -34.21083,1.27317 -49.27309,3.72984 14.10354,30.55021 22.03872,72.15557 22.04061,115.56226 -10e-4,13.80392 -0.80599,27.55138 -2.39484,40.91106 h 59.30245 c -1.60498,-13.35513 -2.42579,-27.10266 -2.44265,-40.91106 0.0191,-43.42222 7.9765,-85.02608 22.10107,-115.55194 -15.07881,-2.46316 -31.50897,-3.74015 -49.33355,-3.74016 z"
     transform="translate(0,-9.740817)"
     sodipodi:nodetypes="sccccccs" /><ellipse
     style="display:inline;fill:#de9b00;fill-opacity:1;stroke-width:5.5821;stroke-linecap:round;stroke-linejoin:round;paint-order:markers stroke fill"
     id="path6356"
     cx="822.09052"
     cy="504.2092"
     rx="196.15384"
     ry="15.079604" /><g
     id="rect8594"><path
       style="color:#000000;clip-rule:nonzero;fill:#de9b00;fill-rule:nonzero;stroke-linecap:round;-inkscape-stroke:none;paint-order:markers stroke fill"
       d="m 763.61914,439.78711 c -12.14557,0 -22.1543,10.00677 -22.1543,22.15234 v 16.44922 c 0,12.14558 10.00873,22.1543 22.1543,22.1543 H 880.5625 c 12.14557,0 22.15234,-10.00872 22.15234,-22.1543 v -16.44922 c 0,-12.14557 -10.00677,-22.15234 -22.15234,-22.15234 z m 0,14.76758 H 880.5625 c 4.2188,0 7.38477,3.16596 7.38477,7.38476 v 16.44922 c 0,4.21881 -3.16597,7.38477 -7.38477,7.38477 H 763.61914 c -4.2188,0 -7.38477,-3.16596 -7.38477,-7.38477 v -16.44922 c 0,-4.2188 3.16597,-7.38476 7.38477,-7.38476 z"
       id="path14982" /><path
       style="color:#000000;clip-rule:nonzero;fill:#ebc000;fill-rule:nonzero;stroke-width:14.7694;stroke-linecap:round;-inkscape-stroke:none;paint-order:markers stroke fill"
       d="m 763.61929,447.17084 h 116.94247 c 8.1822,0 14.76931,6.58711 14.76931,14.76931 v 16.44926 c 0,8.1822 -6.58711,14.76931 -14.76931,14.76931 H 763.61929 c -8.1822,0 -14.76931,-6.58711 -14.76931,-14.76931 v -16.44926 c 0,-8.1822 6.58711,-14.76931 14.76931,-14.76931 z"
       id="path14984" /></g><text
     xml:space="preserve"
     style="font-style:normal;font-weight:normal;font-size:38.4px;line-height:1.25;font-family:sans-serif;display:inline;fill:#de9b00;fill-opacity:1;stroke:none;stroke-width:0.295386"
     x="759.16193"
     y="483.83548"
     id="text11606"><tspan
       sodipodi:role="line"
       id="tspan11604"
       style="font-size:38.4px;fill:#de9b00;fill-opacity:1;stroke-width:0.295386"
       x="759.16193"
       y="483.83548">RUST©</tspan></text></g></g>
</svg>
