<?xml version="1.0" encoding="UTF-8" standalone="no"?>
<svg
   width="100%"
   height="100%"
   viewBox="0 0 4417 3259"
   version="1.1"
   xml:space="preserve"
   style="fill-rule:evenodd;clip-rule:evenodd;stroke-linejoin:round;stroke-miterlimit:1.41421;"
   id="svg2124"
   sodipodi:docname="cuddlyferris_dead.svg"
   inkscape:version="1.2.2 (b0a8486541, 2022-12-01)"
   xmlns:inkscape="http://www.inkscape.org/namespaces/inkscape"
   xmlns:sodipodi="http://sodipodi.sourceforge.net/DTD/sodipodi-0.dtd"
   xmlns="http://www.w3.org/2000/svg"
   xmlns:svg="http://www.w3.org/2000/svg"><defs
   id="defs2128" /><sodipodi:namedview
   id="namedview2126"
   pagecolor="#ffffff"
   bordercolor="#666666"
   borderopacity="1.0"
   inkscape:showpageshadow="2"
   inkscape:pageopacity="0.0"
   inkscape:pagecheckerboard="0"
   inkscape:deskcolor="#d1d1d1"
   showgrid="false"
   inkscape:zoom="0.18854734"
   inkscape:cx="535.67449"
   inkscape:cy="1848.3422"
   inkscape:window-width="1261"
   inkscape:window-height="1052"
   inkscape:window-x="0"
   inkscape:window-y="0"
   inkscape:window-maximized="1"
   inkscape:current-layer="g13981" />
    <g
   transform="matrix(4.16667,0,0,4.16667,-1216.575,-898.0546)"
   id="g2122"
   style="display:inline">
        
        
        
        
        
        
        
        
        
        
        
        
        
        
        <g
   id="g13981"
   style="display:inline"><ellipse
     style="clip-rule:evenodd;display:inline;fill:#fdb582;fill-opacity:1;fill-rule:evenodd;stroke:none;stroke-width:24;stroke-linecap:round;stroke-linejoin:round;stroke-miterlimit:1.41421;stroke-dasharray:none;paint-order:markers stroke fill"
     id="path26961"
     cx="815.26733"
     cy="589.00159"
     rx="173.51718"
     ry="107.45378"
     inkscape:label="flesh" /><path
     d="m 819.99802,562.58817 c -59.06903,0 -112.73612,7.10132 -152.46848,18.67433 v 98.85658 c 39.73236,11.57301 93.39945,18.67388 152.46848,18.67388 67.60586,0 128.13105,-9.30194 168.78647,-23.96363 V 586.55404 C 948.12907,571.89101 887.60388,562.58817 819.99802,562.58817 Z"
     style="fill:#8f1e1c;fill-rule:nonzero;stroke-width:1"
     id="path2092" /><path
     d="m 991.42577,652.06339 c -1.73079,-4.78492 -2.07722,-10.83887 -0.61073,-16.67608 2.62513,-10.45072 10.06116,-16.2435 16.60926,-12.93853 1.6235,0.81985 3.0397,2.12299 4.2123,3.77749 0.1072,-4.5e-4 0.2145,0 0.3208,0.007 0,0 19.9923,23.8308 1.4867,52.05522 -0.4016,1.60155 -34.34388,41.15756 -42.20087,42.41672 -5.14256,0.82389 6.68219,-40.38572 20.18254,-68.642 z"
     style="fill:#8f1e1c;fill-rule:nonzero;stroke-width:1"
     id="path2094" /><path
     d="m 663.42177,647.38707 c 2.37833,-4.32137 3.21209,-10.22589 1.89234,-16.34537 -2.36307,-10.95644 -10.72938,-18.44771 -18.68644,-16.73128 -1.97356,0.42541 -3.73576,1.37853 -5.23501,2.73642 -0.12654,-0.026 -0.25309,-0.0507 -0.37918,-0.0686 0,0 -25.26049,18.82555 -5.41046,51.12228 0.36123,1.67874 37.62732,48.83999 46.80854,51.94752 6.00908,2.03369 -5.04698,-41.51969 -18.98979,-72.66092 z"
     style="fill:#8f1e1c;fill-rule:nonzero;stroke-width:1"
     id="path2096" /><path
     d="m 627.96591,650.0997 0.003,0.007 c 0.083,0.0651 0.1602,0.12386 -0.003,-0.007 z"
     style="fill:#e33a25;fill-rule:nonzero;stroke-width:1"
     id="path2098" /><path
     id="path2100"
     style="fill:#e43a25;fill-rule:nonzero;stroke-width:1"
     d="M 822.10031 431.22573 C 819.70673 431.22573 817.4766 432.51807 816.22641 434.64151 L 803.78158 455.60352 C 801.82597 455.77225 799.86751 455.97681 797.92267 456.20118 L 781.80847 438.17447 C 780.17685 436.35303 777.74867 435.53903 775.40582 436.01963 C 773.04769 436.50965 771.11001 438.22848 770.27535 440.57494 L 762.01786 463.60273 C 760.10622 464.17622 758.21175 464.78167 756.32255 465.40273 L 737.18679 451.03977 C 735.24106 449.5742 732.70803 449.26492 730.49304 450.22837 C 728.28569 451.18284 726.69646 453.27243 726.31414 455.73243 L 722.51727 480.016 C 720.76091 480.96598 719.02183 481.94298 717.28789 482.94053 L 710.02087 498.86349 L 729.40414 501.3488 L 726.59726 522.86956 L 754.81318 528.31784 L 763.65005 556.84875 L 744.02865 541.78408 L 719.39492 546.22173 L 709.22446 530.5308 L 684.08589 535.68705 L 670.81981 505.25489 L 659.31435 502.42598 C 656.97597 501.85832 654.52655 502.58341 652.83435 504.34786 C 651.13139 506.11859 650.4414 508.6697 650.98842 511.1077 L 656.40904 535.11096 C 655.15167 536.66674 653.9073 538.23917 652.68763 539.8322 L 629.0589 538.97345 C 626.67386 538.90295 624.39778 540.09419 623.06547 542.17455 C 621.73047 544.24457 621.52868 546.89586 622.52219 549.1786 L 632.31109 571.57218 C 631.36021 573.37073 630.41573 575.18348 629.50703 577.0242 L 606.2247 580.9753 C 603.85939 581.37378 601.86603 583.02447 600.94611 585.33279 C 600.03203 587.64695 600.32821 590.28373 601.72424 592.31294 L 615.4961 612.25965 C 615.38975 612.61146 615.29219 612.96683 615.18673 613.32043 L 607.6197 621.35854 L 627.96578 650.09993 C 627.96578 650.09993 823.23655 740.17625 1004.368 651.62383 C 1025.0585 647.91142 1029.8811 616.37105 1029.8811 616.37105 C 1029.4862 614.99611 1029.0932 613.62201 1028.6867 612.25965 L 1042.4553 592.31294 C 1043.8598 590.28373 1044.1469 587.64695 1043.2315 585.33279 C 1042.3161 583.03076 1040.3193 581.37916 1037.9544 580.9753 L 1014.6711 577.0242 C 1013.77 575.18348 1012.8242 573.37073 1011.8755 571.57218 L 1021.6564 549.1786 C 1022.6629 546.89586 1022.4505 544.24457 1021.1169 542.17455 C 1019.7882 540.09419 1017.5309 538.87876 1015.1263 538.97345 L 991.49752 539.8322 C 990.27381 538.23917 989.03113 536.66046 987.76299 535.11096 L 988.44643 532.09127 L 982.93393 512.98597 L 974.74956 504.91598 L 961.86317 508.08379 C 960.37291 506.76674 958.85718 505.46618 957.32473 504.19176 L 958.15395 479.5496 C 958.24285 477.05505 957.08004 474.68507 955.0827 473.30116 C 953.08762 471.90827 950.55382 471.6978 948.37162 472.73304 L 926.90054 482.94053 C 925.1711 481.94881 923.43266 480.96598 921.67539 480.016 L 917.88133 455.73243 C 917.49676 453.27243 915.91356 451.18284 913.69633 450.22837 C 911.48718 449.26896 908.95419 449.57869 907.01431 451.03977 L 887.87151 465.40273 C 885.9868 464.77629 884.0932 464.17622 882.17573 463.60273 L 873.92527 440.57494 C 873.08613 438.22848 871.15149 436.50427 868.79246 436.01963 C 866.44151 435.53903 864.02242 436.35303 862.39215 438.17447 L 846.27935 456.20118 C 844.33094 455.97681 842.38214 455.77225 840.42655 455.60352 L 827.98593 434.64151 C 826.72497 432.51807 824.49927 431.22573 822.10031 431.22573 z " /><path
     d="m 634.30885,655.10316 c 4.92133,-5.59265 16.87757,-12.36594 15.96169,-20.7686 -1.63925,-15.04491 -14.11557,-26.02649 -27.86632,-24.52769 -3.41043,0.37155 -6.57763,1.47725 -9.38944,3.15733 -0.20732,-0.048 -0.41509,-0.0947 -0.62285,-0.13193 0,0 -46.5034,22.82877 -19.99766,68.50335 0.24994,2.30517 52.88314,69.85449 67.66464,74.9984 9.67439,3.36645 -8.93486,-57.72594 -25.75006,-101.23086 z"
     style="fill:#e43a25;fill-rule:nonzero;stroke-width:1"
     id="path2110" /><path
     d="m 1012.1244,653.06453 c -5.6959,-4.80152 -20.71478,-9.16238 -21.05493,-17.60767 -0.60849,-15.12165 10.10203,-27.83132 23.92323,-28.38731 3.4275,-0.13821 6.7239,0.48599 9.7534,1.73079 0.1983,-0.0781 0.3967,-0.15526 0.5964,-0.22302 0,0 49.3726,15.68392 29.9287,64.78284 0.094,2.31684 -41.9429,76.92126 -55.79862,84.19937 -9.06859,4.76338 2.47072,-58.97838 12.65182,-104.495 z"
     style="fill:#e43a25;fill-rule:nonzero;stroke-width:1"
     id="path2112" /><path
     d="m 670.00165,653.46167 c 0,0 -0.62061,61.61024 59.75695,75.35785 l 12.58896,-25.29235 c 0,0 -43.74994,4.23207 -47.11549,-50.0655 z"
     style="fill:#e43a25;fill-rule:nonzero;stroke-width:1"
     id="path2114" /><path
     d="m 977.48745,653.46167 c 0,0 0.62016,61.61024 -59.75739,75.35785 L 905.1411,703.52717 c 0,0 43.74993,4.23207 47.11548,-50.0655 z"
     style="fill:#e43a25;fill-rule:nonzero;stroke-width:1"
     id="path2116" /><path
     d="m 933.87214,716.30011 c -9.08699,-21.96225 -38.40992,-30.68172 -65.49409,-19.47533 -23.83977,9.86376 -37.98003,31.87492 -34.83301,51.98432 18.82286,-0.29258 39.01348,-1.5127 58.66651,-4.36086 0,0 -11.59411,18.74074 -28.65521,35.09643 11.47249,2.96123 24.85258,2.13959 37.72828,-3.18786 27.08462,-11.20639 41.67451,-38.0949 32.58752,-60.0567 z"
     style="fill:#e43a25;fill-rule:nonzero;stroke-width:1"
     id="path2118" /><path
     d="m 765.85437,743.40088 c 0,0 24.7718,3.27356 58.63689,4.10867 2.96617,-21.3201 -13.18399,-43.88321 -38.95111,-52.61166 -28.46718,-9.64253 -57.88256,1.25289 -65.70185,24.33608 -7.8193,23.0832 8.91916,49.61273 37.38634,59.25571 12.61903,4.2747 25.42248,4.50939 36.45072,1.43911 -16.56345,-16.38127 -27.82099,-36.52791 -27.82099,-36.52791 z"
     style="clip-rule:evenodd;display:inline;fill:#e43a25;fill-rule:nonzero;stroke-width:1;stroke-linejoin:round;stroke-miterlimit:1.41421"
     id="path2120" /></g>
    <path
   id="rect23906"
   style="fill:#000000;fill-opacity:1;stroke:none;stroke-width:24;stroke-linecap:round;stroke-linejoin:round;stroke-dasharray:none;paint-order:markers stroke fill"
   d="m 808.42594,595.46302 c -2.40348,-2.40348 -6.57228,-2.10477 -9.34692,0.66987 l -19.71353,19.71353 -19.71352,-19.71353 c -2.77465,-2.77464 -6.94345,-3.07335 -9.34693,-0.66987 -2.40348,2.40349 -2.10458,6.57209 0.67008,9.34673 l 19.71352,19.71353 -19.71352,19.71352 c -2.77466,2.77464 -3.07336,6.94343 -0.66987,9.34692 2.40348,2.40348 6.57207,2.10459 9.34672,-0.67007 l 19.71352,-19.71352 19.71353,19.71352 c 2.77464,2.77466 6.94324,3.07355 9.34672,0.67007 2.40348,-2.40348 2.10478,-6.57228 -0.66987,-9.34692 l -19.71353,-19.71353 19.71353,-19.71352 c 2.77465,-2.77464 3.07356,-6.94324 0.67007,-9.34673 z" /><path
   id="rect23906-1"
   style="fill-rule:evenodd;clip-rule:evenodd;stroke-linejoin:round;stroke-miterlimit:1.41421;display:inline;stroke-width:30.0472;fill:#000000;fill-opacity:1;stroke:none;stroke-linecap:round;stroke-dasharray:none;paint-order:markers stroke fill"
   d="m 815.97229,587.91671 c -3.02761,-3.02761 -8.27895,-2.65133 -11.77411,0.84382 l -24.83269,24.83269 -24.83268,-24.83269 c -3.49517,-3.49515 -8.74651,-3.87143 -11.77412,-0.84382 -3.02761,3.02762 -2.65109,8.27871 0.84408,11.77387 l 24.83268,24.83269 -24.83268,24.83268 c -3.49517,3.49516 -3.87144,8.74649 -0.84382,11.77411 3.02761,3.02761 8.27869,2.6511 11.77386,-0.84407 l 24.83268,-24.83268 24.83269,24.83268 c 3.49516,3.49517 8.74625,3.87168 11.77386,0.84407 3.02761,-3.02761 2.65135,-8.27895 -0.84382,-11.77411 l -24.83269,-24.83269 24.83269,-24.83268 c 3.49516,-3.49516 3.87169,-8.74625 0.84407,-11.77387 z"
   transform="matrix(0.79874216,0,0,0.79874216,255.95378,125.69022)" /></g>
</svg>
