<?xml version="1.0" encoding="UTF-8"?>
<svg clip-rule="evenodd" fill-rule="evenodd" stroke-linejoin="round" stroke-miterlimit="1.4142" version="1.1" viewBox="0 0 4417 3259" xml:space="preserve" xmlns="http://www.w3.org/2000/svg">
    <g transform="matrix(4.1667 0 0 4.1667 -1216.6 -898.05)">
        
        
        
        
        
        
        
        
        
        
        
        
        
        
        <g><ellipse cx="815.27" cy="589" rx="173.52" ry="107.45" clip-rule="evenodd" fill="#fdb582" fill-rule="evenodd" style="paint-order:markers stroke fill"/><g fill="#8f1e1c" fill-rule="nonzero"><path d="m820 562.59c-59.069 0-112.74 7.1013-152.47 18.674v98.857c39.732 11.573 93.399 18.674 152.47 18.674 67.606 0 128.13-9.3019 168.79-23.964v-88.275c-40.655-14.663-101.18-23.966-168.79-23.966z"/><path d="m991.43 652.06c-1.7308-4.7849-2.0772-10.839-0.61073-16.676 2.6251-10.451 10.061-16.244 16.609-12.939 1.6235 0.81985 3.0397 2.123 4.2123 3.7775 0.1072-4.5e-4 0.2145 0 0.3208 7e-3 0 0 19.992 23.831 1.4867 52.055-0.4016 1.6016-34.344 41.158-42.201 42.417-5.1426 0.82389 6.6822-40.386 20.183-68.642z"/><path d="m663.42 647.39c2.3783-4.3214 3.2121-10.226 1.8923-16.345-2.3631-10.956-10.729-18.448-18.686-16.731-1.9736 0.42541-3.7358 1.3785-5.235 2.7364-0.12654-0.026-0.25309-0.0507-0.37918-0.0686 0 0-25.26 18.826-5.4105 51.122 0.36123 1.6787 37.627 48.84 46.809 51.948 6.0091 2.0337-5.047-41.52-18.99-72.661z"/></g><path d="m627.97 650.1 3e-3 7e-3c0.083 0.0651 0.1602 0.12386-3e-3 -7e-3z" fill="#e33a25" fill-rule="nonzero"/><g fill="#e43a25" fill-rule="nonzero"><path d="m822.1 431.23c-2.3936 0-4.6237 1.2923-5.8739 3.4158l-12.445 20.962c-1.9556 0.16873-3.9141 0.37329-5.8589 0.59766l-16.114-18.027c-1.6316-1.8214-4.0598-2.6354-6.4026-2.1548-2.3581 0.49002-4.2958 2.2088-5.1305 4.5553l-8.2575 23.028c-1.9116 0.57349-3.8061 1.1789-5.6953 1.8l-19.136-14.363c-1.9457-1.4656-4.4788-1.7748-6.6938-0.8114-2.2074 0.95447-3.7966 3.0441-4.1789 5.5041l-3.7969 24.284c-1.7564 0.94998-3.4954 1.927-5.2294 2.9245l-7.267 15.923 19.383 2.4853-2.8069 21.521 28.216 5.4483 8.8369 28.531-19.621-15.065-24.634 4.4376-10.17-15.691-25.139 5.1562-13.266-30.432-11.505-2.8289c-2.3384-0.56766-4.7878 0.15743-6.48 1.9219-1.703 1.7707-2.393 4.3218-1.8459 6.7598l5.4206 24.003c-1.2574 1.5558-2.5017 3.1282-3.7214 4.7212l-23.629-0.85875c-2.385-0.0705-4.6611 1.1207-5.9934 3.2011-1.335 2.07-1.5368 4.7213-0.54328 7.004l9.7889 22.394c-0.95088 1.7986-1.8954 3.6113-2.8041 5.452l-23.282 3.9511c-2.3653 0.39848-4.3587 2.0492-5.2786 4.3575-0.91408 2.3142-0.6179 4.9509 0.77813 6.9802l13.772 19.947c-0.10635 0.35181-0.20391 0.70718-0.30937 1.0608l-7.567 8.0381 20.346 28.741s195.27 90.076 376.4 1.5239c20.69-3.7124 25.513-35.253 25.513-35.253-0.3949-1.3749-0.7879-2.749-1.1944-4.1114l13.769-19.947c1.4045-2.0292 1.6916-4.666 0.7762-6.9802-0.9154-2.302-2.9122-3.9536-5.2771-4.3575l-23.283-3.9511c-0.9011-1.8407-1.8469-3.6535-2.7956-5.452l9.7809-22.394c1.0065-2.2827 0.7941-4.934-0.5395-7.004-1.3287-2.0804-3.586-3.2958-5.9906-3.2011l-23.629 0.85875c-1.2237-1.593-2.4664-3.1717-3.7345-4.7212l0.68344-3.0197-5.5125-19.105-8.1844-8.07-12.886 3.1678c-1.4903-1.317-3.006-2.6176-4.5384-3.892l0.82922-24.642c0.0889-2.4946-1.0739-4.8645-3.0712-6.2484-1.9951-1.3929-4.5289-1.6034-6.7111-0.56812l-21.471 10.207c-1.7294-0.99172-3.4679-1.9746-5.2252-2.9245l-3.7941-24.284c-0.38457-2.46-1.9678-4.5496-4.185-5.5041-2.2092-0.95941-4.7421-0.64968-6.682 0.8114l-19.143 14.363c-1.8847-0.62644-3.7783-1.2265-5.6958-1.8l-8.2505-23.028c-0.83914-2.3465-2.7738-4.0707-5.1328-4.5553-2.351-0.4806-4.77 0.3334-6.4003 2.1548l-16.113 18.027c-1.9484-0.22437-3.8972-0.42893-5.8528-0.59766l-12.441-20.962c-1.261-2.1234-3.4867-3.4158-5.8856-3.4158z"/><path d="m634.31 655.1c4.9213-5.5926 16.878-12.366 15.962-20.769-1.6392-15.045-14.116-26.026-27.866-24.528-3.4104 0.37155-6.5776 1.4772-9.3894 3.1573-0.20732-0.048-0.41509-0.0947-0.62285-0.13193 0 0-46.503 22.829-19.998 68.503 0.24994 2.3052 52.883 69.854 67.665 74.998 9.6744 3.3664-8.9349-57.726-25.75-101.23z"/><path d="m1012.1 653.06c-5.6959-4.8015-20.715-9.1624-21.055-17.608-0.60849-15.122 10.102-27.831 23.923-28.387 3.4275-0.13821 6.7239 0.48599 9.7534 1.7308 0.1983-0.0781 0.3967-0.15526 0.5964-0.22302 0 0 49.373 15.684 29.929 64.783 0.094 2.3168-41.943 76.921-55.799 84.199-9.0686 4.7634 2.4707-58.978 12.652-104.5z"/><path d="m670 653.46s-0.62061 61.61 59.757 75.358l12.589-25.292s-43.75 4.2321-47.115-50.066z"/><path d="m977.49 653.46s0.62016 61.61-59.757 75.358l-12.589-25.292s43.75 4.2321 47.115-50.066z"/><path d="m933.87 716.3c-9.087-21.962-38.41-30.682-65.494-19.475-23.84 9.8638-37.98 31.875-34.833 51.984 18.823-0.29258 39.013-1.5127 58.667-4.3609 0 0-11.594 18.741-28.655 35.096 11.472 2.9612 24.853 2.1396 37.728-3.1879 27.085-11.206 41.675-38.095 32.588-60.057z"/><path d="m765.85 743.4s24.772 3.2736 58.637 4.1087c2.9662-21.32-13.184-43.883-38.951-52.612-28.467-9.6425-57.883 1.2529-65.702 24.336-7.8193 23.083 8.9192 49.613 37.386 59.256 12.619 4.2747 25.422 4.5094 36.451 1.4391-16.563-16.381-27.821-36.528-27.821-36.528z" clip-rule="evenodd" stroke-linejoin="round" stroke-miterlimit="1.4142"/></g></g>
    <path d="m808.43 595.46c-2.4035-2.4035-6.5723-2.1048-9.3469 0.66987l-19.714 19.714-19.714-19.714c-2.7746-2.7746-6.9434-3.0734-9.3469-0.66987-2.4035 2.4035-2.1046 6.5721 0.67008 9.3467l19.714 19.714-19.714 19.714c-2.7747 2.7746-3.0734 6.9434-0.66987 9.3469 2.4035 2.4035 6.5721 2.1046 9.3467-0.67007l19.714-19.714 19.714 19.714c2.7746 2.7747 6.9432 3.0736 9.3467 0.67007s2.1048-6.5723-0.66987-9.3469l-19.714-19.714 19.714-19.714c2.7746-2.7746 3.0736-6.9432 0.67007-9.3467z" style="paint-order:markers stroke fill"/><path transform="matrix(.79874 0 0 .79874 255.95 125.69)" d="m815.97 587.92c-3.0276-3.0276-8.279-2.6513-11.774 0.84382l-24.833 24.833-24.833-24.833c-3.4952-3.4952-8.7465-3.8714-11.774-0.84382-3.0276 3.0276-2.6511 8.2787 0.84408 11.774l24.833 24.833-24.833 24.833c-3.4952 3.4952-3.8714 8.7465-0.84382 11.774 3.0276 3.0276 8.2787 2.6511 11.774-0.84407l24.833-24.833 24.833 24.833c3.4952 3.4952 8.7462 3.8717 11.774 0.84407s2.6514-8.279-0.84382-11.774l-24.833-24.833 24.833-24.833c3.4952-3.4952 3.8717-8.7462 0.84407-11.774z" clip-rule="evenodd" fill-rule="evenodd" style="paint-order:markers stroke fill"/></g>
</svg>
