<?xml version="1.0" encoding="UTF-8" standalone="no"?>
<svg
   width="100%"
   height="100%"
   viewBox="0 0 4417 3259"
   version="1.1"
   xml:space="preserve"
   style="fill-rule:evenodd;clip-rule:evenodd;stroke-linejoin:round;stroke-miterlimit:1.41421;"
   id="svg2124"
   sodipodi:docname="cuddlyferris_icecream.svg"
   inkscape:version="1.2.2 (b0a8486541, 2022-12-01)"
   inkscape:export-filename="cuddlyferris_icecream.png"
   inkscape:export-xdpi="130.56"
   inkscape:export-ydpi="130.56"
   xmlns:inkscape="http://www.inkscape.org/namespaces/inkscape"
   xmlns:sodipodi="http://sodipodi.sourceforge.net/DTD/sodipodi-0.dtd"
   xmlns="http://www.w3.org/2000/svg"
   xmlns:svg="http://www.w3.org/2000/svg"><defs
   id="defs2128" /><sodipodi:namedview
   id="namedview2126"
   pagecolor="#ffffff"
   bordercolor="#666666"
   borderopacity="1.0"
   inkscape:showpageshadow="2"
   inkscape:pageopacity="0.0"
   inkscape:pagecheckerboard="0"
   inkscape:deskcolor="#d1d1d1"
   showgrid="false"
   inkscape:zoom="0.18854734"
   inkscape:cx="2418.4908"
   inkscape:cy="1365.7048"
   inkscape:window-width="1899"
   inkscape:window-height="1052"
   inkscape:window-x="0"
   inkscape:window-y="0"
   inkscape:window-maximized="1"
   inkscape:current-layer="svg2124" />
    <g
   transform="matrix(4.16667,0,0,4.16667,-1216.575,-900.4498)"
   id="g2122"
   style="display:inline">
        
        
        
        
        
        
        
        
        
        
        
        
        
        
        <path
   id="rect114323"
   style="fill:#d17d35;stroke-width:33.5999;stroke-linecap:round;paint-order:markers stroke fill"
   transform="rotate(-17.915377)"
   d="m 532.24498,448.4505 h 16.37704 c 3.98879,0 7.19999,3.2112 7.19999,7.19999 v 212.7976 c 0,3.9888 -3.2112,7.2 -7.19999,7.2 h -16.37704 c -3.9888,0 -7.2,-3.2112 -7.2,-7.2 v -212.7976 c 0,-3.98879 3.2112,-7.19999 7.2,-7.19999 z" /><path
   id="rect114323-1"
   style="fill:#d17d35;stroke-width:33.5999;stroke-linecap:round;paint-order:markers stroke fill"
   transform="rotate(-24.604346)"
   d="m 418.12462,540.93542 h 14.0714 c 3.9888,0 7.2,3.2112 7.2,7.2 v 195.7773 c 0,3.9888 -3.2112,7.2 -7.2,7.2 h -14.0714 c -3.9888,0 -7.2,-3.2112 -7.2,-7.2 v -195.7773 c 0,-3.9888 3.2112,-7.2 7.2,-7.2 z" /><g
   id="g13981"
   style="display:inline"><g
     id="g67448"
     style="clip-rule:evenodd;display:inline;fill-rule:evenodd;stroke-width:1.09668;stroke-linejoin:round;stroke-miterlimit:1.41421"
     transform="matrix(0.91184726,0,0,0.91184726,77.645894,59.160954)"><ellipse
       style="clip-rule:evenodd;display:inline;fill:#fff8ac;fill-opacity:1;fill-rule:evenodd;stroke-width:36.8481;stroke-linecap:round;stroke-linejoin:round;stroke-miterlimit:1.41421;paint-order:markers stroke fill"
       id="ellipse66656"
       cx="831.54669"
       cy="421.94009"
       rx="120.83249"
       ry="121.82423" /><path
       style="clip-rule:evenodd;fill:#3b1a07;fill-opacity:1;fill-rule:evenodd;stroke:none;stroke-width:1px;stroke-linecap:butt;stroke-linejoin:miter;stroke-miterlimit:1.41421;stroke-opacity:1"
       d="m 1954.4422,557.27776 c 68.0937,-61.05737 195.7969,-103.51552 334.6256,-105.42154 138.8287,-1.90602 262.5016,58.27651 332.212,140.24785 51.4867,68.26225 110.1363,198.19206 79.4857,207.51053 -30.6505,9.31847 -32.9191,-66.44835 -93.18,-65.92122 -60.2608,0.52712 -53.8055,201.54717 -135.3655,201.138 -81.56,-0.40918 -48.5667,-297.76428 -139.1068,-305.86376 -90.5401,-8.09948 -41.1186,49.40136 -124.6131,53.87957 -83.4945,4.47821 -43.2303,-96.49227 -114.7268,-97.17595 -71.4964,-0.68368 -121.8299,102.19673 -163.0009,111.5695 -79.3275,18.05928 -44.4239,-78.90561 23.6698,-139.96298 z"
       id="path97319"
       sodipodi:nodetypes="zsczzzzzssz"
       transform="matrix(0.26320176,0,0,0.26320176,235.05238,172.11964)" /><ellipse
       style="display:inline;fill:#22d6d4;fill-opacity:1;stroke-width:36.8481;stroke-linecap:round;stroke-linejoin:round;paint-order:markers stroke fill"
       id="path64710"
       cx="726.76349"
       cy="533.35675"
       rx="136.64034"
       ry="137.76181" /><path
       style="clip-rule:evenodd;fill:#3b1a07;fill-opacity:1;fill-rule:evenodd;stroke:none;stroke-width:0.263202px;stroke-linecap:butt;stroke-linejoin:miter;stroke-miterlimit:1.41421;stroke-opacity:1"
       d="m 663.68526,401.62993 c 15.42548,-6.67166 47.58619,-16.85086 89.03105,-7.60817 41.44485,9.24268 58.36796,22.29286 76.45119,37.61554 18.0832,15.32269 32.02765,46.11937 25.96538,47.89293 -6.06228,1.77356 -49.26298,13.93898 -49.26298,13.93898 0,0 8.58291,-11.3197 7.78815,-25.01061 -0.79474,-13.69089 -5.24146,-23.10657 -17.45326,-23.32741 -12.2118,-0.22084 -8.35612,7.26236 -25.08701,8.58471 -16.7309,1.32233 -11.74219,-23.17126 -30.00266,-23.00358 -18.26043,0.16768 -8.90251,42.62228 -26.54406,42.69864 -17.64152,0.0763 -9.94338,-43.54868 -26.77663,-42.1587 -16.83325,1.38999 -7.71091,18.30745 -20.66431,18.23517 -12.95339,-0.0722 -13.56719,-6.21886 -25.94356,0.59708 -12.37636,6.81594 -13.50839,18.0483 -24.92731,16.34916 -11.41892,-1.69914 -8.08495,-14.90752 4.71338,-32.17897 11.86133,-16.00695 27.28715,-25.95311 42.71263,-32.62477 z"
       id="path90294"
       sodipodi:nodetypes="zzzscszzzzzzzzsz" /><ellipse
       style="clip-rule:evenodd;display:inline;fill:#ec0e52;fill-opacity:1;fill-rule:evenodd;stroke-width:39.8047;stroke-linecap:round;stroke-linejoin:round;stroke-miterlimit:1.41421;paint-order:markers stroke fill"
       id="path64710-8"
       cx="726.76349"
       cy="533.35675"
       rx="136.64034"
       ry="137.76181"
       transform="matrix(0.92572748,0,0,0.92572748,237.994,39.61375)" /><path
       style="clip-rule:evenodd;fill:#3b1a07;fill-opacity:1;fill-rule:evenodd;stroke:none;stroke-width:1px;stroke-linecap:butt;stroke-linejoin:miter;stroke-miterlimit:1.41421;stroke-opacity:1"
       d="m 2082.003,1250.7283 c 0,0 8.4454,-123.8182 97.8004,-227.7275 89.355,-103.90932 146.7814,-134.00682 258.7553,-164.64638 111.9739,-30.63956 179.1055,-16.59063 257.6638,4.07258 78.5583,20.66321 149.9088,66.71406 199.1973,125.07064 49.2885,58.35656 87.5802,91.54136 54.2483,109.14016 -33.3319,17.5987 -72.3037,-61.3517 -115.5235,-57.9517 -43.2197,3.4001 -26.0481,71.615 -84.1477,74.7867 -58.0997,3.1717 -36.861,-106.7065 -101.1414,-106.1077 -64.2804,0.5988 -27.8886,182.3973 -97.2763,183.3568 -69.3876,0.9596 -22.8238,-78.3772 -112.7575,-77.1613 -89.9336,1.2159 -29.8551,266.3901 -116.1264,270.3908 -86.2713,4.0007 -59.133,-217.7438 -109.5055,-213.7811 -50.3726,3.9627 -77.8697,137.6766 -109.8131,132.3588 -31.9434,-5.3178 -21.3737,-51.8008 -21.3737,-51.8008 z"
       id="path98186"
       sodipodi:nodetypes="czzzzzzzzszzssc"
       transform="matrix(0.26320176,0,0,0.26320176,235.05238,172.11964)" /></g><path
     id="path2092"
     style="fill:#81522a;fill-opacity:1;fill-rule:nonzero;stroke-width:1"
     d="m 988.7844,608.48996 a 364.38351,97.477997 0 0 1 -181.85845,13.02983 364.38351,97.477997 0 0 1 -139.3963,-7.43249 v 66.03182 c 39.73232,11.573 93.39935,18.67405 152.46832,18.67405 67.60579,0 128.13105,-9.30221 168.78643,-23.96389 z" /><path
     d="m 991.42577,652.06339 c -1.73079,-4.78492 -2.07722,-10.83887 -0.61073,-16.67608 2.62513,-10.45072 10.06116,-16.2435 16.60926,-12.93853 1.6235,0.81985 3.0397,2.12299 4.2123,3.77749 0.1072,-4.5e-4 0.2145,0 0.3208,0.007 0,0 19.9923,23.8308 1.4867,52.05522 -0.4016,1.60155 -34.34388,41.15756 -42.20087,42.41672 -5.14256,0.82389 6.68219,-40.38572 20.18254,-68.642 z"
     style="fill:#81522a;fill-opacity:1;fill-rule:nonzero;stroke-width:1"
     id="path2094" /><path
     d="m 663.42177,647.38707 c 2.37833,-4.32137 3.21209,-10.22589 1.89234,-16.34537 -2.36307,-10.95644 -10.72938,-18.44771 -18.68644,-16.73128 -1.97356,0.42541 -3.73576,1.37853 -5.23501,2.73642 -0.12654,-0.026 -0.25309,-0.0507 -0.37918,-0.0686 0,0 -25.26049,18.82555 -5.41046,51.12228 0.36123,1.67874 37.62732,48.83999 46.80854,51.94752 6.00908,2.03369 -5.04698,-41.51969 -18.98979,-72.66092 z"
     style="fill:#81522a;fill-opacity:1;fill-rule:nonzero;stroke-width:1"
     id="path2096" /><path
     d="m 627.96591,650.0997 0.003,0.007 c 0.083,0.0651 0.1602,0.12386 -0.003,-0.007 z"
     style="fill:#e33a25;fill-rule:nonzero;stroke-width:1"
     id="path2098" /><path
     id="path2100"
     style="fill:#d17d35;fill-opacity:1;fill-rule:nonzero;stroke-width:1"
     d="m 629.50703,577.0242 v 0 l -23.28233,3.9511 c -2.36531,0.39848 -4.35867,2.04917 -5.27859,4.35749 -0.91408,2.31416 -0.6179,4.95094 0.77813,6.98015 l 13.77186,19.94671 c -0.10635,0.35181 -0.20391,0.70718 -0.30937,1.06078 l -7.56703,8.03811 20.34608,28.74139 c 0,0 195.27061,90.07641 376.40222,1.5239 20.6905,-3.71242 25.5131,-35.25278 25.5131,-35.25278 -0.3949,-1.37494 -0.7879,-2.74903 -1.1944,-4.1114 l 13.7686,-19.94671 c 1.4045,-2.02921 1.6916,-4.66599 0.7762,-6.98015 -0.9154,-2.30203 -2.9122,-3.95363 -5.2771,-4.35749 l -23.2833,-3.9511 v 0 c -57.50377,-5.7178 -118.49288,-8.62914 -181.56163,-8.62339 -71.19341,-0.002 -134.19249,2.2804 -203.60244,8.62339 z"
     sodipodi:nodetypes="ccccccccccccccccccc" /><path
     d="m 857.19859,600.15177 c 0,0 21.60998,-23.66162 43.22041,0 0,0 16.98034,31.55183 0,47.3255 0,0 -27.78465,22.08565 -43.22041,0 0,0 -18.52355,-17.35369 0,-47.3255 z"
     style="fill:#030404;fill-rule:nonzero;stroke-width:1"
     id="path2102" /><path
     d="m 882.21765,608.92958 c 0,9.21398 -5.4311,16.68371 -12.12945,16.68371 -6.697,0 -12.1281,-7.46973 -12.1281,-16.68371 0,-9.21354 5.4311,-16.68416 12.1281,-16.68416 6.69835,0 12.12945,7.47062 12.12945,16.68416 z"
     style="fill:#ffffff;fill-rule:nonzero;stroke-width:1"
     id="path2104" /><path
     d="m 760.74725,593.69081 c 0,0 37.06954,-16.41312 47.18684,20.22113 0,0 10.59834,42.69943 -30.4412,45.10962 0,0 -52.33298,-10.07961 -16.74564,-65.33075 z"
     style="fill:#030404;fill-rule:nonzero;stroke-width:1"
     id="path2106" /><path
     d="m 779.36549,609.53448 c 0,9.50118 -5.60028,17.2074 -12.50954,17.2074 -6.90656,0 -12.50818,-7.70622 -12.50818,-17.2074 0,-9.50342 5.60162,-17.20739 12.50818,-17.20739 6.90926,0 12.50954,7.70397 12.50954,17.20739 z"
     style="fill:#ffffff;fill-rule:nonzero;stroke-width:1"
     id="path2108" /><path
     d="m 634.30885,655.10316 c 4.92133,-5.59265 16.87757,-12.36594 15.96169,-20.7686 -1.63925,-15.04491 -14.11557,-26.02649 -27.86632,-24.52769 -3.41043,0.37155 -6.57763,1.47725 -9.38944,3.15733 -0.20732,-0.048 -0.41509,-0.0947 -0.62285,-0.13193 0,0 -46.5034,22.82877 -19.99766,68.50335 0.24994,2.30517 52.88314,69.85449 67.66464,74.9984 9.67439,3.36645 -8.93486,-57.72594 -25.75006,-101.23086 z"
     style="fill:#d17d35;fill-opacity:1;fill-rule:nonzero;stroke-width:1"
     id="path2110" /><path
     d="m 1012.1244,653.06453 c -5.6959,-4.80152 -20.71478,-9.16238 -21.05493,-17.60767 -0.60849,-15.12165 10.10203,-27.83132 23.92323,-28.38731 3.4275,-0.13821 6.7239,0.48599 9.7534,1.73079 0.1983,-0.0781 0.3967,-0.15526 0.5964,-0.22302 0,0 49.3726,15.68392 29.9287,64.78284 0.094,2.31684 -41.9429,76.92126 -55.79862,84.19937 -9.06859,4.76338 2.47072,-58.97838 12.65182,-104.495 z"
     style="fill:#d17d35;fill-opacity:1;fill-rule:nonzero;stroke-width:1"
     id="path2112" /><path
     d="m 670.00165,653.46167 c 0,0 -0.62061,61.61024 59.75695,75.35785 l 12.58896,-25.29235 c 0,0 -43.74994,4.23207 -47.11549,-50.0655 z"
     style="fill:#d17d35;fill-opacity:1;fill-rule:nonzero;stroke-width:1"
     id="path2114" /><path
     d="m 977.48745,653.46167 c 0,0 0.62016,61.61024 -59.75739,75.35785 L 905.1411,703.52717 c 0,0 43.74993,4.23207 47.11548,-50.0655 z"
     style="fill:#d17d35;fill-opacity:1;fill-rule:nonzero;stroke-width:1"
     id="path2116" /><path
     d="m 933.87214,716.30011 c -9.08699,-21.96225 -38.40992,-30.68172 -65.49409,-19.47533 -23.83977,9.86376 -37.98003,31.87492 -34.83301,51.98432 18.82286,-0.29258 39.01348,-1.5127 58.66651,-4.36086 0,0 -11.59411,18.74074 -28.65521,35.09643 11.47249,2.96123 24.85258,2.13959 37.72828,-3.18786 27.08462,-11.20639 41.67451,-38.0949 32.58752,-60.0567 z"
     style="fill:#d17d35;fill-opacity:1;fill-rule:nonzero;stroke-width:1"
     id="path2118" /><path
     d="m 765.85437,743.40088 c 0,0 24.7718,3.27356 58.63689,4.10867 2.96617,-21.3201 -13.18399,-43.88321 -38.95111,-52.61166 -28.46718,-9.64253 -57.88256,1.25289 -65.70185,24.33608 -7.8193,23.0832 8.91916,49.61273 37.38634,59.25571 12.61903,4.2747 25.42248,4.50939 36.45072,1.43911 -16.56345,-16.38127 -27.82099,-36.52791 -27.82099,-36.52791 z"
     style="clip-rule:evenodd;display:inline;fill:#d17d35;fill-opacity:1;fill-rule:nonzero;stroke-width:1;stroke-linejoin:round;stroke-miterlimit:1.41421"
     id="path2120" /></g>
    </g>
<path
   style="fill:#ec0e52;fill-opacity:1;stroke:none;stroke-width:1px;stroke-linecap:butt;stroke-linejoin:miter;stroke-opacity:1"
   d="m 2102.8996,1439.9424 c 0,0 -49.5367,10.5365 -31.2712,48.5902 20.4087,42.5187 62.3576,-1.4724 105.7404,0.095 43.3828,1.5673 43.2553,63.5652 79.2301,63.3217 35.9747,-0.2434 -1.8817,-81.6652 115.6552,-81.6652 l 290.374,10.0478 c 0,0 62.1096,2.8533 70.5164,58.5412 5.4402,36.0369 -18.303,264.9933 56.135,265.7615 74.438,0.7682 25.1889,-262.742 46.8802,-278.2388 44.6248,-31.881 17.1369,81.2759 67.2036,81.9387 50.0667,0.6628 25.5368,-50.8337 55.5773,-49.5726 30.0406,1.2612 30.8163,49.7532 71.9382,40.0056 41.1218,-9.7476 44.6098,-81.6473 29.5611,-114.3585 -14.012,-30.4578 -67.9678,-40.3372 -67.9678,-40.3372 l -549.4307,-67.7326 z"
   id="path81568"
   sodipodi:nodetypes="cszsccszszszsccc" /><path
   style="fill:#22d6d4;fill-opacity:1;stroke:none;stroke-width:1px;stroke-linecap:butt;stroke-linejoin:miter;stroke-opacity:1"
   d="m 1381.2289,1450.6159 c 0,0 -92.5649,50.2983 -32.1849,109.7694 60.38,59.4711 107.3989,-23.7033 138.3094,-24.6822 30.9105,-0.9789 48.5773,88.2207 126.6309,83.8442 78.0536,-4.3766 32.7123,-137.7021 136.5127,-137.7021 103.8004,0 213.7786,-181.7047 213.7786,-181.7047 z"
   id="path84253"
   sodipodi:nodetypes="csssscc" /></svg>
