<?xml version="1.0" encoding="UTF-8"?>
<svg clip-rule="evenodd" fill-rule="evenodd" stroke-linejoin="round" stroke-miterlimit="1.4142" version="1.1" viewBox="0 0 4417 3259" xml:space="preserve" xmlns="http://www.w3.org/2000/svg">
    <g transform="matrix(4.1667 0 0 4.1667 -1216.6 -900.45)">
        
        
        
        
        
        
        
        
        
        
        
        
        
        
        <path transform="rotate(-17.915)" d="m532.24 448.45h16.377c3.9888 0 7.2 3.2112 7.2 7.2v212.8c0 3.9888-3.2112 7.2-7.2 7.2h-16.377c-3.9888 0-7.2-3.2112-7.2-7.2v-212.8c0-3.9888 3.2112-7.2 7.2-7.2z" fill="#d17d35" stroke-linecap="round" stroke-width="33.6" style="paint-order:markers stroke fill"/><path transform="rotate(-24.604)" d="m418.12 540.94h14.071c3.9888 0 7.2 3.2112 7.2 7.2v195.78c0 3.9888-3.2112 7.2-7.2 7.2h-14.071c-3.9888 0-7.2-3.2112-7.2-7.2v-195.78c0-3.9888 3.2112-7.2 7.2-7.2z" fill="#d17d35" stroke-linecap="round" stroke-width="33.6" style="paint-order:markers stroke fill"/><g><g transform="matrix(.91185 0 0 .91185 77.646 59.161)" clip-rule="evenodd" fill-rule="evenodd" stroke-linejoin="round" stroke-miterlimit="1.4142" stroke-width="1.0967"><ellipse cx="831.55" cy="421.94" rx="120.83" ry="121.82" clip-rule="evenodd" fill="#fff8ac" fill-rule="evenodd" stroke-linecap="round" stroke-linejoin="round" stroke-miterlimit="1.4142" stroke-width="36.848" style="paint-order:markers stroke fill"/><path transform="matrix(.2632 0 0 .2632 235.05 172.12)" d="m1954.4 557.28c68.094-61.057 195.8-103.52 334.63-105.42s262.5 58.277 332.21 140.25c51.487 68.262 110.14 198.19 79.486 207.51-30.65 9.3185-32.919-66.448-93.18-65.921-60.261 0.52712-53.806 201.55-135.37 201.14-81.56-0.40918-48.567-297.76-139.11-305.86s-41.119 49.401-124.61 53.88-43.23-96.492-114.73-97.176c-71.496-0.68368-121.83 102.2-163 111.57-79.328 18.059-44.424-78.906 23.67-139.96z" clip-rule="evenodd" fill="#3b1a07" fill-rule="evenodd"/><ellipse cx="726.76" cy="533.36" rx="136.64" ry="137.76" fill="#22d6d4" stroke-linecap="round" stroke-linejoin="round" stroke-width="36.848" style="paint-order:markers stroke fill"/><g clip-rule="evenodd" fill-rule="evenodd"><path d="m663.69 401.63c15.425-6.6717 47.586-16.851 89.031-7.6082 41.445 9.2427 58.368 22.293 76.451 37.616 18.083 15.323 32.028 46.119 25.965 47.893-6.0623 1.7736-49.263 13.939-49.263 13.939s8.5829-11.32 7.7882-25.011c-0.79474-13.691-5.2415-23.107-17.453-23.327s-8.3561 7.2624-25.087 8.5847c-16.731 1.3223-11.742-23.171-30.003-23.004-18.26 0.16768-8.9025 42.622-26.544 42.699-17.642 0.0763-9.9434-43.549-26.777-42.159-16.833 1.39-7.7109 18.307-20.664 18.235-12.953-0.0722-13.567-6.2189-25.944 0.59708-12.376 6.8159-13.508 18.048-24.927 16.349s-8.085-14.908 4.7134-32.179c11.861-16.007 27.287-25.953 42.713-32.625z" fill="#3b1a07"/><ellipse transform="matrix(.92573 0 0 .92573 237.99 39.614)" cx="726.76" cy="533.36" rx="136.64" ry="137.76" fill="#ec0e52" stroke-linecap="round" stroke-linejoin="round" stroke-miterlimit="1.4142" stroke-width="39.805" style="paint-order:markers stroke fill"/><path transform="matrix(.2632 0 0 .2632 235.05 172.12)" d="m2082 1250.7s8.4454-123.82 97.8-227.73c89.355-103.91 146.78-134.01 258.76-164.65s179.11-16.591 257.66 4.0726 149.91 66.714 199.2 125.07c49.288 58.357 87.58 91.541 54.248 109.14-33.332 17.599-72.304-61.352-115.52-57.952-43.22 3.4001-26.048 71.615-84.148 74.787-58.1 3.1717-36.861-106.71-101.14-106.11s-27.889 182.4-97.276 183.36c-69.388 0.9596-22.824-78.377-112.76-77.161-89.934 1.2159-29.855 266.39-116.13 270.39s-59.133-217.74-109.51-213.78c-50.373 3.9627-77.87 137.68-109.81 132.36s-21.374-51.801-21.374-51.801z" fill="#3b1a07"/></g></g><g fill="#81522a" fill-rule="nonzero"><path d="m988.78 608.49a364.38 97.478 0 0 1-181.86 13.03 364.38 97.478 0 0 1-139.4-7.4325v66.032c39.732 11.573 93.399 18.674 152.47 18.674 67.606 0 128.13-9.3022 168.79-23.964z"/><path d="m991.43 652.06c-1.7308-4.7849-2.0772-10.839-0.61073-16.676 2.6251-10.451 10.061-16.244 16.609-12.939 1.6235 0.81985 3.0397 2.123 4.2123 3.7775 0.1072-4.5e-4 0.2145 0 0.3208 7e-3 0 0 19.992 23.831 1.4867 52.055-0.4016 1.6016-34.344 41.158-42.201 42.417-5.1426 0.82389 6.6822-40.386 20.183-68.642z"/><path d="m663.42 647.39c2.3783-4.3214 3.2121-10.226 1.8923-16.345-2.3631-10.956-10.729-18.448-18.686-16.731-1.9736 0.42541-3.7358 1.3785-5.235 2.7364-0.12654-0.026-0.25309-0.0507-0.37918-0.0686 0 0-25.26 18.826-5.4105 51.122 0.36123 1.6787 37.627 48.84 46.809 51.948 6.0091 2.0337-5.047-41.52-18.99-72.661z"/></g><g fill-rule="nonzero"><path d="m627.97 650.1 3e-3 7e-3c0.083 0.0651 0.1602 0.12386-3e-3 -7e-3z" fill="#e33a25"/><path d="m629.51 577.02-23.282 3.9511c-2.3653 0.39848-4.3587 2.0492-5.2786 4.3575-0.91408 2.3142-0.6179 4.9509 0.77813 6.9802l13.772 19.947c-0.10635 0.35181-0.20391 0.70718-0.30937 1.0608l-7.567 8.0381 20.346 28.741s195.27 90.076 376.4 1.5239c20.69-3.7124 25.513-35.253 25.513-35.253-0.3949-1.3749-0.7879-2.749-1.1944-4.1114l13.769-19.947c1.4045-2.0292 1.6916-4.666 0.7762-6.9802-0.9154-2.302-2.9122-3.9536-5.2771-4.3575l-23.283-3.9511c-57.504-5.7178-118.49-8.6291-181.56-8.6234-71.193-2e-3 -134.19 2.2804-203.6 8.6234z" fill="#d17d35"/><path d="m857.2 600.15s21.61-23.662 43.22 0c0 0 16.98 31.552 0 47.326 0 0-27.785 22.086-43.22 0 0 0-18.524-17.354 0-47.326z" fill="#030404"/><path d="m882.22 608.93c0 9.214-5.4311 16.684-12.129 16.684-6.697 0-12.128-7.4697-12.128-16.684 0-9.2135 5.4311-16.684 12.128-16.684 6.6984 0 12.129 7.4706 12.129 16.684z" fill="#fff"/><path d="m760.75 593.69s37.07-16.413 47.187 20.221c0 0 10.598 42.699-30.441 45.11 0 0-52.333-10.08-16.746-65.331z" fill="#030404"/><path d="m779.37 609.53c0 9.5012-5.6003 17.207-12.51 17.207-6.9066 0-12.508-7.7062-12.508-17.207 0-9.5034 5.6016-17.207 12.508-17.207 6.9093 0 12.51 7.704 12.51 17.207z" fill="#fff"/></g><g fill="#d17d35" fill-rule="nonzero"><path d="m634.31 655.1c4.9213-5.5926 16.878-12.366 15.962-20.769-1.6392-15.045-14.116-26.026-27.866-24.528-3.4104 0.37155-6.5776 1.4772-9.3894 3.1573-0.20732-0.048-0.41509-0.0947-0.62285-0.13193 0 0-46.503 22.829-19.998 68.503 0.24994 2.3052 52.883 69.854 67.665 74.998 9.6744 3.3664-8.9349-57.726-25.75-101.23z"/><path d="m1012.1 653.06c-5.6959-4.8015-20.715-9.1624-21.055-17.608-0.60849-15.122 10.102-27.831 23.923-28.387 3.4275-0.13821 6.7239 0.48599 9.7534 1.7308 0.1983-0.0781 0.3967-0.15526 0.5964-0.22302 0 0 49.373 15.684 29.929 64.783 0.094 2.3168-41.943 76.921-55.799 84.199-9.0686 4.7634 2.4707-58.978 12.652-104.5z"/><path d="m670 653.46s-0.62061 61.61 59.757 75.358l12.589-25.292s-43.75 4.2321-47.115-50.066z"/><path d="m977.49 653.46s0.62016 61.61-59.757 75.358l-12.589-25.292s43.75 4.2321 47.115-50.066z"/><path d="m933.87 716.3c-9.087-21.962-38.41-30.682-65.494-19.475-23.84 9.8638-37.98 31.875-34.833 51.984 18.823-0.29258 39.013-1.5127 58.667-4.3609 0 0-11.594 18.741-28.655 35.096 11.472 2.9612 24.853 2.1396 37.728-3.1879 27.085-11.206 41.675-38.095 32.588-60.057z"/><path d="m765.85 743.4s24.772 3.2736 58.637 4.1087c2.9662-21.32-13.184-43.883-38.951-52.612-28.467-9.6425-57.883 1.2529-65.702 24.336-7.8193 23.083 8.9192 49.613 37.386 59.256 12.619 4.2747 25.422 4.5094 36.451 1.4391-16.563-16.381-27.821-36.528-27.821-36.528z" clip-rule="evenodd" stroke-linejoin="round" stroke-miterlimit="1.4142"/></g></g>
    </g>
<path d="m2102.9 1439.9s-49.537 10.536-31.271 48.59c20.409 42.519 62.358-1.4724 105.74 0.095 43.383 1.5673 43.255 63.565 79.23 63.322 35.975-0.2434-1.8817-81.665 115.66-81.665l290.37 10.048s62.11 2.8533 70.516 58.541c5.4402 36.037-18.303 264.99 56.135 265.76s25.189-262.74 46.88-278.24c44.625-31.881 17.137 81.276 67.204 81.939s25.537-50.834 55.577-49.573c30.041 1.2612 30.816 49.753 71.938 40.006 41.122-9.7476 44.61-81.647 29.561-114.36-14.012-30.458-67.968-40.337-67.968-40.337l-549.43-67.733z" fill="#ec0e52"/><path d="m1381.2 1450.6s-92.565 50.298-32.185 109.77 107.4-23.703 138.31-24.682 48.577 88.221 126.63 83.844c78.054-4.3766 32.712-137.7 136.51-137.7s213.78-181.7 213.78-181.7z" fill="#22d6d4"/></svg>
