<?xml version="1.0" encoding="UTF-8"?>
<svg clip-rule="evenodd" fill-rule="evenodd" stroke-linejoin="round" stroke-miterlimit="1.4142" version="1.1" viewBox="0 0 4417 3259" xml:space="preserve" xmlns="http://www.w3.org/2000/svg">
    <g transform="matrix(4.1667 0 0 4.1667 -1216.6 -898.05)">
        
        
        
        
        
        
        
        
        
        
        
        
        
        
        <path d="m820.12 304.51c-127.77 0-231.71 103.94-231.71 231.71 0 127.77 103.94 231.71 231.71 231.71s231.71-103.94 231.71-231.71c0-127.77-103.94-231.71-231.71-231.71zm0 33.6c109.61 0 198.12 88.499 198.12 198.11 0 109.61-88.501 198.12-198.12 198.12-109.61 0-198.11-88.501-198.11-198.12 0-109.61 88.499-198.11 198.11-198.11z" color="#000000" fill="#fbc328" stroke-linecap="round" style="-inkscape-stroke:none;paint-order:markers stroke fill"/><g fill="#278b9b" fill-rule="nonzero"><path d="m820 562.59c-59.069 0-112.74 7.1013-152.47 18.674v98.857c39.732 11.573 93.399 18.674 152.47 18.674 67.606 0 128.13-9.3019 168.79-23.964v-88.275c-40.655-14.663-101.18-23.966-168.79-23.966z"/><path d="m991.43 652.06c-1.7308-4.7849-2.0772-10.839-0.61073-16.676 2.6251-10.451 10.061-16.244 16.609-12.939 1.6235 0.81985 3.0397 2.123 4.2123 3.7775 0.1072-4.5e-4 0.2145 0 0.3208 7e-3 0 0 19.992 23.831 1.4867 52.055-0.4016 1.6016-34.344 41.158-42.201 42.417-5.1426 0.82389 6.6822-40.386 20.183-68.642z"/><path d="m663.42 647.39c2.3783-4.3214 3.2121-10.226 1.8923-16.345-2.3631-10.956-10.729-18.448-18.686-16.731-1.9736 0.42541-3.7358 1.3785-5.235 2.7364-0.12654-0.026-0.25309-0.0507-0.37918-0.0686 0 0-25.26 18.826-5.4105 51.122 0.36123 1.6787 37.627 48.84 46.809 51.948 6.0091 2.0337-5.047-41.52-18.99-72.661z"/><path d="m627.97 650.1 3e-3 7e-3c0.083 0.0651 0.1602 0.12386-3e-3 -7e-3z"/></g><g fill-rule="nonzero"><path d="m1029.9 616.37c-0.3949-1.3749-0.788-2.749-1.1945-4.1114l13.769-19.947c1.4045-2.0292 1.6917-4.666 0.7763-6.9802-0.9154-2.302-2.9123-3.9534-5.2772-4.3573l-23.283-3.9512c-0.9011-1.8407-1.847-3.6536-2.7957-5.4522l9.7812-22.393c1.0065-2.2827 0.7938-4.9339-0.5398-7.0039-1.3287-2.0804-3.5855-3.2956-5.9903-3.2009l-23.629 0.85844c-1.2237-1.593-2.4663-3.1717-3.7344-4.7212l5.4302-24.003c0.54971-2.438-0.14449-4.9891-1.8412-6.7598-1.6882-1.7644-4.1414-2.4946-6.4735-1.922l-23.015 5.6577c-1.4903-1.317-3.0061-2.6175-4.5386-3.8919l0.82928-24.642c0.0889-2.4946-1.0738-4.8648-3.0712-6.2487-1.9951-1.3929-4.5291-1.6034-6.7114-0.56811l-21.471 10.208c-1.7294-0.99172-3.4679-1.9745-5.2251-2.9244l-3.7941-24.284c-0.38457-2.46-1.9677-4.5493-4.185-5.5038-2.2092-0.95941-4.7423-0.64978-6.6822 0.81132l-19.143 14.363c-1.8847-0.62644-3.7779-1.2264-5.6954-1.7999l-8.2505-23.028c-0.83914-2.3465-2.7737-4.0705-5.1327-4.5552-2.351-0.4806-4.7701 0.33341-6.4004 2.1548l-16.113 18.027c-1.9484-0.22437-3.8973-0.42899-5.8529-0.59772l-12.44-20.962c-1.261-2.1234-3.4867-3.4158-5.8857-3.4158-2.3936 0-4.6238 1.2924-5.874 3.4158l-12.445 20.962c-1.9556 0.16873-3.9139 0.37335-5.8588 0.59772l-16.114-18.027c-1.6316-1.8214-4.0598-2.6354-6.4026-2.1548-2.3581 0.49002-4.2958 2.2087-5.1304 4.5552l-8.2577 23.028c-1.9116 0.57349-3.8058 1.1788-5.695 1.7999l-19.136-14.363c-1.9457-1.4656-4.4784-1.7748-6.6934-0.81132-2.2074 0.95447-3.7968 3.0438-4.1791 5.5038l-3.7968 24.284c-1.7564 0.94998-3.4952 1.9269-5.2292 2.9244l-21.469-10.208c-2.18-1.0388-4.7248-0.82478-6.7105 0.56811-1.9946 1.3839-3.16 3.7542-3.0694 6.2487l0.82344 24.642c-1.528 1.2744-3.0398 2.5749-4.5377 3.8919l-23.011-5.6577c-2.3384-0.56766-4.7881 0.1575-6.4803 1.922-1.703 1.7707-2.3927 4.3218-1.8457 6.7598l5.4203 24.003c-1.2574 1.5558-2.5017 3.1282-3.7214 4.7212l-23.628-0.85844c-2.3851-0.0705-4.6611 1.1205-5.9934 3.2009-1.335 2.07-1.5369 4.7212-0.54342 7.0039l9.7888 22.393c-0.95088 1.7986-1.8955 3.6115-2.8042 5.4522l-23.282 3.9512c-2.3653 0.39848-4.3591 2.0489-5.279 4.3573-0.91408 2.3142-0.61747 4.951 0.77856 6.9802l13.772 19.947c-0.10635 0.35181-0.20417 0.70722-0.30963 1.0608l-7.5671 8.0378 20.346 28.741s195.27 90.077 376.4 1.5239c20.69-3.7124 25.513-35.253 25.513-35.253z" fill="#30bfd9"/><path d="m857.2 600.15s21.61-23.662 43.22 0c0 0 16.98 31.552 0 47.326 0 0-27.785 22.086-43.22 0 0 0-18.524-17.354 0-47.326z" fill="#030404"/><path d="m882.22 608.93c0 9.214-5.4311 16.684-12.129 16.684-6.697 0-12.128-7.4697-12.128-16.684 0-9.2135 5.4311-16.684 12.128-16.684 6.6984 0 12.129 7.4706 12.129 16.684z" fill="#fff"/><path d="m760.75 593.69s37.07-16.413 47.187 20.221c0 0 10.598 42.699-30.441 45.11 0 0-52.333-10.08-16.746-65.331z" fill="#030404"/><path d="m779.37 609.53c0 9.5012-5.6003 17.207-12.51 17.207-6.9066 0-12.508-7.7062-12.508-17.207 0-9.5034 5.6016-17.207 12.508-17.207 6.9093 0 12.51 7.704 12.51 17.207z" fill="#fff"/></g><g fill="#30bfd9" fill-rule="nonzero"><path d="m634.31 655.1c4.9213-5.5926 16.878-12.366 15.962-20.769-1.6392-15.045-14.116-26.026-27.866-24.528-3.4104 0.37155-6.5776 1.4772-9.3894 3.1573-0.20732-0.048-0.41509-0.0947-0.62285-0.13193 0 0-46.503 22.829-19.998 68.503 0.24994 2.3052 52.883 69.854 67.665 74.998 9.6744 3.3664-8.9349-57.726-25.75-101.23z"/><path d="m1012.1 653.06c-5.6959-4.8015-20.715-9.1624-21.055-17.608-0.60849-15.122 10.102-27.831 23.923-28.387 3.4275-0.13821 6.7239 0.48599 9.7534 1.7308 0.1983-0.0781 0.3967-0.15526 0.5964-0.22302 0 0 49.373 15.684 29.929 64.783 0.094 2.3168-41.943 76.921-55.799 84.199-9.0686 4.7634 2.4707-58.978 12.652-104.5z"/><path d="m670 653.46s-0.62061 61.61 59.757 75.358l12.589-25.292s-43.75 4.2321-47.115-50.066z"/><path d="m977.49 653.46s0.62016 61.61-59.757 75.358l-12.589-25.292s43.75 4.2321 47.115-50.066z"/><path d="m933.87 716.3c-9.087-21.962-38.41-30.682-65.494-19.475-23.84 9.8638-37.98 31.875-34.833 51.984 18.823-0.29258 39.013-1.5127 58.667-4.3609 0 0-11.594 18.741-28.655 35.096 11.472 2.9612 24.853 2.1396 37.728-3.1879 27.085-11.206 41.675-38.095 32.588-60.057z"/><path d="m765.85 743.4s24.772 3.2736 58.637 4.1087c2.9662-21.32-13.184-43.883-38.951-52.612-28.467-9.6425-57.883 1.2529-65.702 24.336-7.8193 23.083 8.9192 49.613 37.386 59.256 12.619 4.2747 25.422 4.5094 36.451 1.4391-16.563-16.381-27.821-36.528-27.821-36.528z"/><g transform="matrix(0 1 1 0 264.44 -462.08)"><path d="m977.49 653.46s0.62016 61.61-59.757 75.358l-12.589-25.292s43.75 4.2321 47.115-50.066z"/><path d="m933.87 716.3c-9.087-21.962-38.41-30.682-65.494-19.475-23.84 9.8638-37.98 31.875-34.833 51.984 18.823-0.29258 39.013-1.5127 58.667-4.3609 0 0-11.594 18.741-28.655 35.096 11.472 2.9612 24.853 2.1396 37.728-3.1879 27.085-11.206 41.675-38.095 32.588-60.057z"/></g><g transform="matrix(-.33825 .94105 .94105 .33825 684.47 -594.4)"><path d="m977.49 653.46s0.62016 61.61-59.757 75.358l-12.589-25.292s43.75 4.2321 47.115-50.066z"/><path d="m933.87 716.3c-9.087-21.962-38.41-30.682-65.494-19.475-23.84 9.8638-37.98 31.875-34.833 51.984 18.823-0.29258 39.013-1.5127 58.667-4.3609 0 0-11.594 18.741-28.655 35.096 11.472 2.9612 24.853 2.1396 37.728-3.1879 27.085-11.206 41.675-38.095 32.588-60.057z"/></g><g transform="matrix(-.59524 .80355 .80355 .59524 1060.5 -573.32)"><path d="m977.49 653.46s0.62016 61.61-59.757 75.358l-12.589-25.292s43.75 4.2321 47.115-50.066z"/><path d="m933.87 716.3c-9.087-21.962-38.41-30.682-65.494-19.475-23.84 9.8638-37.98 31.875-34.833 51.984 18.823-0.29258 39.013-1.5127 58.667-4.3609 0 0-11.594 18.741-28.655 35.096 11.472 2.9612 24.853 2.1396 37.728-3.1879 27.085-11.206 41.675-38.095 32.588-60.057z"/></g><g transform="matrix(-1 0 0 1 1638.8 0)"><g transform="matrix(0 1 1 0 264.44 -462.08)"><path d="m977.49 653.46s0.62016 61.61-59.757 75.358l-12.589-25.292s43.75 4.2321 47.115-50.066z"/><path d="m933.87 716.3c-9.087-21.962-38.41-30.682-65.494-19.475-23.84 9.8638-37.98 31.875-34.833 51.984 18.823-0.29258 39.013-1.5127 58.667-4.3609 0 0-11.594 18.741-28.655 35.096 11.472 2.9612 24.853 2.1396 37.728-3.1879 27.085-11.206 41.675-38.095 32.588-60.057z"/></g><g transform="matrix(-.33825 .94105 .94105 .33825 684.47 -594.4)"><path d="m977.49 653.46s0.62016 61.61-59.757 75.358l-12.589-25.292s43.75 4.2321 47.115-50.066z"/><path d="m933.87 716.3c-9.087-21.962-38.41-30.682-65.494-19.475-23.84 9.8638-37.98 31.875-34.833 51.984 18.823-0.29258 39.013-1.5127 58.667-4.3609 0 0-11.594 18.741-28.655 35.096 11.472 2.9612 24.853 2.1396 37.728-3.1879 27.085-11.206 41.675-38.095 32.588-60.057z"/></g><g transform="matrix(-.59524 .80355 .80355 .59524 1060.5 -573.32)"><path d="m977.49 653.46s0.62016 61.61-59.757 75.358l-12.589-25.292s43.75 4.2321 47.115-50.066z"/><path d="m933.87 716.3c-9.087-21.962-38.41-30.682-65.494-19.475-23.84 9.8638-37.98 31.875-34.833 51.984 18.823-0.29258 39.013-1.5127 58.667-4.3609 0 0-11.594 18.741-28.655 35.096 11.472 2.9612 24.853 2.1396 37.728-3.1879 27.085-11.206 41.675-38.095 32.588-60.057z"/></g></g></g>
    <path d="m828.19 417.86c-11.69 3.6708-21.163 14.78-25.18 29.53-20.173-6.0254-29.456-0.27328-29.456-0.27328s7.9916 2.8135 9.2742 7.6003c0.77826 2.9045 0.81824 5.8495 0.59906 8.8795-15.935 3.3896-28.471 15.266-32.29 30.592-4.841-7.3065-11.316-12.462-18.519-14.745-14.134 4.4354-24.77 19.619-26.858 38.341-20.184-0.1144-30.395 23.349-36.017 38.14 12.983-8.4613 28.155-15.675 44.218-21.022 19.665-6.5364 39.858-10.01 58.024-9.9825 28.014 0.0523 48.711 8.4145 56.205 22.709 12.8-24.381 62.479-29.916 114.23-12.727 16.062 5.3479 31.234 12.561 44.218 21.022-5.6228-14.791-15.833-38.255-36.017-38.14-2.0883-18.722-12.724-33.906-26.858-38.341-7.2032 2.2832-13.678 7.4385-18.519 14.745-3.8197-15.325-16.356-27.202-32.29-30.592-0.21918-3.03-0.17918-5.975 0.59906-8.8795 1.2826-4.7868 9.2742-7.6003 9.2742-7.6003s-9.2836-5.7522-29.456 0.27328c-4.0165-14.75-13.489-25.859-25.18-29.53z" fill="#fbc328" style="paint-order:markers stroke fill"/></g>
</svg>
