<?xml version="1.0" encoding="UTF-8" standalone="no"?>
<svg
   width="100%"
   height="100%"
   viewBox="0 0 4417 3259"
   version="1.1"
   xml:space="preserve"
   style="fill-rule:evenodd;clip-rule:evenodd;stroke-linejoin:round;stroke-miterlimit:1.41421;"
   id="svg2124"
   sodipodi:docname="cuddlyferris_pumpkin.svg"
   inkscape:version="1.2.2 (b0a8486541, 2022-12-01)"
   xmlns:inkscape="http://www.inkscape.org/namespaces/inkscape"
   xmlns:sodipodi="http://sodipodi.sourceforge.net/DTD/sodipodi-0.dtd"
   xmlns="http://www.w3.org/2000/svg"
   xmlns:svg="http://www.w3.org/2000/svg"><defs
   id="defs2128" /><sodipodi:namedview
   id="namedview2126"
   pagecolor="#ffffff"
   bordercolor="#666666"
   borderopacity="1.0"
   inkscape:showpageshadow="2"
   inkscape:pageopacity="0.0"
   inkscape:pagecheckerboard="0"
   inkscape:deskcolor="#d1d1d1"
   showgrid="false"
   inkscape:zoom="0.53329242"
   inkscape:cx="1246.0331"
   inkscape:cy="1261.0342"
   inkscape:window-width="3812"
   inkscape:window-height="1052"
   inkscape:window-x="0"
   inkscape:window-y="0"
   inkscape:window-maximized="1"
   inkscape:current-layer="g2122"
   showguides="true" />
    <g
   transform="matrix(4.16667,0,0,4.16667,-1216.575,-898.0546)"
   id="g2122"
   style="display:inline">
        
        
        
        
        
        
        
        
        
        
        
        
        
        
        <g
   id="g13981"
   style="display:inline"><path
     d="m 819.99802,562.58817 c -59.06903,0 -112.73612,7.10132 -152.46848,18.67433 v 98.85658 c 39.73236,11.57301 93.39945,18.67388 152.46848,18.67388 67.60586,0 128.13105,-9.30194 168.78647,-23.96363 V 586.55404 C 948.12907,571.89101 887.60388,562.58817 819.99802,562.58817 Z"
     style="fill:#994320;fill-rule:nonzero;stroke-width:1;fill-opacity:1"
     id="path2092" /><path
     d="m 991.42577,652.06339 c -1.73079,-4.78492 -2.07722,-10.83887 -0.61073,-16.67608 2.62513,-10.45072 10.06116,-16.2435 16.60926,-12.93853 1.6235,0.81985 3.0397,2.12299 4.2123,3.77749 0.1072,-4.5e-4 0.2145,0 0.3208,0.007 0,0 19.9923,23.8308 1.4867,52.05522 -0.4016,1.60155 -34.34388,41.15756 -42.20087,42.41672 -5.14256,0.82389 6.68219,-40.38572 20.18254,-68.642 z"
     style="fill:#994320;fill-rule:nonzero;stroke-width:1;fill-opacity:1"
     id="path2094" /><path
     d="m 663.42177,647.38707 c 2.37833,-4.32137 3.21209,-10.22589 1.89234,-16.34537 -2.36307,-10.95644 -10.72938,-18.44771 -18.68644,-16.73128 -1.97356,0.42541 -3.73576,1.37853 -5.23501,2.73642 -0.12654,-0.026 -0.25309,-0.0507 -0.37918,-0.0686 0,0 -25.26049,18.82555 -5.41046,51.12228 0.36123,1.67874 37.62732,48.83999 46.80854,51.94752 6.00908,2.03369 -5.04698,-41.51969 -18.98979,-72.66092 z"
     style="fill:#994320;fill-rule:nonzero;stroke-width:1;fill-opacity:1"
     id="path2096" /><path
     d="m 627.96591,650.0997 0.003,0.007 c 0.083,0.0651 0.1602,0.12386 -0.003,-0.007 z"
     style="fill:#e33a25;fill-rule:nonzero;stroke-width:1"
     id="path2098" /><path
     d="m 1029.881,616.37104 c -0.3949,-1.37494 -0.788,-2.74898 -1.1945,-4.11136 l 13.7687,-19.94695 c 1.4045,-2.02921 1.6917,-4.666 0.7763,-6.98016 -0.9154,-2.30203 -2.9123,-3.9534 -5.2772,-4.35726 l -23.2833,-3.95116 c -0.9011,-1.84074 -1.847,-3.65365 -2.7957,-5.4522 l 9.7812,-22.39348 c 1.0065,-2.28274 0.7938,-4.9339 -0.5398,-7.00394 -1.3287,-2.08036 -3.5855,-3.29555 -5.9903,-3.20086 l -23.62883,0.85844 c -1.22371,-1.59303 -2.46628,-3.1717 -3.73442,-4.7212 l 5.43021,-24.00312 c 0.54971,-2.438 -0.14449,-4.98909 -1.84118,-6.75982 -1.68816,-1.76445 -4.14142,-2.49455 -6.47353,-1.92195 l -23.01544,5.65771 c -1.49026,-1.31705 -3.00611,-2.6175 -4.53856,-3.89192 l 0.82928,-24.64212 c 0.0889,-2.49455 -1.07384,-4.8648 -3.07118,-6.24871 -1.9951,-1.39289 -4.52914,-1.60335 -6.71136,-0.56811 l -21.47088,10.2075 c -1.72944,-0.99172 -3.46786,-1.97446 -5.22513,-2.92444 l -3.7941,-24.28358 c -0.38457,-2.46 -1.96772,-4.54933 -4.18495,-5.5038 -2.20915,-0.95941 -4.74229,-0.64978 -6.68219,0.81132 l -19.14281,14.36283 c -1.88471,-0.62644 -3.77794,-1.22641 -5.69541,-1.7999 l -8.25054,-23.028 c -0.83914,-2.34646 -2.77366,-4.07052 -5.13269,-4.55516 -2.35095,-0.4806 -4.77011,0.33341 -6.40038,2.15485 l -16.11292,18.02679 c -1.94843,-0.22437 -3.89731,-0.42899 -5.85292,-0.59772 l -12.44043,-20.962 c -1.26096,-2.12344 -3.48671,-3.41582 -5.88567,-3.41582 -2.39358,0 -4.62382,1.29238 -5.87401,3.41582 l -12.44492,20.962 c -1.95561,0.16873 -3.91391,0.37335 -5.85875,0.59772 l -16.11426,-18.02679 c -1.63162,-1.82144 -4.05976,-2.63545 -6.40263,-2.15485 -2.35813,0.49002 -4.29579,2.2087 -5.13045,4.55516 l -8.25771,23.028 c -1.91164,0.57349 -3.80577,1.17884 -5.69497,1.7999 l -19.13608,-14.36283 c -1.94573,-1.46559 -4.47842,-1.77477 -6.69341,-0.81132 -2.20735,0.95447 -3.79679,3.0438 -4.17911,5.5038 l -3.7968,24.28358 c -1.75636,0.94998 -3.49523,1.92689 -5.22917,2.92444 l -21.46863,-10.2075 c -2.17998,-1.03883 -4.72478,-0.82478 -6.71046,0.56811 -1.99465,1.38391 -3.16003,3.75416 -3.06938,6.24871 l 0.82344,24.64212 c -1.52796,1.27442 -3.03977,2.57487 -4.53767,3.89192 l -23.01095,-5.65771 c -2.33838,-0.56766 -4.78806,0.1575 -6.48026,1.92195 -1.70296,1.77073 -2.39268,4.32182 -1.84566,6.75982 l 5.42033,24.00312 c -1.25737,1.55578 -2.50173,3.12817 -3.7214,4.7212 l -23.62842,-0.85844 c -2.38506,-0.0705 -4.66107,1.1205 -5.99338,3.20086 -1.335,2.07004 -1.53693,4.7212 -0.54342,7.00394 l 9.78882,22.39348 c -0.95088,1.79855 -1.89548,3.61146 -2.80418,5.4522 l -23.28199,3.95116 c -2.36531,0.39848 -4.35906,2.04894 -5.27898,4.35726 -0.91408,2.31416 -0.61747,4.95095 0.77856,6.98016 l 13.77184,19.94695 c -0.10635,0.35181 -0.20417,0.70722 -0.30963,1.06082 l -7.56711,8.03784 20.34634,28.74136 c 0,0 195.27022,90.07653 376.40199,1.52393 20.6905,-3.71243 25.5131,-35.25259 25.5131,-35.25259 z"
     style="fill:#e47825;fill-rule:nonzero;stroke-width:1;fill-opacity:1"
     id="path2100" /><path
     d="m 857.19859,549.90931 c 0,0 21.60998,-23.66162 43.22041,0 0,0 16.98034,31.55183 0,47.3255 0,0 -27.78465,22.08565 -43.22041,0 0,0 -18.52355,-17.35369 0,-47.3255 z"
     style="fill:#000000;fill-rule:nonzero;stroke-width:1;fill-opacity:1"
     id="path2102" /><path
     d="m 878.46586,556.53813 c 0,9.21398 -5.4311,16.68371 -12.12945,16.68371 -6.697,0 -12.1281,-7.46973 -12.1281,-16.68371 0,-9.21354 5.4311,-16.68416 12.1281,-16.68416 6.69835,0 12.12945,7.47062 12.12945,16.68416 z"
     style="fill:#e47825;fill-rule:nonzero;stroke-width:1;fill-opacity:1"
     id="path2104" /><path
     d="m 760.74725,543.44835 c 0,0 37.06954,-16.41312 47.18684,20.22113 0,0 10.59834,42.69943 -30.4412,45.10962 0,0 -52.33298,-10.07961 -16.74564,-65.33075 z"
     style="fill:#000000;fill-rule:nonzero;stroke-width:1;fill-opacity:1"
     id="path2106" /><path
     d="m 775.6137,557.14303 c 0,9.50118 -5.60028,17.2074 -12.50954,17.2074 -6.90656,0 -12.50818,-7.70622 -12.50818,-17.2074 0,-9.50342 5.60162,-17.20739 12.50818,-17.20739 6.90926,0 12.50954,7.70397 12.50954,17.20739 z"
     style="fill:#e47825;fill-rule:nonzero;stroke-width:1;fill-opacity:1"
     id="path2108" /><path
     d="m 634.30885,655.10316 c 4.92133,-5.59265 16.87757,-12.36594 15.96169,-20.7686 -1.63925,-15.04491 -14.11557,-26.02649 -27.86632,-24.52769 -3.41043,0.37155 -6.57763,1.47725 -9.38944,3.15733 -0.20732,-0.048 -0.41509,-0.0947 -0.62285,-0.13193 0,0 -46.5034,22.82877 -19.99766,68.50335 0.24994,2.30517 52.88314,69.85449 67.66464,74.9984 9.67439,3.36645 -8.93486,-57.72594 -25.75006,-101.23086 z"
     style="fill:#e47825;fill-rule:nonzero;stroke-width:1;fill-opacity:1"
     id="path2110" /><path
     d="m 1012.1244,653.06453 c -5.6959,-4.80152 -20.71478,-9.16238 -21.05493,-17.60767 -0.60849,-15.12165 10.10203,-27.83132 23.92323,-28.38731 3.4275,-0.13821 6.7239,0.48599 9.7534,1.73079 0.1983,-0.0781 0.3967,-0.15526 0.5964,-0.22302 0,0 49.3726,15.68392 29.9287,64.78284 0.094,2.31684 -41.9429,76.92126 -55.79862,84.19937 -9.06859,4.76338 2.47072,-58.97838 12.65182,-104.495 z"
     style="fill:#e47825;fill-rule:nonzero;stroke-width:1;fill-opacity:1"
     id="path2112" /><path
     d="m 670.00165,653.46167 c 0,0 -0.62061,61.61024 59.75695,75.35785 l 12.58896,-25.29235 c 0,0 -43.74994,4.23207 -47.11549,-50.0655 z"
     style="fill:#e47825;fill-rule:nonzero;stroke-width:1;fill-opacity:1"
     id="path2114" /><path
     d="m 977.48745,653.46167 c 0,0 0.62016,61.61024 -59.75739,75.35785 L 905.1411,703.52717 c 0,0 43.74993,4.23207 47.11548,-50.0655 z"
     style="fill:#e47825;fill-rule:nonzero;stroke-width:1;fill-opacity:1"
     id="path2116" /><path
     d="m 933.87214,716.30011 c -9.08699,-21.96225 -38.40992,-30.68172 -65.49409,-19.47533 -23.83977,9.86376 -37.98003,31.87492 -34.83301,51.98432 18.82286,-0.29258 39.01348,-1.5127 58.66651,-4.36086 0,0 -11.59411,18.74074 -28.65521,35.09643 11.47249,2.96123 24.85258,2.13959 37.72828,-3.18786 27.08462,-11.20639 41.67451,-38.0949 32.58752,-60.0567 z"
     style="fill:#e47825;fill-rule:nonzero;stroke-width:1;fill-opacity:1"
     id="path2118" /><path
     d="m 765.85437,743.40088 c 0,0 24.7718,3.27356 58.63689,4.10867 2.96617,-21.3201 -13.18399,-43.88321 -38.95111,-52.61166 -28.46718,-9.64253 -57.88256,1.25289 -65.70185,24.33608 -7.8193,23.0832 8.91916,49.61273 37.38634,59.25571 12.61903,4.2747 25.42248,4.50939 36.45072,1.43911 -16.56345,-16.38127 -27.82099,-36.52791 -27.82099,-36.52791 z"
     style="clip-rule:evenodd;display:inline;fill:#e47825;fill-rule:nonzero;stroke-width:1;stroke-linejoin:round;stroke-miterlimit:1.41421;fill-opacity:1"
     id="path2120" /></g>
    <path
   style="fill:#000000;fill-opacity:1;stroke:none;stroke-width:0.24px;stroke-linecap:butt;stroke-linejoin:miter;stroke-opacity:1"
   d="m 694.04534,588.21982 c 0,0 38.38419,46.00606 60.80152,52.90248 l 28.41039,-19.60253 13.51249,25.69405 28.07127,-25.69405 29.3673,23.34533 17.57343,-25.20701 18.94159,17.33872 c 33.72268,-17.6445 72.07539,-48.46608 72.07539,-48.46608 0,0 -29.4515,50.61085 -71.64572,78.56043 l -15.50655,-13.62949 -17.74705,24.51925 -33.05839,-21.05298 -35.44457,19.69731 -20.14199,-23.16358 -16.92108,13.62949 c -40.89685,-30.17514 -58.28803,-78.87134 -58.28803,-78.87134 z"
   id="path4955"
   sodipodi:nodetypes="ccccccccccccccccc" /><path
   style="fill:#68c341;fill-opacity:1;stroke:none;stroke-width:0.24px;stroke-linecap:butt;stroke-linejoin:miter;stroke-opacity:1"
   d="m 806.70746,479.11819 c 0,0 8.89167,-68.04094 -28.38681,-88.2541 -37.27852,-20.21315 -42.92453,-23.33306 -42.92453,-23.33306 0,0 12.86534,-45.93164 51.37488,-38.13249 38.50957,7.79916 52.50668,29.83144 58.44183,76.27505 5.93515,46.44363 -0.1988,71.83728 -0.1988,71.83728 z"
   id="path8683"
   sodipodi:nodetypes="cscsscc" /><path
   style="fill:#68c341;fill-opacity:1;stroke:none;stroke-width:0.24px;stroke-linecap:butt;stroke-linejoin:miter;stroke-opacity:1"
   d="m 842.37231,445.60476 c 0,0 18.27345,-21.20137 44.64,-23.68151 26.36654,-2.48015 42.7377,6.8306 53.64926,7.79381 15.1995,1.34171 25.08874,-1.56882 25.08874,-1.56882 0,0 -12.0529,15.40899 -21.81339,18.27948 -9.76049,2.8705 -19.18945,3.48765 -19.18945,3.48765 0,0 10.86666,2.91007 27.20872,3.18916 11.30014,0.19298 25.32807,6.05597 25.32807,6.05597 0,0 -11.58851,3.8672 -40.3906,13.52247 -21.74073,7.2881 -78.87346,21.09947 -98.24629,-16.44205 z"
   id="path10137"
   sodipodi:nodetypes="csscscscscc" /><g
   id="g13052"
   transform="matrix(0.67903044,-0.22426086,0.22426086,0.67903044,54.304212,396.10243)"
   style="fill:#68c341;fill-opacity:1;stroke-width:1.39839"><path
     style="fill:#68c341;fill-opacity:1;stroke:none;stroke-width:0.335615px;stroke-linecap:butt;stroke-linejoin:miter;stroke-opacity:1"
     d="m 982.73099,391.20402 c 0,0 -37.80637,-14.92507 -66.53738,-34.23994 -35.23286,-23.68585 -82.79546,-0.28214 -100.37104,-30.72393 -12.8903,-22.32665 -6.65908,-56.77695 -6.65908,-56.77695 0,0 -26.39123,53.14119 -0.29798,88.39534 22.49624,30.39429 51.52887,28.25345 82.44099,50.42335 26.44344,18.965 65.13357,37.63744 83.26762,11.62281 14.21037,-20.38581 8.15687,-28.70068 8.15687,-28.70068 z"
     id="path10865"
     sodipodi:nodetypes="csscsssc" /><path
     style="fill:#68c341;fill-opacity:1;stroke:none;stroke-width:0.335615px;stroke-linecap:butt;stroke-linejoin:miter;stroke-opacity:1"
     d="m 879.77607,296.63814 c 15.23638,32.49 64.82114,27.98194 88.40793,69.29059 16.60907,29.08824 15.45409,32.99312 15.45409,32.99312 l -59.98374,-3.63016 c 0,0 8.39146,-32.13672 -8.8504,-44.71599 -32.93929,-24.03177 -35.02788,-53.93756 -35.02788,-53.93756 z"
     id="path10867"
     sodipodi:nodetypes="csccsc" /><path
     style="fill:#68c341;fill-opacity:1;stroke:none;stroke-width:0.335615px;stroke-linecap:butt;stroke-linejoin:miter;stroke-opacity:1"
     d="m 932.46709,429.68902 c 0,0 -47.68609,-14.35232 -68.06473,-9.5243 -20.37865,4.82803 -26.0271,6.36445 -26.0271,6.36445 0,0 22.62608,-34.02243 49.33936,-29.00795 26.71325,5.01449 44.75247,32.1678 44.75247,32.1678 z"
     id="path10869" /></g><path
   style="color:#000000;clip-rule:nonzero;fill:#68c341;fill-opacity:1;fill-rule:nonzero;stroke-width:1;stroke-linecap:round;stroke-linejoin:miter;-inkscape-stroke:none"
   d="m 880.59558,368.44181 c -8.1565,-1.51608 -17.62937,0.83661 -24.95341,8.73531 -4.13859,4.46329 -5.83857,8.30625 -5.51476,11.68155 0.32381,3.37533 2.85448,5.68629 5.56162,6.6339 2.70713,0.94761 5.73112,0.88002 8.23572,-0.37703 1.25236,-0.62851 2.30232,-1.78248 2.89164,-3.18609 0.48482,-1.15495 0.64784,-2.71197 0.24044,-3.97213 -0.29292,-1.12908 -1.00344,-1.60567 -1.70718,-1.38919 -0.70381,0.21647 -0.33657,1.29766 -0.57879,2.80984 -0.30002,1.8161 -1.26101,2.27102 -2.49957,2.88811 -1.21403,0.60927 -3.53015,0.36318 -5.14911,-0.20351 -1.61894,-0.5667 -2.64012,-2.03025 -2.79145,-3.6077 -0.15133,-1.57745 0.89974,-4.27041 4.59547,-8.25611 7.29828,-7.87093 15.49973,-7.92354 22.83072,-5.46372 7.33104,2.45983 13.79711,7.57054 13.08518,15.07096 -0.77476,8.1625 -3.64133,11.32391 -8.48126,14.62841 -4.84,3.30449 -13.37836,4.08319 -23.52101,9.0068 -21.49455,10.4342 -24.27761,40.24662 -24.27761,40.24662 -0.16672,1.15436 0.63368,2.22534 1.78802,2.39206 1.15438,0.16688 2.22537,-0.63368 2.3921,-1.78805 0,0 3.98797,-25.93449 22.94594,-35.13738 9.93592,-4.82323 17.45469,-7.41033 23.05361,-11.23303 5.59892,-3.8227 9.00524,-9.19139 9.85659,-18.1604 0.91417,-9.63107 -5.7863,-17.48056 -14.59739,-20.43699 -1.10138,-0.36955 -2.24029,-0.66563 -3.40553,-0.88223 z"
   id="path13054"
   sodipodi:nodetypes="ssssssczccssssssscccsssss" /><path
   style="fill:#68c341;fill-opacity:1;stroke:none;stroke-width:0.24px;stroke-linecap:butt;stroke-linejoin:miter;stroke-opacity:1"
   d="m 806.88332,468.07819 c 0,0 -1.45894,11.1836 -8.81405,19.17586 -7.35508,7.99224 22.73841,-2.09637 22.73841,-2.09637 0,0 6.27651,6.80572 12.71241,9.64225 6.43589,2.83651 2.8815,-10.86983 2.8815,-10.86983 0,0 11.84171,5.65257 20.41067,4.4019 4.63546,-0.67656 -8.36659,-10.28835 -10.6476,-23.10984 z"
   id="path19373"
   sodipodi:nodetypes="cscscscc" /></g>
</svg>
