<?xml version="1.0" encoding="UTF-8"?>
<svg width="106" height="106" version="1.1" xmlns="http://www.w3.org/2000/svg">
 <path d="m26.455 5.9555 73.59 73.59c6.6356 6.6357 7.4064 16.549 1.7282 22.227-5.6782 5.6782-15.592 4.9075-22.227-1.7282l-73.59-73.59c-6.6357-6.6357-7.4064-16.549-1.7282-22.227s15.592-4.9075 22.227 1.7282z" stroke-linecap="round" stroke-linejoin="round" stroke-width="140" style="paint-order:markers stroke fill"/>
 <path d="m79.545 5.9555-73.59 73.59c-6.6356 6.6357-7.4064 16.549-1.7282 22.227 5.6782 5.6782 15.592 4.9075 22.227-1.7282l73.59-73.59c6.6357-6.6357 7.4064-16.549 1.7282-22.227-5.6782-5.6782-15.592-4.9075-22.227 1.7282z" stroke-linecap="round" stroke-linejoin="round" stroke-width="140" style="paint-order:markers stroke fill"/>
</svg>
