<?xml version="1.0" encoding="UTF-8"?>
<svg width="106" height="106" version="1.1" xmlns="http://www.w3.org/2000/svg" xmlns:xlink="http://www.w3.org/1999/xlink">
 <g id="logo" transform="matrix(1.0095 0 0 1.0095 53.001 53)" fill="#1a1a1a" stroke-width=".99059">
  <path transform="translate(.5 .5)" d="m-.67188-52.992a1.5002 1.5002 0 00-1.1152.7207l-2.6699 4.4492c-.46783.03885-.93455.08043-1.3984.13281l-3.4824-3.8379a1.5002 1.5002 0 00-1.2344-.48828 1.5002 1.5002 0 00-1.291.99023l-1.75 4.8828c-.4513.12999-.90188.26136-1.3477.4043l-4.1621-3.084a1.5002 1.5002 0 00-.9668-.29492 1.5002 1.5002 0 00-1.4121 1.2793l-.76562 5.1465c-.41027.21265-.81939.42623-1.2227.65039l-4.7031-2.2207a1.5002 1.5002 0 00-.66602-.14453 1.5002 1.5002 0 00-1.4727 1.5742l.25391 5.2129c-.35633.28459-.70879.57268-1.0566.86719l-5.0625-1.2656a1.5002 1.5002 0 00-.33984-.04492 1.5002 1.5002 0 00-1.4805 1.8652l1.2656 5.0625c-.2945.34789-.5826.70035-.86719 1.0566l-5.2129-.25391a1.5002 1.5002 0 00-1.4297 2.1387l2.2207 4.7031c-.22416.40322-.43774.81234-.65039 1.2227l-5.1465.76562a1.5002 1.5002 0 00-.98438 2.3789l3.084 4.1621c-.14294.44573-.27431.89631-.4043 1.3477l-4.8828 1.75a1.5002 1.5002 0 00-.50195 2.5254l3.8379 3.4824c-.05239.46393-.09396.93065-.13281 1.3984l-4.4492 2.6699a1.5002 1.5002 0 000 2.5742l4.4492 2.6699c.03885.46783.08043.93455.13281 1.3984l-3.8379 3.4824a1.5002 1.5002 0 00.50195 2.5254l4.8828 1.75c.12999.4513.26136.90188.4043 1.3477l-3.084 4.1621a1.5002 1.5002 0 00.98438 2.3789l5.1465.76562c.21265.41027.42623.81939.65039 1.2227l-2.2207 4.7031a1.5002 1.5002 0 001.4297 2.1387l5.2129-.25391c.28459.35633.57268.70879.86719 1.0566l-1.2656 5.0625a1.5002 1.5002 0 001.8203 1.8203l5.0625-1.2656c.34789.2945.70035.5826 1.0566.86719l-.25391 5.2129a1.5002 1.5002 0 002.1387 1.4297l4.7031-2.2207c.40322.22416.81234.43774 1.2227.65039l.76562 5.1465a1.5002 1.5002 0 002.3789.98438l4.1621-3.084c.44573.14294.89631.27431 1.3477.4043l1.75 4.8828a1.5002 1.5002 0 002.5254.50195l3.4824-3.8379c.46393.05239.93065.09396 1.3984.13281l2.6699 4.4492a1.5002 1.5002 0 002.5742 0l2.6699-4.4492c.46783-.03885.93455-.08043 1.3984-.13281l3.4824 3.8379a1.5002 1.5002 0 002.5254-.50195l1.75-4.8828c.4513-.12999.90188-.26136 1.3477-.4043l4.1621 3.084a1.5002 1.5002 0 002.3789-.98438l.76562-5.1465c.41027-.21265.81939-.42623 1.2227-.65039l4.7031 2.2207a1.5002 1.5002 0 002.1387-1.4297l-.25391-5.2129c.35633-.28459.70879-.57268 1.0566-.86719l5.0625 1.2656a1.5002 1.5002 0 001.8203-1.8203l-1.2656-5.0625c.2945-.34789.5826-.70035.86719-1.0566l5.2129.25391a1.5002 1.5002 0 001.4297-2.1387l-2.2207-4.7031c.22416-.40322.43774-.81234.65039-1.2227l5.1465-.76562a1.5002 1.5002 0 00.98438-2.3789l-3.084-4.1621c.14294-.44573.27431-.89631.4043-1.3477l4.8828-1.75a1.5002 1.5002 0 00.50195-2.5254l-3.8379-3.4824c.05239-.46393.09396-.93065.13281-1.3984l4.4492-2.6699a1.5002 1.5002 0 000-2.5742l-4.4492-2.6699c-.03885-.46783-.08043-.93455-.13281-1.3984l3.8379-3.4824a1.5002 1.5002 0 00-.50195-2.5254l-4.8828-1.75c-.12999-.4513-.26136-.90188-.4043-1.3477l3.084-4.1621a1.5002 1.5002 0 00-.98438-2.3789l-5.1465-.76562c-.21265-.41027-.42623-.81939-.65039-1.2227l2.2207-4.7031a1.5002 1.5002 0 00-1.4297-2.1387l-5.2129.25391c-.28459-.35633-.57268-.70879-.86719-1.0566l1.2656-5.0625a1.5002 1.5002 0 00-1.459-1.8652 1.5002 1.5002 0 00-.36133.04492l-5.0625 1.2656c-.34789-.2945-.70035-.5826-1.0566-.86719l.25391-5.2129a1.5002 1.5002 0 00-1.4336-1.5723 1.5002 1.5002 0 00-.70508.14258l-4.7031 2.2207c-.40322-.22416-.81234-.43774-1.2227-.65039l-.76562-5.1465a1.5002 1.5002 0 00-1.4121-1.2793 1.5002 1.5002 0 00-.9668.29492l-4.1621 3.084c-.44573-.14294-.89631-.27431-1.3477-.4043l-1.75-4.8828a1.5002 1.5002 0 00-1.291-.99023 1.5002 1.5002 0 00-1.2344.48828l-3.4824 3.8379c-.46393-.05239-.93065-.09396-1.3984-.13281l-2.6699-4.4492a1.5002 1.5002 0 00-1.459-.7207zm.17188 9.4922a3 3 0 013 3 3 3 0 01-3 3 3 3 0 01-3-3 3 3 0 013-3zm-7.0859 5.1562 4.9648 4.9648a3.0003 3.0003 0 004.2422 0l4.9648-4.9648c11.563 2.139 21.288 9.4102 26.729 19.385l-3.2012 6.2812a3.0003 3.0003 0 001.3125 4.0352l6.248 3.1836c.20762 1.6243.32617 3.2768.32617 4.959 0 1.0111-.04895 2.009-.125 3h-3.875a.50005.50005 0 00-.5.5v2c0 1.9062-.52833 3.2086-1.293 4.0566-.76461.84802-1.7839 1.2619-2.8574 1.3184-2.1469.113-4.4147-1.2492-4.8594-3.4727-.52011-2.6006-1.806-4.9079-3.0938-6.582-.64389-.83705-1.2882-1.5159-1.8535-1.998-.20616-.17584-.39046-.29498-.57617-.41797 3.316-1.9585 5.5342-4.3075 6.5742-6.8398 1.1286-2.7479 1.0287-5.6376.05273-8.2402-1.952-5.2052-7.3713-9.3242-13.594-9.3242h-40.908c5.52-6.0281 12.932-10.292 21.322-11.844zm-30.871 22.484a3 3 0 01.8418.14648 3 3 0 011.9258 3.7793 3 3 0 01-3.7793 1.9258 3 3 0 01-1.9258-3.7793 3 3 0 012.9375-2.0723zm75.914 0a3 3 0 012.9375 2.0723 3 3 0 01-1.9258 3.7793 3 3 0 01-3.7793-1.9258 3 3 0 011.9258-3.7793 3 3 0 01.8418-.14648zm-69.498 1.3594h6.541v25h-11.91c-1.0329-3.483-1.5898-7.174-1.5898-11 0-1.6822.11855-3.3347.32617-4.959l6.248-3.1836a3.0003 3.0003 0 001.3125-4.0352l-.92774-1.8223zm23.541 0h12.5c1.9167 0 3.3059.48038 4.1992 1.1504.89333.67 1.3008 1.5163 1.3008 2.3496s-.40743 1.6796-1.3008 2.3496c-.89333.67-2.2826 1.1504-4.1992 1.1504h-12.5zm0 18h9.5c2.6061 0 4.0826 1.0611 5.1406 2.7363s1.6209 4.0004 2.1191 6.3672c.49827 2.3668.93007 4.7685 1.8535 6.6484.92346 1.8799 2.4608 3.248 4.8867 3.248h15.385c-.89887 1.2061-1.8576 2.364-2.8887 3.4551l-6.9551-1.1016a3.0003 3.0003 0 00-.66992-.03125 3.0003 3.0003 0 00-2.7617 2.5234l-1.1035 6.9609c-4.9989 2.3664-10.592 3.6934-16.506 3.6934s-11.507-1.3269-16.506-3.6934l-1.1035-6.9609a3.0003 3.0003 0 00-2.7617-2.5234 3.0003 3.0003 0 00-.66992.03125l-6.9551 1.1016c-1.0311-1.091-1.9898-2.249-2.8887-3.4551h31.385a.50005.50005 0 00.5-.5v-11a.50005.50005 0 00-.5-.5h-8.5v-7zm-15.34 25.365a3 3 0 011.5918.56836 3 3 0 01.66406 4.1914 3 3 0 01-4.1914.66211 3 3 0 01-.66211-4.1895 3 3 0 012.5977-1.2324zm46.68 0a3 3 0 012.5977 1.2324 3 3 0 01-.66211 4.1895 3 3 0 01-4.1914-.66211 3 3 0 01.66406-4.1914 3 3 0 011.5918-.56836z" fill="#1a1a1a" stroke-width=".99059" style="-inkscape-stroke:none"/>
  <mask id="holes">
   <rect x="-60" y="-60" width="120" height="120" fill="#fff"/>
   <circle id="hole" cy="-40" r="3"/>
   <use transform="rotate(72)" xlink:href="#hole"/>
   <use transform="rotate(144)" xlink:href="#hole"/>
   <use transform="rotate(216)" xlink:href="#hole"/>
   <use transform="rotate(-72)" xlink:href="#hole"/>
  </mask>
 </g>
</svg>
